%TF.GenerationSoftware,KiCad,Pcbnew,7.0.2-0*%
%TF.CreationDate,2023-09-16T16:43:01+01:00*%
%TF.ProjectId,buteo-mx,62757465-6f2d-46d7-982e-6b696361645f,0.0.1*%
%TF.SameCoordinates,Original*%
%TF.FileFunction,Drillmap*%
%TF.FilePolarity,Positive*%
%FSLAX45Y45*%
G04 Gerber Fmt 4.5, Leading zero omitted, Abs format (unit mm)*
G04 Created by KiCad (PCBNEW 7.0.2-0) date 2023-09-16 16:43:01*
%MOMM*%
%LPD*%
G01*
G04 APERTURE LIST*
%ADD10C,0.100000*%
%ADD11C,0.200000*%
%ADD12C,0.040000*%
%ADD13C,0.090000*%
%ADD14C,0.120000*%
%ADD15C,0.220000*%
G04 APERTURE END LIST*
D10*
X7501985Y-3951422D02*
X7501985Y-3951422D01*
G75*
G02*
X7746926Y-3810019I193175J-51768D01*
G01*
X9200770Y-4199554D01*
G75*
G02*
X9342187Y-4444529I-51730J-193166D01*
G01*
X9340362Y-4451340D01*
G75*
G03*
X9622920Y-4941214I386348J-103580D01*
G01*
X10996230Y-5310227D01*
G75*
G02*
X11137536Y-5555064I-51910J-193153D01*
G01*
X11012522Y-6022346D01*
G75*
G03*
X11295285Y-6512062I386408J-103384D01*
G01*
X12655474Y-6876977D01*
X14149377Y-7254079D01*
G75*
G02*
X14300427Y-7447996I-48947J-193921D01*
G01*
X14300427Y-9149608D01*
G75*
G03*
X14500428Y-9349608I200003J8D01*
G01*
X15294228Y-9349608D01*
G75*
G03*
X15494228Y-9149608I-8J200008D01*
G01*
X15494227Y-7448297D01*
G75*
G02*
X15645640Y-7254288I200013J-13D01*
G01*
X17156169Y-6875995D01*
X18514047Y-6512015D01*
G75*
G03*
X18796858Y-6022143I-103567J386365D01*
G01*
X18671671Y-5554859D01*
G75*
G02*
X18813048Y-5309930I193189J51759D01*
G01*
X20186387Y-4941598D01*
G75*
G03*
X20469233Y-4452075I-103617J386348D01*
G01*
X20467163Y-4444323D01*
G75*
G02*
X20608645Y-4199546I193207J51603D01*
G01*
X22062521Y-3810083D01*
G75*
G02*
X22307433Y-3951420I51739J-193207D01*
G01*
X22337354Y-4062882D01*
G75*
G03*
X22813485Y-4348967I386336J103722D01*
G01*
X24377589Y-3988594D01*
G75*
G02*
X24617371Y-4138511I44931J-194846D01*
G01*
X24761563Y-4763263D01*
G75*
G03*
X25227570Y-5065974I389767J89973D01*
G01*
X26775169Y-4765441D01*
G75*
G02*
X27009616Y-4923593I38121J-196340D01*
G01*
X27682778Y-8385024D01*
G75*
G02*
X27524645Y-8619524I-196318J-38176D01*
G01*
X26138925Y-8889083D01*
G75*
G03*
X25825547Y-9371669I76365J-392627D01*
G01*
X25860536Y-9523283D01*
G75*
G02*
X25710615Y-9763138I-194906J-44957D01*
G01*
X24244299Y-10101399D01*
G75*
G02*
X24004441Y-9951389I-44969J194869D01*
G01*
X23984820Y-9866168D01*
G75*
G03*
X23491467Y-9569549I-389810J-89752D01*
G01*
X22224746Y-9909049D01*
G75*
G03*
X21941847Y-10398641I103554J-386362D01*
G01*
X21951071Y-10433174D01*
G75*
G02*
X21809692Y-10677952I-193241J-51606D01*
G01*
X21638374Y-10723934D01*
X21074147Y-10874980D01*
G75*
G03*
X20418866Y-12246954I258593J-965980D01*
G01*
X20656092Y-12780946D01*
X20714944Y-12913604D01*
G75*
G02*
X20613682Y-13177326I-182814J-81106D01*
G01*
X19223111Y-13798336D01*
G75*
G03*
X18750921Y-14034656I2446819J-5478894D01*
G01*
X17225861Y-14883799D01*
G75*
G02*
X12566181Y-14889931I-2335923J4619160D01*
G01*
X11021766Y-14030746D01*
G75*
G03*
X10548814Y-13794297I-2916986J-5243404D01*
G01*
X9177077Y-13182499D01*
G75*
G02*
X9075842Y-12918475I81463J182659D01*
G01*
X9138009Y-12778888D01*
X9376095Y-12243697D01*
G75*
G03*
X8721423Y-10871362I-913667J406459D01*
G01*
X8156323Y-10719832D01*
X7999941Y-10677891D01*
G75*
G02*
X7858476Y-10433667I51229J192761D01*
G01*
X7867700Y-10399134D01*
G75*
G03*
X7584801Y-9909541I-386452J103228D01*
G01*
X6344689Y-9576858D01*
X6317911Y-9569708D01*
G75*
G03*
X5825012Y-9866017I-103187J-386467D01*
G01*
X5805144Y-9951899D01*
G75*
G02*
X5565297Y-10101697I-194864J45099D01*
G01*
X4098908Y-9763134D01*
G75*
G02*
X3949025Y-9523275I44972J194864D01*
G01*
X3983950Y-9371983D01*
G75*
G03*
X3670798Y-8889417I-389735J89980D01*
G01*
X2285146Y-8619064D01*
G75*
G02*
X2127116Y-8384625I38315J196304D01*
G01*
X2799536Y-4923260D01*
G75*
G02*
X3034018Y-4765072I196329J-38139D01*
G01*
X4582259Y-5065946D01*
G75*
G03*
X5048340Y-4763150I76301J392656D01*
G01*
X5192320Y-4138618D01*
G75*
G02*
X5432238Y-3988683I194890J-44932D01*
G01*
X6995456Y-4349913D01*
G75*
G03*
X7471875Y-4063748I90054J389743D01*
G01*
X7501985Y-3951422D01*
D11*
D12*
X8506992Y-10270877D02*
X8546992Y-10310877D01*
X8546992Y-10270877D02*
X8506992Y-10310877D01*
X8974180Y-8295484D02*
X9014180Y-8335484D01*
X9014180Y-8295484D02*
X8974180Y-8335484D01*
X9687983Y-8722497D02*
X9727983Y-8762497D01*
X9727983Y-8722497D02*
X9687983Y-8762497D01*
X10147019Y-8941207D02*
X10187019Y-8981207D01*
X10187019Y-8941207D02*
X10147019Y-8981207D01*
X10793043Y-8519235D02*
X10833043Y-8559235D01*
X10833043Y-8519235D02*
X10793043Y-8559235D01*
X10904745Y-9691727D02*
X10944745Y-9731727D01*
X10944745Y-9691727D02*
X10904745Y-9731727D01*
X11738444Y-8642935D02*
X11778444Y-8682935D01*
X11778444Y-8642935D02*
X11738444Y-8682935D01*
X15389928Y-11031750D02*
X15429928Y-11071750D01*
X15429928Y-11031750D02*
X15389928Y-11071750D01*
X15389928Y-11870750D02*
X15429928Y-11910750D01*
X15429928Y-11870750D02*
X15389928Y-11910750D01*
X15758216Y-9932636D02*
X15798216Y-9972636D01*
X15798216Y-9932636D02*
X15758216Y-9972636D01*
X15831715Y-9864901D02*
X15871715Y-9904901D01*
X15871715Y-9864901D02*
X15831715Y-9904901D01*
X15910853Y-9803815D02*
X15950853Y-9843815D01*
X15950853Y-9803815D02*
X15910853Y-9843815D01*
X15987310Y-9739435D02*
X16027310Y-9779435D01*
X16027310Y-9739435D02*
X15987310Y-9779435D01*
X16059761Y-9664979D02*
X16099761Y-9704979D01*
X16099761Y-9664979D02*
X16059761Y-9704979D01*
X16798500Y-10073500D02*
X16838500Y-10113500D01*
X16838500Y-10073500D02*
X16798500Y-10113500D01*
X17932013Y-8701749D02*
X17972013Y-8741749D01*
X17972013Y-8701749D02*
X17932013Y-8741749D01*
X18012246Y-9001186D02*
X18052246Y-9041186D01*
X18052246Y-9001186D02*
X18012246Y-9041186D01*
X18135415Y-9113122D02*
X18175415Y-9153122D01*
X18175415Y-9113122D02*
X18135415Y-9153122D01*
X18706004Y-9001645D02*
X18746004Y-9041645D01*
X18746004Y-9001645D02*
X18706004Y-9041645D01*
X19547916Y-11885000D02*
X19587916Y-11925000D01*
X19587916Y-11885000D02*
X19547916Y-11925000D01*
X19753737Y-9279954D02*
X19793737Y-9319954D01*
X19793737Y-9279954D02*
X19753737Y-9319954D01*
X19875382Y-9733940D02*
X19915382Y-9773940D01*
X19915382Y-9733940D02*
X19875382Y-9773940D01*
D13*
X14257500Y-13586000D02*
G75*
G03*
X14257500Y-13586000I-45000J0D01*
G01*
X14380000Y-13825000D02*
G75*
G03*
X14380000Y-13825000I-45000J0D01*
G01*
X14380000Y-14079000D02*
G75*
G03*
X14380000Y-14079000I-45000J0D01*
G01*
X14380000Y-14333000D02*
G75*
G03*
X14380000Y-14333000I-45000J0D01*
G01*
X14380000Y-14587000D02*
G75*
G03*
X14380000Y-14587000I-45000J0D01*
G01*
X14442500Y-13586000D02*
G75*
G03*
X14442500Y-13586000I-45000J0D01*
G01*
D10*
X14136928Y-7421750D02*
X14136928Y-7521750D01*
X14086928Y-7471750D02*
X14186928Y-7471750D01*
X14136928Y-7675750D02*
X14136928Y-7775750D01*
X14086928Y-7725750D02*
X14186928Y-7725750D01*
X14136928Y-7929750D02*
X14136928Y-8029750D01*
X14086928Y-7979750D02*
X14186928Y-7979750D01*
X14136928Y-8183750D02*
X14136928Y-8283750D01*
X14086928Y-8233750D02*
X14186928Y-8233750D01*
X14136928Y-8437750D02*
X14136928Y-8537750D01*
X14086928Y-8487750D02*
X14186928Y-8487750D01*
X14136928Y-8691750D02*
X14136928Y-8791750D01*
X14086928Y-8741750D02*
X14186928Y-8741750D01*
X14136928Y-8945750D02*
X14136928Y-9045750D01*
X14086928Y-8995750D02*
X14186928Y-8995750D01*
X14136928Y-9199750D02*
X14136928Y-9299750D01*
X14086928Y-9249750D02*
X14186928Y-9249750D01*
X14136928Y-9453750D02*
X14136928Y-9553750D01*
X14086928Y-9503750D02*
X14186928Y-9503750D01*
X14390928Y-9453750D02*
X14390928Y-9553750D01*
X14340928Y-9503750D02*
X14440928Y-9503750D01*
X14644928Y-9453750D02*
X14644928Y-9553750D01*
X14594928Y-9503750D02*
X14694928Y-9503750D01*
X14649818Y-11083819D02*
X14649818Y-11183819D01*
X14599818Y-11133819D02*
X14699818Y-11133819D01*
X14649818Y-11337819D02*
X14649818Y-11437819D01*
X14599818Y-11387819D02*
X14699818Y-11387819D01*
X14649818Y-11591819D02*
X14649818Y-11691819D01*
X14599818Y-11641819D02*
X14699818Y-11641819D01*
X14649818Y-11845819D02*
X14649818Y-11945819D01*
X14599818Y-11895819D02*
X14699818Y-11895819D01*
X14898928Y-9453750D02*
X14898928Y-9553750D01*
X14848928Y-9503750D02*
X14948928Y-9503750D01*
X15152928Y-9453750D02*
X15152928Y-9553750D01*
X15102928Y-9503750D02*
X15202928Y-9503750D01*
X15406928Y-9453750D02*
X15406928Y-9553750D01*
X15356928Y-9503750D02*
X15456928Y-9503750D01*
X15660928Y-7421750D02*
X15660928Y-7521750D01*
X15610928Y-7471750D02*
X15710928Y-7471750D01*
X15660928Y-7675750D02*
X15660928Y-7775750D01*
X15610928Y-7725750D02*
X15710928Y-7725750D01*
X15660928Y-7929750D02*
X15660928Y-8029750D01*
X15610928Y-7979750D02*
X15710928Y-7979750D01*
X15660928Y-8183750D02*
X15660928Y-8283750D01*
X15610928Y-8233750D02*
X15710928Y-8233750D01*
X15660928Y-8437750D02*
X15660928Y-8537750D01*
X15610928Y-8487750D02*
X15710928Y-8487750D01*
X15660928Y-8691750D02*
X15660928Y-8791750D01*
X15610928Y-8741750D02*
X15710928Y-8741750D01*
X15660928Y-8945750D02*
X15660928Y-9045750D01*
X15610928Y-8995750D02*
X15710928Y-8995750D01*
X15660928Y-9199750D02*
X15660928Y-9299750D01*
X15610928Y-9249750D02*
X15710928Y-9249750D01*
X15660928Y-9453750D02*
X15660928Y-9553750D01*
X15610928Y-9503750D02*
X15710928Y-9503750D01*
D14*
X3360110Y-7291817D02*
X3360110Y-7206964D01*
X3275256Y-7206964D01*
X3275256Y-7291817D01*
X3360110Y-7291817D01*
X3745945Y-5306867D02*
X3745945Y-5222013D01*
X3661092Y-5222013D01*
X3661092Y-5306867D01*
X3745945Y-5306867D01*
X3810854Y-7593364D02*
X3810854Y-7508510D01*
X3726000Y-7508510D01*
X3726000Y-7593364D01*
X3810854Y-7593364D01*
X4196689Y-5608413D02*
X4196689Y-5523560D01*
X4111836Y-5523560D01*
X4111836Y-5608413D01*
X4196689Y-5608413D01*
X5221478Y-8471879D02*
X5221478Y-8387025D01*
X5136625Y-8387025D01*
X5136625Y-8471879D01*
X5221478Y-8471879D01*
X5661423Y-8788972D02*
X5661423Y-8704118D01*
X5576570Y-8704118D01*
X5576570Y-8788972D01*
X5661423Y-8788972D01*
X5672865Y-6516708D02*
X5672865Y-6431854D01*
X5588011Y-6431854D01*
X5588011Y-6516708D01*
X5672865Y-6516708D01*
X6112810Y-6833801D02*
X6112810Y-6748947D01*
X6027957Y-6748947D01*
X6027957Y-6833801D01*
X6112810Y-6833801D01*
X6126106Y-4553503D02*
X6126106Y-4468649D01*
X6041253Y-4468649D01*
X6041253Y-4553503D01*
X6126106Y-4553503D01*
X6566052Y-4870596D02*
X6566052Y-4785742D01*
X6481198Y-4785742D01*
X6481198Y-4870596D01*
X6566052Y-4870596D01*
X7379829Y-8288522D02*
X7379829Y-8203668D01*
X7294975Y-8203668D01*
X7294975Y-8288522D01*
X7379829Y-8288522D01*
X7808440Y-8620776D02*
X7808440Y-8535922D01*
X7723586Y-8535922D01*
X7723586Y-8620776D01*
X7808440Y-8620776D01*
X7899832Y-6347842D02*
X7899832Y-6262988D01*
X7814979Y-6262988D01*
X7814979Y-6347842D01*
X7899832Y-6347842D01*
X8328443Y-6680096D02*
X8328443Y-6595242D01*
X8243590Y-6595242D01*
X8243590Y-6680096D01*
X8328443Y-6680096D01*
X8422366Y-4397348D02*
X8422366Y-4312495D01*
X8337513Y-4312495D01*
X8337513Y-4397348D01*
X8422366Y-4397348D01*
X8850977Y-4729602D02*
X8850977Y-4644749D01*
X8766124Y-4644749D01*
X8766124Y-4729602D01*
X8850977Y-4729602D01*
X9168427Y-9425176D02*
X9168427Y-9340322D01*
X9083573Y-9340322D01*
X9083573Y-9425176D01*
X9168427Y-9425176D01*
X9597038Y-9757430D02*
X9597038Y-9672576D01*
X9512184Y-9672576D01*
X9512184Y-9757430D01*
X9597038Y-9757430D01*
X9682793Y-12805189D02*
X9682793Y-12720335D01*
X9597940Y-12720335D01*
X9597940Y-12805189D01*
X9682793Y-12805189D01*
X9694347Y-7462414D02*
X9694347Y-7377561D01*
X9609493Y-7377561D01*
X9609493Y-7462414D01*
X9694347Y-7462414D01*
X10054151Y-13200402D02*
X10054151Y-13115548D01*
X9969298Y-13115548D01*
X9969298Y-13200402D01*
X10054151Y-13200402D01*
X10122958Y-7794668D02*
X10122958Y-7709815D01*
X10038104Y-7709815D01*
X10038104Y-7794668D01*
X10122958Y-7794668D01*
X10218093Y-5507767D02*
X10218093Y-5422913D01*
X10133239Y-5422913D01*
X10133239Y-5507767D01*
X10218093Y-5507767D01*
X10646704Y-5840021D02*
X10646704Y-5755167D01*
X10561850Y-5755167D01*
X10561850Y-5840021D01*
X10646704Y-5840021D01*
X11381000Y-9018784D02*
X11381000Y-8933930D01*
X11296146Y-8933930D01*
X11296146Y-9018784D01*
X11381000Y-9018784D01*
X11615831Y-13727492D02*
X11615831Y-13642638D01*
X11530977Y-13642638D01*
X11530977Y-13727492D01*
X11615831Y-13727492D01*
X11809611Y-9351038D02*
X11809611Y-9266184D01*
X11724757Y-9266184D01*
X11724757Y-9351038D01*
X11809611Y-9351038D01*
X11900246Y-7080558D02*
X11900246Y-6995704D01*
X11815392Y-6995704D01*
X11815392Y-7080558D01*
X11900246Y-7080558D01*
X11951331Y-14153566D02*
X11951331Y-14068713D01*
X11866477Y-14068713D01*
X11866477Y-14153566D01*
X11951331Y-14153566D01*
X12328857Y-7412812D02*
X12328857Y-7327958D01*
X12244003Y-7327958D01*
X12244003Y-7412812D01*
X12328857Y-7412812D01*
X17386299Y-14206250D02*
X17386299Y-14121396D01*
X17301446Y-14121396D01*
X17301446Y-14206250D01*
X17386299Y-14206250D01*
X17925419Y-14147515D02*
X17925419Y-14062662D01*
X17840566Y-14062662D01*
X17840566Y-14147515D01*
X17925419Y-14147515D01*
X17993801Y-7080558D02*
X17993801Y-6995704D01*
X17908948Y-6995704D01*
X17908948Y-7080558D01*
X17993801Y-7080558D01*
X18513248Y-9018785D02*
X18513248Y-8933931D01*
X18428395Y-8933931D01*
X18428395Y-9018785D01*
X18513248Y-9018785D01*
X18531116Y-7153993D02*
X18531116Y-7069139D01*
X18446263Y-7069139D01*
X18446263Y-7153993D01*
X18531116Y-7153993D01*
X19050563Y-9092219D02*
X19050563Y-9007366D01*
X18965710Y-9007366D01*
X18965710Y-9092219D01*
X19050563Y-9092219D01*
X19280411Y-13205873D02*
X19280411Y-13121019D01*
X19195557Y-13121019D01*
X19195557Y-13205873D01*
X19280411Y-13205873D01*
X19676155Y-5507767D02*
X19676155Y-5422913D01*
X19591302Y-5422913D01*
X19591302Y-5507767D01*
X19676155Y-5507767D01*
X19822598Y-13194349D02*
X19822598Y-13109496D01*
X19737745Y-13109496D01*
X19737745Y-13194349D01*
X19822598Y-13194349D01*
X20199902Y-7462415D02*
X20199902Y-7377561D01*
X20115048Y-7377561D01*
X20115048Y-7462415D01*
X20199902Y-7462415D01*
X20213470Y-5581202D02*
X20213470Y-5496348D01*
X20128616Y-5496348D01*
X20128616Y-5581202D01*
X20213470Y-5581202D01*
X20725822Y-9425176D02*
X20725822Y-9340322D01*
X20640968Y-9340322D01*
X20640968Y-9425176D01*
X20725822Y-9425176D01*
X20737216Y-7535849D02*
X20737216Y-7450996D01*
X20652363Y-7450996D01*
X20652363Y-7535849D01*
X20737216Y-7535849D01*
X21263137Y-9498610D02*
X21263137Y-9413757D01*
X21178283Y-9413757D01*
X21178283Y-9498610D01*
X21263137Y-9498610D01*
X21471782Y-4397348D02*
X21471782Y-4312494D01*
X21386928Y-4312494D01*
X21386928Y-4397348D01*
X21471782Y-4397348D01*
X21994415Y-6347842D02*
X21994415Y-6262988D01*
X21909562Y-6262988D01*
X21909562Y-6347842D01*
X21994415Y-6347842D01*
X22009097Y-4470783D02*
X22009097Y-4385929D01*
X21924243Y-4385929D01*
X21924243Y-4470783D01*
X22009097Y-4470783D01*
X22514419Y-8288522D02*
X22514419Y-8203668D01*
X22429565Y-8203668D01*
X22429565Y-8288522D01*
X22514419Y-8288522D01*
X22531730Y-6421277D02*
X22531730Y-6336423D01*
X22446877Y-6336423D01*
X22446877Y-6421277D01*
X22531730Y-6421277D01*
X23051734Y-8361957D02*
X23051734Y-8277103D01*
X22966880Y-8277103D01*
X22966880Y-8361957D01*
X23051734Y-8361957D01*
X23768141Y-4553502D02*
X23768141Y-4468649D01*
X23683288Y-4468649D01*
X23683288Y-4553502D01*
X23768141Y-4553502D01*
X24221383Y-6516708D02*
X24221383Y-6431854D01*
X24136529Y-6431854D01*
X24136529Y-6516708D01*
X24221383Y-6516708D01*
X24302566Y-4645645D02*
X24302566Y-4560791D01*
X24217712Y-4560791D01*
X24217712Y-4645645D01*
X24302566Y-4645645D01*
X24672770Y-8471879D02*
X24672770Y-8387025D01*
X24587916Y-8387025D01*
X24587916Y-8471879D01*
X24672770Y-8471879D01*
X24755808Y-6608850D02*
X24755808Y-6523996D01*
X24670954Y-6523996D01*
X24670954Y-6608850D01*
X24755808Y-6608850D01*
X25207195Y-8564021D02*
X25207195Y-8479167D01*
X25122341Y-8479167D01*
X25122341Y-8564021D01*
X25207195Y-8564021D01*
X26148303Y-5306868D02*
X26148303Y-5222014D01*
X26063449Y-5222014D01*
X26063449Y-5306868D01*
X26148303Y-5306868D01*
X26534138Y-7291818D02*
X26534138Y-7206964D01*
X26449284Y-7206964D01*
X26449284Y-7291818D01*
X26534138Y-7291818D01*
X26679186Y-5417605D02*
X26679186Y-5332751D01*
X26594332Y-5332751D01*
X26594332Y-5417605D01*
X26679186Y-5417605D01*
X27065021Y-7402555D02*
X27065021Y-7317701D01*
X26980168Y-7317701D01*
X26980168Y-7402555D01*
X27065021Y-7402555D01*
D15*
X6481500Y-7691000D02*
X6591500Y-7581000D01*
X6481500Y-7471000D01*
X6371500Y-7581000D01*
X6481500Y-7691000D01*
X12998500Y-12244000D02*
X13108500Y-12134000D01*
X12998500Y-12024000D01*
X12888500Y-12134000D01*
X12998500Y-12244000D01*
X12999500Y-8447000D02*
X13109500Y-8337000D01*
X12999500Y-8227000D01*
X12889500Y-8337000D01*
X12999500Y-8447000D01*
X16798500Y-8446000D02*
X16908500Y-8336000D01*
X16798500Y-8226000D01*
X16688500Y-8336000D01*
X16798500Y-8446000D01*
X16799500Y-12245000D02*
X16909500Y-12135000D01*
X16799500Y-12025000D01*
X16689500Y-12135000D01*
X16799500Y-12245000D01*
X23328500Y-7692000D02*
X23438500Y-7582000D01*
X23328500Y-7472000D01*
X23218500Y-7582000D01*
X23328500Y-7692000D01*
D11*
X2365865Y-15758222D02*
X2365865Y-15558222D01*
X2365865Y-15558222D02*
X2413484Y-15558222D01*
X2413484Y-15558222D02*
X2442055Y-15567746D01*
X2442055Y-15567746D02*
X2461103Y-15586793D01*
X2461103Y-15586793D02*
X2470627Y-15605841D01*
X2470627Y-15605841D02*
X2480151Y-15643936D01*
X2480151Y-15643936D02*
X2480151Y-15672507D01*
X2480151Y-15672507D02*
X2470627Y-15710603D01*
X2470627Y-15710603D02*
X2461103Y-15729650D01*
X2461103Y-15729650D02*
X2442055Y-15748698D01*
X2442055Y-15748698D02*
X2413484Y-15758222D01*
X2413484Y-15758222D02*
X2365865Y-15758222D01*
X2565865Y-15758222D02*
X2565865Y-15624888D01*
X2565865Y-15662984D02*
X2575389Y-15643936D01*
X2575389Y-15643936D02*
X2584912Y-15634412D01*
X2584912Y-15634412D02*
X2603960Y-15624888D01*
X2603960Y-15624888D02*
X2623008Y-15624888D01*
X2689674Y-15758222D02*
X2689674Y-15624888D01*
X2689674Y-15558222D02*
X2680151Y-15567746D01*
X2680151Y-15567746D02*
X2689674Y-15577269D01*
X2689674Y-15577269D02*
X2699198Y-15567746D01*
X2699198Y-15567746D02*
X2689674Y-15558222D01*
X2689674Y-15558222D02*
X2689674Y-15577269D01*
X2813484Y-15758222D02*
X2794436Y-15748698D01*
X2794436Y-15748698D02*
X2784912Y-15729650D01*
X2784912Y-15729650D02*
X2784912Y-15558222D01*
X2918246Y-15758222D02*
X2899198Y-15748698D01*
X2899198Y-15748698D02*
X2889674Y-15729650D01*
X2889674Y-15729650D02*
X2889674Y-15558222D01*
X3146817Y-15758222D02*
X3146817Y-15558222D01*
X3146817Y-15558222D02*
X3213484Y-15701079D01*
X3213484Y-15701079D02*
X3280150Y-15558222D01*
X3280150Y-15558222D02*
X3280150Y-15758222D01*
X3461103Y-15758222D02*
X3461103Y-15653460D01*
X3461103Y-15653460D02*
X3451579Y-15634412D01*
X3451579Y-15634412D02*
X3432531Y-15624888D01*
X3432531Y-15624888D02*
X3394436Y-15624888D01*
X3394436Y-15624888D02*
X3375389Y-15634412D01*
X3461103Y-15748698D02*
X3442055Y-15758222D01*
X3442055Y-15758222D02*
X3394436Y-15758222D01*
X3394436Y-15758222D02*
X3375389Y-15748698D01*
X3375389Y-15748698D02*
X3365865Y-15729650D01*
X3365865Y-15729650D02*
X3365865Y-15710603D01*
X3365865Y-15710603D02*
X3375389Y-15691555D01*
X3375389Y-15691555D02*
X3394436Y-15682031D01*
X3394436Y-15682031D02*
X3442055Y-15682031D01*
X3442055Y-15682031D02*
X3461103Y-15672507D01*
X3556341Y-15624888D02*
X3556341Y-15824888D01*
X3556341Y-15634412D02*
X3575389Y-15624888D01*
X3575389Y-15624888D02*
X3613484Y-15624888D01*
X3613484Y-15624888D02*
X3632531Y-15634412D01*
X3632531Y-15634412D02*
X3642055Y-15643936D01*
X3642055Y-15643936D02*
X3651579Y-15662984D01*
X3651579Y-15662984D02*
X3651579Y-15720126D01*
X3651579Y-15720126D02*
X3642055Y-15739174D01*
X3642055Y-15739174D02*
X3632531Y-15748698D01*
X3632531Y-15748698D02*
X3613484Y-15758222D01*
X3613484Y-15758222D02*
X3575389Y-15758222D01*
X3575389Y-15758222D02*
X3556341Y-15748698D01*
X3737293Y-15739174D02*
X3746817Y-15748698D01*
X3746817Y-15748698D02*
X3737293Y-15758222D01*
X3737293Y-15758222D02*
X3727770Y-15748698D01*
X3727770Y-15748698D02*
X3737293Y-15739174D01*
X3737293Y-15739174D02*
X3737293Y-15758222D01*
X3737293Y-15634412D02*
X3746817Y-15643936D01*
X3746817Y-15643936D02*
X3737293Y-15653460D01*
X3737293Y-15653460D02*
X3727770Y-15643936D01*
X3727770Y-15643936D02*
X3737293Y-15634412D01*
X3737293Y-15634412D02*
X3737293Y-15653460D01*
D12*
X2078246Y-16065698D02*
X2118246Y-16105698D01*
X2118246Y-16065698D02*
X2078246Y-16105698D01*
D11*
X2403960Y-15978222D02*
X2423008Y-15978222D01*
X2423008Y-15978222D02*
X2442055Y-15987746D01*
X2442055Y-15987746D02*
X2451579Y-15997269D01*
X2451579Y-15997269D02*
X2461103Y-16016317D01*
X2461103Y-16016317D02*
X2470627Y-16054412D01*
X2470627Y-16054412D02*
X2470627Y-16102031D01*
X2470627Y-16102031D02*
X2461103Y-16140126D01*
X2461103Y-16140126D02*
X2451579Y-16159174D01*
X2451579Y-16159174D02*
X2442055Y-16168698D01*
X2442055Y-16168698D02*
X2423008Y-16178222D01*
X2423008Y-16178222D02*
X2403960Y-16178222D01*
X2403960Y-16178222D02*
X2384912Y-16168698D01*
X2384912Y-16168698D02*
X2375389Y-16159174D01*
X2375389Y-16159174D02*
X2365865Y-16140126D01*
X2365865Y-16140126D02*
X2356341Y-16102031D01*
X2356341Y-16102031D02*
X2356341Y-16054412D01*
X2356341Y-16054412D02*
X2365865Y-16016317D01*
X2365865Y-16016317D02*
X2375389Y-15997269D01*
X2375389Y-15997269D02*
X2384912Y-15987746D01*
X2384912Y-15987746D02*
X2403960Y-15978222D01*
X2556341Y-16159174D02*
X2565865Y-16168698D01*
X2565865Y-16168698D02*
X2556341Y-16178222D01*
X2556341Y-16178222D02*
X2546817Y-16168698D01*
X2546817Y-16168698D02*
X2556341Y-16159174D01*
X2556341Y-16159174D02*
X2556341Y-16178222D01*
X2737293Y-16044888D02*
X2737293Y-16178222D01*
X2689674Y-15968698D02*
X2642055Y-16111555D01*
X2642055Y-16111555D02*
X2765865Y-16111555D01*
X2880150Y-15978222D02*
X2899198Y-15978222D01*
X2899198Y-15978222D02*
X2918246Y-15987746D01*
X2918246Y-15987746D02*
X2927770Y-15997269D01*
X2927770Y-15997269D02*
X2937293Y-16016317D01*
X2937293Y-16016317D02*
X2946817Y-16054412D01*
X2946817Y-16054412D02*
X2946817Y-16102031D01*
X2946817Y-16102031D02*
X2937293Y-16140126D01*
X2937293Y-16140126D02*
X2927770Y-16159174D01*
X2927770Y-16159174D02*
X2918246Y-16168698D01*
X2918246Y-16168698D02*
X2899198Y-16178222D01*
X2899198Y-16178222D02*
X2880150Y-16178222D01*
X2880150Y-16178222D02*
X2861103Y-16168698D01*
X2861103Y-16168698D02*
X2851579Y-16159174D01*
X2851579Y-16159174D02*
X2842055Y-16140126D01*
X2842055Y-16140126D02*
X2832531Y-16102031D01*
X2832531Y-16102031D02*
X2832531Y-16054412D01*
X2832531Y-16054412D02*
X2842055Y-16016317D01*
X2842055Y-16016317D02*
X2851579Y-15997269D01*
X2851579Y-15997269D02*
X2861103Y-15987746D01*
X2861103Y-15987746D02*
X2880150Y-15978222D01*
X3070627Y-15978222D02*
X3089674Y-15978222D01*
X3089674Y-15978222D02*
X3108722Y-15987746D01*
X3108722Y-15987746D02*
X3118246Y-15997269D01*
X3118246Y-15997269D02*
X3127770Y-16016317D01*
X3127770Y-16016317D02*
X3137293Y-16054412D01*
X3137293Y-16054412D02*
X3137293Y-16102031D01*
X3137293Y-16102031D02*
X3127770Y-16140126D01*
X3127770Y-16140126D02*
X3118246Y-16159174D01*
X3118246Y-16159174D02*
X3108722Y-16168698D01*
X3108722Y-16168698D02*
X3089674Y-16178222D01*
X3089674Y-16178222D02*
X3070627Y-16178222D01*
X3070627Y-16178222D02*
X3051579Y-16168698D01*
X3051579Y-16168698D02*
X3042055Y-16159174D01*
X3042055Y-16159174D02*
X3032531Y-16140126D01*
X3032531Y-16140126D02*
X3023008Y-16102031D01*
X3023008Y-16102031D02*
X3023008Y-16054412D01*
X3023008Y-16054412D02*
X3032531Y-16016317D01*
X3032531Y-16016317D02*
X3042055Y-15997269D01*
X3042055Y-15997269D02*
X3051579Y-15987746D01*
X3051579Y-15987746D02*
X3070627Y-15978222D01*
X3223008Y-16178222D02*
X3223008Y-16044888D01*
X3223008Y-16063936D02*
X3232531Y-16054412D01*
X3232531Y-16054412D02*
X3251579Y-16044888D01*
X3251579Y-16044888D02*
X3280151Y-16044888D01*
X3280151Y-16044888D02*
X3299198Y-16054412D01*
X3299198Y-16054412D02*
X3308722Y-16073460D01*
X3308722Y-16073460D02*
X3308722Y-16178222D01*
X3308722Y-16073460D02*
X3318246Y-16054412D01*
X3318246Y-16054412D02*
X3337293Y-16044888D01*
X3337293Y-16044888D02*
X3365865Y-16044888D01*
X3365865Y-16044888D02*
X3384912Y-16054412D01*
X3384912Y-16054412D02*
X3394436Y-16073460D01*
X3394436Y-16073460D02*
X3394436Y-16178222D01*
X3489674Y-16178222D02*
X3489674Y-16044888D01*
X3489674Y-16063936D02*
X3499198Y-16054412D01*
X3499198Y-16054412D02*
X3518246Y-16044888D01*
X3518246Y-16044888D02*
X3546817Y-16044888D01*
X3546817Y-16044888D02*
X3565865Y-16054412D01*
X3565865Y-16054412D02*
X3575389Y-16073460D01*
X3575389Y-16073460D02*
X3575389Y-16178222D01*
X3575389Y-16073460D02*
X3584912Y-16054412D01*
X3584912Y-16054412D02*
X3603960Y-16044888D01*
X3603960Y-16044888D02*
X3632531Y-16044888D01*
X3632531Y-16044888D02*
X3651579Y-16054412D01*
X3651579Y-16054412D02*
X3661103Y-16073460D01*
X3661103Y-16073460D02*
X3661103Y-16178222D01*
X4051579Y-15968698D02*
X3880151Y-16225841D01*
X4308722Y-15978222D02*
X4327770Y-15978222D01*
X4327770Y-15978222D02*
X4346817Y-15987746D01*
X4346817Y-15987746D02*
X4356341Y-15997269D01*
X4356341Y-15997269D02*
X4365865Y-16016317D01*
X4365865Y-16016317D02*
X4375389Y-16054412D01*
X4375389Y-16054412D02*
X4375389Y-16102031D01*
X4375389Y-16102031D02*
X4365865Y-16140126D01*
X4365865Y-16140126D02*
X4356341Y-16159174D01*
X4356341Y-16159174D02*
X4346817Y-16168698D01*
X4346817Y-16168698D02*
X4327770Y-16178222D01*
X4327770Y-16178222D02*
X4308722Y-16178222D01*
X4308722Y-16178222D02*
X4289675Y-16168698D01*
X4289675Y-16168698D02*
X4280151Y-16159174D01*
X4280151Y-16159174D02*
X4270627Y-16140126D01*
X4270627Y-16140126D02*
X4261103Y-16102031D01*
X4261103Y-16102031D02*
X4261103Y-16054412D01*
X4261103Y-16054412D02*
X4270627Y-16016317D01*
X4270627Y-16016317D02*
X4280151Y-15997269D01*
X4280151Y-15997269D02*
X4289675Y-15987746D01*
X4289675Y-15987746D02*
X4308722Y-15978222D01*
X4461103Y-16159174D02*
X4470627Y-16168698D01*
X4470627Y-16168698D02*
X4461103Y-16178222D01*
X4461103Y-16178222D02*
X4451579Y-16168698D01*
X4451579Y-16168698D02*
X4461103Y-16159174D01*
X4461103Y-16159174D02*
X4461103Y-16178222D01*
X4594436Y-15978222D02*
X4613484Y-15978222D01*
X4613484Y-15978222D02*
X4632532Y-15987746D01*
X4632532Y-15987746D02*
X4642056Y-15997269D01*
X4642056Y-15997269D02*
X4651579Y-16016317D01*
X4651579Y-16016317D02*
X4661103Y-16054412D01*
X4661103Y-16054412D02*
X4661103Y-16102031D01*
X4661103Y-16102031D02*
X4651579Y-16140126D01*
X4651579Y-16140126D02*
X4642056Y-16159174D01*
X4642056Y-16159174D02*
X4632532Y-16168698D01*
X4632532Y-16168698D02*
X4613484Y-16178222D01*
X4613484Y-16178222D02*
X4594436Y-16178222D01*
X4594436Y-16178222D02*
X4575389Y-16168698D01*
X4575389Y-16168698D02*
X4565865Y-16159174D01*
X4565865Y-16159174D02*
X4556341Y-16140126D01*
X4556341Y-16140126D02*
X4546817Y-16102031D01*
X4546817Y-16102031D02*
X4546817Y-16054412D01*
X4546817Y-16054412D02*
X4556341Y-16016317D01*
X4556341Y-16016317D02*
X4565865Y-15997269D01*
X4565865Y-15997269D02*
X4575389Y-15987746D01*
X4575389Y-15987746D02*
X4594436Y-15978222D01*
X4851579Y-16178222D02*
X4737294Y-16178222D01*
X4794436Y-16178222D02*
X4794436Y-15978222D01*
X4794436Y-15978222D02*
X4775389Y-16006793D01*
X4775389Y-16006793D02*
X4756341Y-16025841D01*
X4756341Y-16025841D02*
X4737294Y-16035365D01*
X5032532Y-15978222D02*
X4937294Y-15978222D01*
X4937294Y-15978222D02*
X4927770Y-16073460D01*
X4927770Y-16073460D02*
X4937294Y-16063936D01*
X4937294Y-16063936D02*
X4956341Y-16054412D01*
X4956341Y-16054412D02*
X5003960Y-16054412D01*
X5003960Y-16054412D02*
X5023008Y-16063936D01*
X5023008Y-16063936D02*
X5032532Y-16073460D01*
X5032532Y-16073460D02*
X5042056Y-16092507D01*
X5042056Y-16092507D02*
X5042056Y-16140126D01*
X5042056Y-16140126D02*
X5032532Y-16159174D01*
X5032532Y-16159174D02*
X5023008Y-16168698D01*
X5023008Y-16168698D02*
X5003960Y-16178222D01*
X5003960Y-16178222D02*
X4956341Y-16178222D01*
X4956341Y-16178222D02*
X4937294Y-16168698D01*
X4937294Y-16168698D02*
X4927770Y-16159174D01*
X5108722Y-15978222D02*
X5242056Y-15978222D01*
X5242056Y-15978222D02*
X5156341Y-16178222D01*
X5308722Y-15978222D02*
X5308722Y-16016317D01*
X5384913Y-15978222D02*
X5384913Y-16016317D01*
X5680151Y-16254412D02*
X5670627Y-16244888D01*
X5670627Y-16244888D02*
X5651579Y-16216317D01*
X5651579Y-16216317D02*
X5642056Y-16197269D01*
X5642056Y-16197269D02*
X5632532Y-16168698D01*
X5632532Y-16168698D02*
X5623008Y-16121079D01*
X5623008Y-16121079D02*
X5623008Y-16082984D01*
X5623008Y-16082984D02*
X5632532Y-16035365D01*
X5632532Y-16035365D02*
X5642056Y-16006793D01*
X5642056Y-16006793D02*
X5651579Y-15987746D01*
X5651579Y-15987746D02*
X5670627Y-15959174D01*
X5670627Y-15959174D02*
X5680151Y-15949650D01*
X5746817Y-15997269D02*
X5756341Y-15987746D01*
X5756341Y-15987746D02*
X5775389Y-15978222D01*
X5775389Y-15978222D02*
X5823008Y-15978222D01*
X5823008Y-15978222D02*
X5842056Y-15987746D01*
X5842056Y-15987746D02*
X5851579Y-15997269D01*
X5851579Y-15997269D02*
X5861103Y-16016317D01*
X5861103Y-16016317D02*
X5861103Y-16035365D01*
X5861103Y-16035365D02*
X5851579Y-16063936D01*
X5851579Y-16063936D02*
X5737294Y-16178222D01*
X5737294Y-16178222D02*
X5861103Y-16178222D01*
X5937294Y-15997269D02*
X5946817Y-15987746D01*
X5946817Y-15987746D02*
X5965865Y-15978222D01*
X5965865Y-15978222D02*
X6013484Y-15978222D01*
X6013484Y-15978222D02*
X6032532Y-15987746D01*
X6032532Y-15987746D02*
X6042056Y-15997269D01*
X6042056Y-15997269D02*
X6051579Y-16016317D01*
X6051579Y-16016317D02*
X6051579Y-16035365D01*
X6051579Y-16035365D02*
X6042056Y-16063936D01*
X6042056Y-16063936D02*
X5927770Y-16178222D01*
X5927770Y-16178222D02*
X6051579Y-16178222D01*
X6289675Y-16178222D02*
X6289675Y-15978222D01*
X6375389Y-16178222D02*
X6375389Y-16073460D01*
X6375389Y-16073460D02*
X6365865Y-16054412D01*
X6365865Y-16054412D02*
X6346818Y-16044888D01*
X6346818Y-16044888D02*
X6318246Y-16044888D01*
X6318246Y-16044888D02*
X6299198Y-16054412D01*
X6299198Y-16054412D02*
X6289675Y-16063936D01*
X6499198Y-16178222D02*
X6480151Y-16168698D01*
X6480151Y-16168698D02*
X6470627Y-16159174D01*
X6470627Y-16159174D02*
X6461103Y-16140126D01*
X6461103Y-16140126D02*
X6461103Y-16082984D01*
X6461103Y-16082984D02*
X6470627Y-16063936D01*
X6470627Y-16063936D02*
X6480151Y-16054412D01*
X6480151Y-16054412D02*
X6499198Y-16044888D01*
X6499198Y-16044888D02*
X6527770Y-16044888D01*
X6527770Y-16044888D02*
X6546818Y-16054412D01*
X6546818Y-16054412D02*
X6556341Y-16063936D01*
X6556341Y-16063936D02*
X6565865Y-16082984D01*
X6565865Y-16082984D02*
X6565865Y-16140126D01*
X6565865Y-16140126D02*
X6556341Y-16159174D01*
X6556341Y-16159174D02*
X6546818Y-16168698D01*
X6546818Y-16168698D02*
X6527770Y-16178222D01*
X6527770Y-16178222D02*
X6499198Y-16178222D01*
X6680151Y-16178222D02*
X6661103Y-16168698D01*
X6661103Y-16168698D02*
X6651579Y-16149650D01*
X6651579Y-16149650D02*
X6651579Y-15978222D01*
X6832532Y-16168698D02*
X6813484Y-16178222D01*
X6813484Y-16178222D02*
X6775389Y-16178222D01*
X6775389Y-16178222D02*
X6756341Y-16168698D01*
X6756341Y-16168698D02*
X6746818Y-16149650D01*
X6746818Y-16149650D02*
X6746818Y-16073460D01*
X6746818Y-16073460D02*
X6756341Y-16054412D01*
X6756341Y-16054412D02*
X6775389Y-16044888D01*
X6775389Y-16044888D02*
X6813484Y-16044888D01*
X6813484Y-16044888D02*
X6832532Y-16054412D01*
X6832532Y-16054412D02*
X6842056Y-16073460D01*
X6842056Y-16073460D02*
X6842056Y-16092507D01*
X6842056Y-16092507D02*
X6746818Y-16111555D01*
X6918246Y-16168698D02*
X6937294Y-16178222D01*
X6937294Y-16178222D02*
X6975389Y-16178222D01*
X6975389Y-16178222D02*
X6994437Y-16168698D01*
X6994437Y-16168698D02*
X7003960Y-16149650D01*
X7003960Y-16149650D02*
X7003960Y-16140126D01*
X7003960Y-16140126D02*
X6994437Y-16121079D01*
X6994437Y-16121079D02*
X6975389Y-16111555D01*
X6975389Y-16111555D02*
X6946818Y-16111555D01*
X6946818Y-16111555D02*
X6927770Y-16102031D01*
X6927770Y-16102031D02*
X6918246Y-16082984D01*
X6918246Y-16082984D02*
X6918246Y-16073460D01*
X6918246Y-16073460D02*
X6927770Y-16054412D01*
X6927770Y-16054412D02*
X6946818Y-16044888D01*
X6946818Y-16044888D02*
X6975389Y-16044888D01*
X6975389Y-16044888D02*
X6994437Y-16054412D01*
X7070627Y-16254412D02*
X7080151Y-16244888D01*
X7080151Y-16244888D02*
X7099199Y-16216317D01*
X7099199Y-16216317D02*
X7108722Y-16197269D01*
X7108722Y-16197269D02*
X7118246Y-16168698D01*
X7118246Y-16168698D02*
X7127770Y-16121079D01*
X7127770Y-16121079D02*
X7127770Y-16082984D01*
X7127770Y-16082984D02*
X7118246Y-16035365D01*
X7118246Y-16035365D02*
X7108722Y-16006793D01*
X7108722Y-16006793D02*
X7099199Y-15987746D01*
X7099199Y-15987746D02*
X7080151Y-15959174D01*
X7080151Y-15959174D02*
X7070627Y-15949650D01*
D13*
X2118246Y-16349698D02*
G75*
G03*
X2118246Y-16349698I-45000J0D01*
G01*
D11*
X2403960Y-16242222D02*
X2423008Y-16242222D01*
X2423008Y-16242222D02*
X2442055Y-16251746D01*
X2442055Y-16251746D02*
X2451579Y-16261269D01*
X2451579Y-16261269D02*
X2461103Y-16280317D01*
X2461103Y-16280317D02*
X2470627Y-16318412D01*
X2470627Y-16318412D02*
X2470627Y-16366031D01*
X2470627Y-16366031D02*
X2461103Y-16404126D01*
X2461103Y-16404126D02*
X2451579Y-16423174D01*
X2451579Y-16423174D02*
X2442055Y-16432698D01*
X2442055Y-16432698D02*
X2423008Y-16442222D01*
X2423008Y-16442222D02*
X2403960Y-16442222D01*
X2403960Y-16442222D02*
X2384912Y-16432698D01*
X2384912Y-16432698D02*
X2375389Y-16423174D01*
X2375389Y-16423174D02*
X2365865Y-16404126D01*
X2365865Y-16404126D02*
X2356341Y-16366031D01*
X2356341Y-16366031D02*
X2356341Y-16318412D01*
X2356341Y-16318412D02*
X2365865Y-16280317D01*
X2365865Y-16280317D02*
X2375389Y-16261269D01*
X2375389Y-16261269D02*
X2384912Y-16251746D01*
X2384912Y-16251746D02*
X2403960Y-16242222D01*
X2556341Y-16423174D02*
X2565865Y-16432698D01*
X2565865Y-16432698D02*
X2556341Y-16442222D01*
X2556341Y-16442222D02*
X2546817Y-16432698D01*
X2546817Y-16432698D02*
X2556341Y-16423174D01*
X2556341Y-16423174D02*
X2556341Y-16442222D01*
X2661103Y-16442222D02*
X2699198Y-16442222D01*
X2699198Y-16442222D02*
X2718246Y-16432698D01*
X2718246Y-16432698D02*
X2727770Y-16423174D01*
X2727770Y-16423174D02*
X2746817Y-16394603D01*
X2746817Y-16394603D02*
X2756341Y-16356507D01*
X2756341Y-16356507D02*
X2756341Y-16280317D01*
X2756341Y-16280317D02*
X2746817Y-16261269D01*
X2746817Y-16261269D02*
X2737293Y-16251746D01*
X2737293Y-16251746D02*
X2718246Y-16242222D01*
X2718246Y-16242222D02*
X2680151Y-16242222D01*
X2680151Y-16242222D02*
X2661103Y-16251746D01*
X2661103Y-16251746D02*
X2651579Y-16261269D01*
X2651579Y-16261269D02*
X2642055Y-16280317D01*
X2642055Y-16280317D02*
X2642055Y-16327936D01*
X2642055Y-16327936D02*
X2651579Y-16346984D01*
X2651579Y-16346984D02*
X2661103Y-16356507D01*
X2661103Y-16356507D02*
X2680151Y-16366031D01*
X2680151Y-16366031D02*
X2718246Y-16366031D01*
X2718246Y-16366031D02*
X2737293Y-16356507D01*
X2737293Y-16356507D02*
X2746817Y-16346984D01*
X2746817Y-16346984D02*
X2756341Y-16327936D01*
X2880150Y-16242222D02*
X2899198Y-16242222D01*
X2899198Y-16242222D02*
X2918246Y-16251746D01*
X2918246Y-16251746D02*
X2927770Y-16261269D01*
X2927770Y-16261269D02*
X2937293Y-16280317D01*
X2937293Y-16280317D02*
X2946817Y-16318412D01*
X2946817Y-16318412D02*
X2946817Y-16366031D01*
X2946817Y-16366031D02*
X2937293Y-16404126D01*
X2937293Y-16404126D02*
X2927770Y-16423174D01*
X2927770Y-16423174D02*
X2918246Y-16432698D01*
X2918246Y-16432698D02*
X2899198Y-16442222D01*
X2899198Y-16442222D02*
X2880150Y-16442222D01*
X2880150Y-16442222D02*
X2861103Y-16432698D01*
X2861103Y-16432698D02*
X2851579Y-16423174D01*
X2851579Y-16423174D02*
X2842055Y-16404126D01*
X2842055Y-16404126D02*
X2832531Y-16366031D01*
X2832531Y-16366031D02*
X2832531Y-16318412D01*
X2832531Y-16318412D02*
X2842055Y-16280317D01*
X2842055Y-16280317D02*
X2851579Y-16261269D01*
X2851579Y-16261269D02*
X2861103Y-16251746D01*
X2861103Y-16251746D02*
X2880150Y-16242222D01*
X3070627Y-16242222D02*
X3089674Y-16242222D01*
X3089674Y-16242222D02*
X3108722Y-16251746D01*
X3108722Y-16251746D02*
X3118246Y-16261269D01*
X3118246Y-16261269D02*
X3127770Y-16280317D01*
X3127770Y-16280317D02*
X3137293Y-16318412D01*
X3137293Y-16318412D02*
X3137293Y-16366031D01*
X3137293Y-16366031D02*
X3127770Y-16404126D01*
X3127770Y-16404126D02*
X3118246Y-16423174D01*
X3118246Y-16423174D02*
X3108722Y-16432698D01*
X3108722Y-16432698D02*
X3089674Y-16442222D01*
X3089674Y-16442222D02*
X3070627Y-16442222D01*
X3070627Y-16442222D02*
X3051579Y-16432698D01*
X3051579Y-16432698D02*
X3042055Y-16423174D01*
X3042055Y-16423174D02*
X3032531Y-16404126D01*
X3032531Y-16404126D02*
X3023008Y-16366031D01*
X3023008Y-16366031D02*
X3023008Y-16318412D01*
X3023008Y-16318412D02*
X3032531Y-16280317D01*
X3032531Y-16280317D02*
X3042055Y-16261269D01*
X3042055Y-16261269D02*
X3051579Y-16251746D01*
X3051579Y-16251746D02*
X3070627Y-16242222D01*
X3223008Y-16442222D02*
X3223008Y-16308888D01*
X3223008Y-16327936D02*
X3232531Y-16318412D01*
X3232531Y-16318412D02*
X3251579Y-16308888D01*
X3251579Y-16308888D02*
X3280151Y-16308888D01*
X3280151Y-16308888D02*
X3299198Y-16318412D01*
X3299198Y-16318412D02*
X3308722Y-16337460D01*
X3308722Y-16337460D02*
X3308722Y-16442222D01*
X3308722Y-16337460D02*
X3318246Y-16318412D01*
X3318246Y-16318412D02*
X3337293Y-16308888D01*
X3337293Y-16308888D02*
X3365865Y-16308888D01*
X3365865Y-16308888D02*
X3384912Y-16318412D01*
X3384912Y-16318412D02*
X3394436Y-16337460D01*
X3394436Y-16337460D02*
X3394436Y-16442222D01*
X3489674Y-16442222D02*
X3489674Y-16308888D01*
X3489674Y-16327936D02*
X3499198Y-16318412D01*
X3499198Y-16318412D02*
X3518246Y-16308888D01*
X3518246Y-16308888D02*
X3546817Y-16308888D01*
X3546817Y-16308888D02*
X3565865Y-16318412D01*
X3565865Y-16318412D02*
X3575389Y-16337460D01*
X3575389Y-16337460D02*
X3575389Y-16442222D01*
X3575389Y-16337460D02*
X3584912Y-16318412D01*
X3584912Y-16318412D02*
X3603960Y-16308888D01*
X3603960Y-16308888D02*
X3632531Y-16308888D01*
X3632531Y-16308888D02*
X3651579Y-16318412D01*
X3651579Y-16318412D02*
X3661103Y-16337460D01*
X3661103Y-16337460D02*
X3661103Y-16442222D01*
X4051579Y-16232698D02*
X3880151Y-16489841D01*
X4308722Y-16242222D02*
X4327770Y-16242222D01*
X4327770Y-16242222D02*
X4346817Y-16251746D01*
X4346817Y-16251746D02*
X4356341Y-16261269D01*
X4356341Y-16261269D02*
X4365865Y-16280317D01*
X4365865Y-16280317D02*
X4375389Y-16318412D01*
X4375389Y-16318412D02*
X4375389Y-16366031D01*
X4375389Y-16366031D02*
X4365865Y-16404126D01*
X4365865Y-16404126D02*
X4356341Y-16423174D01*
X4356341Y-16423174D02*
X4346817Y-16432698D01*
X4346817Y-16432698D02*
X4327770Y-16442222D01*
X4327770Y-16442222D02*
X4308722Y-16442222D01*
X4308722Y-16442222D02*
X4289675Y-16432698D01*
X4289675Y-16432698D02*
X4280151Y-16423174D01*
X4280151Y-16423174D02*
X4270627Y-16404126D01*
X4270627Y-16404126D02*
X4261103Y-16366031D01*
X4261103Y-16366031D02*
X4261103Y-16318412D01*
X4261103Y-16318412D02*
X4270627Y-16280317D01*
X4270627Y-16280317D02*
X4280151Y-16261269D01*
X4280151Y-16261269D02*
X4289675Y-16251746D01*
X4289675Y-16251746D02*
X4308722Y-16242222D01*
X4461103Y-16423174D02*
X4470627Y-16432698D01*
X4470627Y-16432698D02*
X4461103Y-16442222D01*
X4461103Y-16442222D02*
X4451579Y-16432698D01*
X4451579Y-16432698D02*
X4461103Y-16423174D01*
X4461103Y-16423174D02*
X4461103Y-16442222D01*
X4594436Y-16242222D02*
X4613484Y-16242222D01*
X4613484Y-16242222D02*
X4632532Y-16251746D01*
X4632532Y-16251746D02*
X4642056Y-16261269D01*
X4642056Y-16261269D02*
X4651579Y-16280317D01*
X4651579Y-16280317D02*
X4661103Y-16318412D01*
X4661103Y-16318412D02*
X4661103Y-16366031D01*
X4661103Y-16366031D02*
X4651579Y-16404126D01*
X4651579Y-16404126D02*
X4642056Y-16423174D01*
X4642056Y-16423174D02*
X4632532Y-16432698D01*
X4632532Y-16432698D02*
X4613484Y-16442222D01*
X4613484Y-16442222D02*
X4594436Y-16442222D01*
X4594436Y-16442222D02*
X4575389Y-16432698D01*
X4575389Y-16432698D02*
X4565865Y-16423174D01*
X4565865Y-16423174D02*
X4556341Y-16404126D01*
X4556341Y-16404126D02*
X4546817Y-16366031D01*
X4546817Y-16366031D02*
X4546817Y-16318412D01*
X4546817Y-16318412D02*
X4556341Y-16280317D01*
X4556341Y-16280317D02*
X4565865Y-16261269D01*
X4565865Y-16261269D02*
X4575389Y-16251746D01*
X4575389Y-16251746D02*
X4594436Y-16242222D01*
X4727770Y-16242222D02*
X4851579Y-16242222D01*
X4851579Y-16242222D02*
X4784913Y-16318412D01*
X4784913Y-16318412D02*
X4813484Y-16318412D01*
X4813484Y-16318412D02*
X4832532Y-16327936D01*
X4832532Y-16327936D02*
X4842056Y-16337460D01*
X4842056Y-16337460D02*
X4851579Y-16356507D01*
X4851579Y-16356507D02*
X4851579Y-16404126D01*
X4851579Y-16404126D02*
X4842056Y-16423174D01*
X4842056Y-16423174D02*
X4832532Y-16432698D01*
X4832532Y-16432698D02*
X4813484Y-16442222D01*
X4813484Y-16442222D02*
X4756341Y-16442222D01*
X4756341Y-16442222D02*
X4737294Y-16432698D01*
X4737294Y-16432698D02*
X4727770Y-16423174D01*
X5032532Y-16242222D02*
X4937294Y-16242222D01*
X4937294Y-16242222D02*
X4927770Y-16337460D01*
X4927770Y-16337460D02*
X4937294Y-16327936D01*
X4937294Y-16327936D02*
X4956341Y-16318412D01*
X4956341Y-16318412D02*
X5003960Y-16318412D01*
X5003960Y-16318412D02*
X5023008Y-16327936D01*
X5023008Y-16327936D02*
X5032532Y-16337460D01*
X5032532Y-16337460D02*
X5042056Y-16356507D01*
X5042056Y-16356507D02*
X5042056Y-16404126D01*
X5042056Y-16404126D02*
X5032532Y-16423174D01*
X5032532Y-16423174D02*
X5023008Y-16432698D01*
X5023008Y-16432698D02*
X5003960Y-16442222D01*
X5003960Y-16442222D02*
X4956341Y-16442222D01*
X4956341Y-16442222D02*
X4937294Y-16432698D01*
X4937294Y-16432698D02*
X4927770Y-16423174D01*
X5213484Y-16308888D02*
X5213484Y-16442222D01*
X5165865Y-16232698D02*
X5118246Y-16375555D01*
X5118246Y-16375555D02*
X5242056Y-16375555D01*
X5308722Y-16242222D02*
X5308722Y-16280317D01*
X5384913Y-16242222D02*
X5384913Y-16280317D01*
X5680151Y-16518412D02*
X5670627Y-16508888D01*
X5670627Y-16508888D02*
X5651579Y-16480317D01*
X5651579Y-16480317D02*
X5642056Y-16461269D01*
X5642056Y-16461269D02*
X5632532Y-16432698D01*
X5632532Y-16432698D02*
X5623008Y-16385079D01*
X5623008Y-16385079D02*
X5623008Y-16346984D01*
X5623008Y-16346984D02*
X5632532Y-16299365D01*
X5632532Y-16299365D02*
X5642056Y-16270793D01*
X5642056Y-16270793D02*
X5651579Y-16251746D01*
X5651579Y-16251746D02*
X5670627Y-16223174D01*
X5670627Y-16223174D02*
X5680151Y-16213650D01*
X5842056Y-16242222D02*
X5803960Y-16242222D01*
X5803960Y-16242222D02*
X5784913Y-16251746D01*
X5784913Y-16251746D02*
X5775389Y-16261269D01*
X5775389Y-16261269D02*
X5756341Y-16289841D01*
X5756341Y-16289841D02*
X5746817Y-16327936D01*
X5746817Y-16327936D02*
X5746817Y-16404126D01*
X5746817Y-16404126D02*
X5756341Y-16423174D01*
X5756341Y-16423174D02*
X5765865Y-16432698D01*
X5765865Y-16432698D02*
X5784913Y-16442222D01*
X5784913Y-16442222D02*
X5823008Y-16442222D01*
X5823008Y-16442222D02*
X5842056Y-16432698D01*
X5842056Y-16432698D02*
X5851579Y-16423174D01*
X5851579Y-16423174D02*
X5861103Y-16404126D01*
X5861103Y-16404126D02*
X5861103Y-16356507D01*
X5861103Y-16356507D02*
X5851579Y-16337460D01*
X5851579Y-16337460D02*
X5842056Y-16327936D01*
X5842056Y-16327936D02*
X5823008Y-16318412D01*
X5823008Y-16318412D02*
X5784913Y-16318412D01*
X5784913Y-16318412D02*
X5765865Y-16327936D01*
X5765865Y-16327936D02*
X5756341Y-16337460D01*
X5756341Y-16337460D02*
X5746817Y-16356507D01*
X6099198Y-16442222D02*
X6099198Y-16242222D01*
X6184913Y-16442222D02*
X6184913Y-16337460D01*
X6184913Y-16337460D02*
X6175389Y-16318412D01*
X6175389Y-16318412D02*
X6156341Y-16308888D01*
X6156341Y-16308888D02*
X6127770Y-16308888D01*
X6127770Y-16308888D02*
X6108722Y-16318412D01*
X6108722Y-16318412D02*
X6099198Y-16327936D01*
X6308722Y-16442222D02*
X6289675Y-16432698D01*
X6289675Y-16432698D02*
X6280151Y-16423174D01*
X6280151Y-16423174D02*
X6270627Y-16404126D01*
X6270627Y-16404126D02*
X6270627Y-16346984D01*
X6270627Y-16346984D02*
X6280151Y-16327936D01*
X6280151Y-16327936D02*
X6289675Y-16318412D01*
X6289675Y-16318412D02*
X6308722Y-16308888D01*
X6308722Y-16308888D02*
X6337294Y-16308888D01*
X6337294Y-16308888D02*
X6356341Y-16318412D01*
X6356341Y-16318412D02*
X6365865Y-16327936D01*
X6365865Y-16327936D02*
X6375389Y-16346984D01*
X6375389Y-16346984D02*
X6375389Y-16404126D01*
X6375389Y-16404126D02*
X6365865Y-16423174D01*
X6365865Y-16423174D02*
X6356341Y-16432698D01*
X6356341Y-16432698D02*
X6337294Y-16442222D01*
X6337294Y-16442222D02*
X6308722Y-16442222D01*
X6489675Y-16442222D02*
X6470627Y-16432698D01*
X6470627Y-16432698D02*
X6461103Y-16413650D01*
X6461103Y-16413650D02*
X6461103Y-16242222D01*
X6642056Y-16432698D02*
X6623008Y-16442222D01*
X6623008Y-16442222D02*
X6584913Y-16442222D01*
X6584913Y-16442222D02*
X6565865Y-16432698D01*
X6565865Y-16432698D02*
X6556341Y-16413650D01*
X6556341Y-16413650D02*
X6556341Y-16337460D01*
X6556341Y-16337460D02*
X6565865Y-16318412D01*
X6565865Y-16318412D02*
X6584913Y-16308888D01*
X6584913Y-16308888D02*
X6623008Y-16308888D01*
X6623008Y-16308888D02*
X6642056Y-16318412D01*
X6642056Y-16318412D02*
X6651579Y-16337460D01*
X6651579Y-16337460D02*
X6651579Y-16356507D01*
X6651579Y-16356507D02*
X6556341Y-16375555D01*
X6727770Y-16432698D02*
X6746818Y-16442222D01*
X6746818Y-16442222D02*
X6784913Y-16442222D01*
X6784913Y-16442222D02*
X6803960Y-16432698D01*
X6803960Y-16432698D02*
X6813484Y-16413650D01*
X6813484Y-16413650D02*
X6813484Y-16404126D01*
X6813484Y-16404126D02*
X6803960Y-16385079D01*
X6803960Y-16385079D02*
X6784913Y-16375555D01*
X6784913Y-16375555D02*
X6756341Y-16375555D01*
X6756341Y-16375555D02*
X6737294Y-16366031D01*
X6737294Y-16366031D02*
X6727770Y-16346984D01*
X6727770Y-16346984D02*
X6727770Y-16337460D01*
X6727770Y-16337460D02*
X6737294Y-16318412D01*
X6737294Y-16318412D02*
X6756341Y-16308888D01*
X6756341Y-16308888D02*
X6784913Y-16308888D01*
X6784913Y-16308888D02*
X6803960Y-16318412D01*
X6880151Y-16518412D02*
X6889675Y-16508888D01*
X6889675Y-16508888D02*
X6908722Y-16480317D01*
X6908722Y-16480317D02*
X6918246Y-16461269D01*
X6918246Y-16461269D02*
X6927770Y-16432698D01*
X6927770Y-16432698D02*
X6937294Y-16385079D01*
X6937294Y-16385079D02*
X6937294Y-16346984D01*
X6937294Y-16346984D02*
X6927770Y-16299365D01*
X6927770Y-16299365D02*
X6918246Y-16270793D01*
X6918246Y-16270793D02*
X6908722Y-16251746D01*
X6908722Y-16251746D02*
X6889675Y-16223174D01*
X6889675Y-16223174D02*
X6880151Y-16213650D01*
D10*
X2068246Y-16563698D02*
X2068246Y-16663698D01*
X2018246Y-16613698D02*
X2118246Y-16613698D01*
D11*
X2470627Y-16706222D02*
X2356341Y-16706222D01*
X2413484Y-16706222D02*
X2413484Y-16506222D01*
X2413484Y-16506222D02*
X2394436Y-16534793D01*
X2394436Y-16534793D02*
X2375389Y-16553841D01*
X2375389Y-16553841D02*
X2356341Y-16563365D01*
X2556341Y-16687174D02*
X2565865Y-16696698D01*
X2565865Y-16696698D02*
X2556341Y-16706222D01*
X2556341Y-16706222D02*
X2546817Y-16696698D01*
X2546817Y-16696698D02*
X2556341Y-16687174D01*
X2556341Y-16687174D02*
X2556341Y-16706222D01*
X2689674Y-16506222D02*
X2708722Y-16506222D01*
X2708722Y-16506222D02*
X2727770Y-16515746D01*
X2727770Y-16515746D02*
X2737293Y-16525269D01*
X2737293Y-16525269D02*
X2746817Y-16544317D01*
X2746817Y-16544317D02*
X2756341Y-16582412D01*
X2756341Y-16582412D02*
X2756341Y-16630031D01*
X2756341Y-16630031D02*
X2746817Y-16668126D01*
X2746817Y-16668126D02*
X2737293Y-16687174D01*
X2737293Y-16687174D02*
X2727770Y-16696698D01*
X2727770Y-16696698D02*
X2708722Y-16706222D01*
X2708722Y-16706222D02*
X2689674Y-16706222D01*
X2689674Y-16706222D02*
X2670627Y-16696698D01*
X2670627Y-16696698D02*
X2661103Y-16687174D01*
X2661103Y-16687174D02*
X2651579Y-16668126D01*
X2651579Y-16668126D02*
X2642055Y-16630031D01*
X2642055Y-16630031D02*
X2642055Y-16582412D01*
X2642055Y-16582412D02*
X2651579Y-16544317D01*
X2651579Y-16544317D02*
X2661103Y-16525269D01*
X2661103Y-16525269D02*
X2670627Y-16515746D01*
X2670627Y-16515746D02*
X2689674Y-16506222D01*
X2880150Y-16506222D02*
X2899198Y-16506222D01*
X2899198Y-16506222D02*
X2918246Y-16515746D01*
X2918246Y-16515746D02*
X2927770Y-16525269D01*
X2927770Y-16525269D02*
X2937293Y-16544317D01*
X2937293Y-16544317D02*
X2946817Y-16582412D01*
X2946817Y-16582412D02*
X2946817Y-16630031D01*
X2946817Y-16630031D02*
X2937293Y-16668126D01*
X2937293Y-16668126D02*
X2927770Y-16687174D01*
X2927770Y-16687174D02*
X2918246Y-16696698D01*
X2918246Y-16696698D02*
X2899198Y-16706222D01*
X2899198Y-16706222D02*
X2880150Y-16706222D01*
X2880150Y-16706222D02*
X2861103Y-16696698D01*
X2861103Y-16696698D02*
X2851579Y-16687174D01*
X2851579Y-16687174D02*
X2842055Y-16668126D01*
X2842055Y-16668126D02*
X2832531Y-16630031D01*
X2832531Y-16630031D02*
X2832531Y-16582412D01*
X2832531Y-16582412D02*
X2842055Y-16544317D01*
X2842055Y-16544317D02*
X2851579Y-16525269D01*
X2851579Y-16525269D02*
X2861103Y-16515746D01*
X2861103Y-16515746D02*
X2880150Y-16506222D01*
X3070627Y-16506222D02*
X3089674Y-16506222D01*
X3089674Y-16506222D02*
X3108722Y-16515746D01*
X3108722Y-16515746D02*
X3118246Y-16525269D01*
X3118246Y-16525269D02*
X3127770Y-16544317D01*
X3127770Y-16544317D02*
X3137293Y-16582412D01*
X3137293Y-16582412D02*
X3137293Y-16630031D01*
X3137293Y-16630031D02*
X3127770Y-16668126D01*
X3127770Y-16668126D02*
X3118246Y-16687174D01*
X3118246Y-16687174D02*
X3108722Y-16696698D01*
X3108722Y-16696698D02*
X3089674Y-16706222D01*
X3089674Y-16706222D02*
X3070627Y-16706222D01*
X3070627Y-16706222D02*
X3051579Y-16696698D01*
X3051579Y-16696698D02*
X3042055Y-16687174D01*
X3042055Y-16687174D02*
X3032531Y-16668126D01*
X3032531Y-16668126D02*
X3023008Y-16630031D01*
X3023008Y-16630031D02*
X3023008Y-16582412D01*
X3023008Y-16582412D02*
X3032531Y-16544317D01*
X3032531Y-16544317D02*
X3042055Y-16525269D01*
X3042055Y-16525269D02*
X3051579Y-16515746D01*
X3051579Y-16515746D02*
X3070627Y-16506222D01*
X3223008Y-16706222D02*
X3223008Y-16572888D01*
X3223008Y-16591936D02*
X3232531Y-16582412D01*
X3232531Y-16582412D02*
X3251579Y-16572888D01*
X3251579Y-16572888D02*
X3280151Y-16572888D01*
X3280151Y-16572888D02*
X3299198Y-16582412D01*
X3299198Y-16582412D02*
X3308722Y-16601460D01*
X3308722Y-16601460D02*
X3308722Y-16706222D01*
X3308722Y-16601460D02*
X3318246Y-16582412D01*
X3318246Y-16582412D02*
X3337293Y-16572888D01*
X3337293Y-16572888D02*
X3365865Y-16572888D01*
X3365865Y-16572888D02*
X3384912Y-16582412D01*
X3384912Y-16582412D02*
X3394436Y-16601460D01*
X3394436Y-16601460D02*
X3394436Y-16706222D01*
X3489674Y-16706222D02*
X3489674Y-16572888D01*
X3489674Y-16591936D02*
X3499198Y-16582412D01*
X3499198Y-16582412D02*
X3518246Y-16572888D01*
X3518246Y-16572888D02*
X3546817Y-16572888D01*
X3546817Y-16572888D02*
X3565865Y-16582412D01*
X3565865Y-16582412D02*
X3575389Y-16601460D01*
X3575389Y-16601460D02*
X3575389Y-16706222D01*
X3575389Y-16601460D02*
X3584912Y-16582412D01*
X3584912Y-16582412D02*
X3603960Y-16572888D01*
X3603960Y-16572888D02*
X3632531Y-16572888D01*
X3632531Y-16572888D02*
X3651579Y-16582412D01*
X3651579Y-16582412D02*
X3661103Y-16601460D01*
X3661103Y-16601460D02*
X3661103Y-16706222D01*
X4051579Y-16496698D02*
X3880151Y-16753841D01*
X4308722Y-16506222D02*
X4327770Y-16506222D01*
X4327770Y-16506222D02*
X4346817Y-16515746D01*
X4346817Y-16515746D02*
X4356341Y-16525269D01*
X4356341Y-16525269D02*
X4365865Y-16544317D01*
X4365865Y-16544317D02*
X4375389Y-16582412D01*
X4375389Y-16582412D02*
X4375389Y-16630031D01*
X4375389Y-16630031D02*
X4365865Y-16668126D01*
X4365865Y-16668126D02*
X4356341Y-16687174D01*
X4356341Y-16687174D02*
X4346817Y-16696698D01*
X4346817Y-16696698D02*
X4327770Y-16706222D01*
X4327770Y-16706222D02*
X4308722Y-16706222D01*
X4308722Y-16706222D02*
X4289675Y-16696698D01*
X4289675Y-16696698D02*
X4280151Y-16687174D01*
X4280151Y-16687174D02*
X4270627Y-16668126D01*
X4270627Y-16668126D02*
X4261103Y-16630031D01*
X4261103Y-16630031D02*
X4261103Y-16582412D01*
X4261103Y-16582412D02*
X4270627Y-16544317D01*
X4270627Y-16544317D02*
X4280151Y-16525269D01*
X4280151Y-16525269D02*
X4289675Y-16515746D01*
X4289675Y-16515746D02*
X4308722Y-16506222D01*
X4461103Y-16687174D02*
X4470627Y-16696698D01*
X4470627Y-16696698D02*
X4461103Y-16706222D01*
X4461103Y-16706222D02*
X4451579Y-16696698D01*
X4451579Y-16696698D02*
X4461103Y-16687174D01*
X4461103Y-16687174D02*
X4461103Y-16706222D01*
X4594436Y-16506222D02*
X4613484Y-16506222D01*
X4613484Y-16506222D02*
X4632532Y-16515746D01*
X4632532Y-16515746D02*
X4642056Y-16525269D01*
X4642056Y-16525269D02*
X4651579Y-16544317D01*
X4651579Y-16544317D02*
X4661103Y-16582412D01*
X4661103Y-16582412D02*
X4661103Y-16630031D01*
X4661103Y-16630031D02*
X4651579Y-16668126D01*
X4651579Y-16668126D02*
X4642056Y-16687174D01*
X4642056Y-16687174D02*
X4632532Y-16696698D01*
X4632532Y-16696698D02*
X4613484Y-16706222D01*
X4613484Y-16706222D02*
X4594436Y-16706222D01*
X4594436Y-16706222D02*
X4575389Y-16696698D01*
X4575389Y-16696698D02*
X4565865Y-16687174D01*
X4565865Y-16687174D02*
X4556341Y-16668126D01*
X4556341Y-16668126D02*
X4546817Y-16630031D01*
X4546817Y-16630031D02*
X4546817Y-16582412D01*
X4546817Y-16582412D02*
X4556341Y-16544317D01*
X4556341Y-16544317D02*
X4565865Y-16525269D01*
X4565865Y-16525269D02*
X4575389Y-16515746D01*
X4575389Y-16515746D02*
X4594436Y-16506222D01*
X4727770Y-16506222D02*
X4851579Y-16506222D01*
X4851579Y-16506222D02*
X4784913Y-16582412D01*
X4784913Y-16582412D02*
X4813484Y-16582412D01*
X4813484Y-16582412D02*
X4832532Y-16591936D01*
X4832532Y-16591936D02*
X4842056Y-16601460D01*
X4842056Y-16601460D02*
X4851579Y-16620507D01*
X4851579Y-16620507D02*
X4851579Y-16668126D01*
X4851579Y-16668126D02*
X4842056Y-16687174D01*
X4842056Y-16687174D02*
X4832532Y-16696698D01*
X4832532Y-16696698D02*
X4813484Y-16706222D01*
X4813484Y-16706222D02*
X4756341Y-16706222D01*
X4756341Y-16706222D02*
X4737294Y-16696698D01*
X4737294Y-16696698D02*
X4727770Y-16687174D01*
X4946817Y-16706222D02*
X4984913Y-16706222D01*
X4984913Y-16706222D02*
X5003960Y-16696698D01*
X5003960Y-16696698D02*
X5013484Y-16687174D01*
X5013484Y-16687174D02*
X5032532Y-16658603D01*
X5032532Y-16658603D02*
X5042056Y-16620507D01*
X5042056Y-16620507D02*
X5042056Y-16544317D01*
X5042056Y-16544317D02*
X5032532Y-16525269D01*
X5032532Y-16525269D02*
X5023008Y-16515746D01*
X5023008Y-16515746D02*
X5003960Y-16506222D01*
X5003960Y-16506222D02*
X4965865Y-16506222D01*
X4965865Y-16506222D02*
X4946817Y-16515746D01*
X4946817Y-16515746D02*
X4937294Y-16525269D01*
X4937294Y-16525269D02*
X4927770Y-16544317D01*
X4927770Y-16544317D02*
X4927770Y-16591936D01*
X4927770Y-16591936D02*
X4937294Y-16610984D01*
X4937294Y-16610984D02*
X4946817Y-16620507D01*
X4946817Y-16620507D02*
X4965865Y-16630031D01*
X4965865Y-16630031D02*
X5003960Y-16630031D01*
X5003960Y-16630031D02*
X5023008Y-16620507D01*
X5023008Y-16620507D02*
X5032532Y-16610984D01*
X5032532Y-16610984D02*
X5042056Y-16591936D01*
X5213484Y-16572888D02*
X5213484Y-16706222D01*
X5165865Y-16496698D02*
X5118246Y-16639555D01*
X5118246Y-16639555D02*
X5242056Y-16639555D01*
X5308722Y-16506222D02*
X5308722Y-16544317D01*
X5384913Y-16506222D02*
X5384913Y-16544317D01*
X5680151Y-16782412D02*
X5670627Y-16772888D01*
X5670627Y-16772888D02*
X5651579Y-16744317D01*
X5651579Y-16744317D02*
X5642056Y-16725269D01*
X5642056Y-16725269D02*
X5632532Y-16696698D01*
X5632532Y-16696698D02*
X5623008Y-16649079D01*
X5623008Y-16649079D02*
X5623008Y-16610984D01*
X5623008Y-16610984D02*
X5632532Y-16563365D01*
X5632532Y-16563365D02*
X5642056Y-16534793D01*
X5642056Y-16534793D02*
X5651579Y-16515746D01*
X5651579Y-16515746D02*
X5670627Y-16487174D01*
X5670627Y-16487174D02*
X5680151Y-16477650D01*
X5746817Y-16525269D02*
X5756341Y-16515746D01*
X5756341Y-16515746D02*
X5775389Y-16506222D01*
X5775389Y-16506222D02*
X5823008Y-16506222D01*
X5823008Y-16506222D02*
X5842056Y-16515746D01*
X5842056Y-16515746D02*
X5851579Y-16525269D01*
X5851579Y-16525269D02*
X5861103Y-16544317D01*
X5861103Y-16544317D02*
X5861103Y-16563365D01*
X5861103Y-16563365D02*
X5851579Y-16591936D01*
X5851579Y-16591936D02*
X5737294Y-16706222D01*
X5737294Y-16706222D02*
X5861103Y-16706222D01*
X5927770Y-16506222D02*
X6061103Y-16506222D01*
X6061103Y-16506222D02*
X5975389Y-16706222D01*
X6289675Y-16706222D02*
X6289675Y-16506222D01*
X6375389Y-16706222D02*
X6375389Y-16601460D01*
X6375389Y-16601460D02*
X6365865Y-16582412D01*
X6365865Y-16582412D02*
X6346818Y-16572888D01*
X6346818Y-16572888D02*
X6318246Y-16572888D01*
X6318246Y-16572888D02*
X6299198Y-16582412D01*
X6299198Y-16582412D02*
X6289675Y-16591936D01*
X6499198Y-16706222D02*
X6480151Y-16696698D01*
X6480151Y-16696698D02*
X6470627Y-16687174D01*
X6470627Y-16687174D02*
X6461103Y-16668126D01*
X6461103Y-16668126D02*
X6461103Y-16610984D01*
X6461103Y-16610984D02*
X6470627Y-16591936D01*
X6470627Y-16591936D02*
X6480151Y-16582412D01*
X6480151Y-16582412D02*
X6499198Y-16572888D01*
X6499198Y-16572888D02*
X6527770Y-16572888D01*
X6527770Y-16572888D02*
X6546818Y-16582412D01*
X6546818Y-16582412D02*
X6556341Y-16591936D01*
X6556341Y-16591936D02*
X6565865Y-16610984D01*
X6565865Y-16610984D02*
X6565865Y-16668126D01*
X6565865Y-16668126D02*
X6556341Y-16687174D01*
X6556341Y-16687174D02*
X6546818Y-16696698D01*
X6546818Y-16696698D02*
X6527770Y-16706222D01*
X6527770Y-16706222D02*
X6499198Y-16706222D01*
X6680151Y-16706222D02*
X6661103Y-16696698D01*
X6661103Y-16696698D02*
X6651579Y-16677650D01*
X6651579Y-16677650D02*
X6651579Y-16506222D01*
X6832532Y-16696698D02*
X6813484Y-16706222D01*
X6813484Y-16706222D02*
X6775389Y-16706222D01*
X6775389Y-16706222D02*
X6756341Y-16696698D01*
X6756341Y-16696698D02*
X6746818Y-16677650D01*
X6746818Y-16677650D02*
X6746818Y-16601460D01*
X6746818Y-16601460D02*
X6756341Y-16582412D01*
X6756341Y-16582412D02*
X6775389Y-16572888D01*
X6775389Y-16572888D02*
X6813484Y-16572888D01*
X6813484Y-16572888D02*
X6832532Y-16582412D01*
X6832532Y-16582412D02*
X6842056Y-16601460D01*
X6842056Y-16601460D02*
X6842056Y-16620507D01*
X6842056Y-16620507D02*
X6746818Y-16639555D01*
X6918246Y-16696698D02*
X6937294Y-16706222D01*
X6937294Y-16706222D02*
X6975389Y-16706222D01*
X6975389Y-16706222D02*
X6994437Y-16696698D01*
X6994437Y-16696698D02*
X7003960Y-16677650D01*
X7003960Y-16677650D02*
X7003960Y-16668126D01*
X7003960Y-16668126D02*
X6994437Y-16649079D01*
X6994437Y-16649079D02*
X6975389Y-16639555D01*
X6975389Y-16639555D02*
X6946818Y-16639555D01*
X6946818Y-16639555D02*
X6927770Y-16630031D01*
X6927770Y-16630031D02*
X6918246Y-16610984D01*
X6918246Y-16610984D02*
X6918246Y-16601460D01*
X6918246Y-16601460D02*
X6927770Y-16582412D01*
X6927770Y-16582412D02*
X6946818Y-16572888D01*
X6946818Y-16572888D02*
X6975389Y-16572888D01*
X6975389Y-16572888D02*
X6994437Y-16582412D01*
X7070627Y-16782412D02*
X7080151Y-16772888D01*
X7080151Y-16772888D02*
X7099199Y-16744317D01*
X7099199Y-16744317D02*
X7108722Y-16725269D01*
X7108722Y-16725269D02*
X7118246Y-16696698D01*
X7118246Y-16696698D02*
X7127770Y-16649079D01*
X7127770Y-16649079D02*
X7127770Y-16610984D01*
X7127770Y-16610984D02*
X7118246Y-16563365D01*
X7118246Y-16563365D02*
X7108722Y-16534793D01*
X7108722Y-16534793D02*
X7099199Y-16515746D01*
X7099199Y-16515746D02*
X7080151Y-16487174D01*
X7080151Y-16487174D02*
X7070627Y-16477650D01*
D14*
X2100673Y-16920125D02*
X2100673Y-16835271D01*
X2015819Y-16835271D01*
X2015819Y-16920125D01*
X2100673Y-16920125D01*
D11*
X2470627Y-16970222D02*
X2356341Y-16970222D01*
X2413484Y-16970222D02*
X2413484Y-16770222D01*
X2413484Y-16770222D02*
X2394436Y-16798793D01*
X2394436Y-16798793D02*
X2375389Y-16817841D01*
X2375389Y-16817841D02*
X2356341Y-16827365D01*
X2556341Y-16951174D02*
X2565865Y-16960698D01*
X2565865Y-16960698D02*
X2556341Y-16970222D01*
X2556341Y-16970222D02*
X2546817Y-16960698D01*
X2546817Y-16960698D02*
X2556341Y-16951174D01*
X2556341Y-16951174D02*
X2556341Y-16970222D01*
X2642055Y-16789269D02*
X2651579Y-16779746D01*
X2651579Y-16779746D02*
X2670627Y-16770222D01*
X2670627Y-16770222D02*
X2718246Y-16770222D01*
X2718246Y-16770222D02*
X2737293Y-16779746D01*
X2737293Y-16779746D02*
X2746817Y-16789269D01*
X2746817Y-16789269D02*
X2756341Y-16808317D01*
X2756341Y-16808317D02*
X2756341Y-16827365D01*
X2756341Y-16827365D02*
X2746817Y-16855936D01*
X2746817Y-16855936D02*
X2632532Y-16970222D01*
X2632532Y-16970222D02*
X2756341Y-16970222D01*
X2880150Y-16770222D02*
X2899198Y-16770222D01*
X2899198Y-16770222D02*
X2918246Y-16779746D01*
X2918246Y-16779746D02*
X2927770Y-16789269D01*
X2927770Y-16789269D02*
X2937293Y-16808317D01*
X2937293Y-16808317D02*
X2946817Y-16846412D01*
X2946817Y-16846412D02*
X2946817Y-16894031D01*
X2946817Y-16894031D02*
X2937293Y-16932127D01*
X2937293Y-16932127D02*
X2927770Y-16951174D01*
X2927770Y-16951174D02*
X2918246Y-16960698D01*
X2918246Y-16960698D02*
X2899198Y-16970222D01*
X2899198Y-16970222D02*
X2880150Y-16970222D01*
X2880150Y-16970222D02*
X2861103Y-16960698D01*
X2861103Y-16960698D02*
X2851579Y-16951174D01*
X2851579Y-16951174D02*
X2842055Y-16932127D01*
X2842055Y-16932127D02*
X2832531Y-16894031D01*
X2832531Y-16894031D02*
X2832531Y-16846412D01*
X2832531Y-16846412D02*
X2842055Y-16808317D01*
X2842055Y-16808317D02*
X2851579Y-16789269D01*
X2851579Y-16789269D02*
X2861103Y-16779746D01*
X2861103Y-16779746D02*
X2880150Y-16770222D01*
X3070627Y-16770222D02*
X3089674Y-16770222D01*
X3089674Y-16770222D02*
X3108722Y-16779746D01*
X3108722Y-16779746D02*
X3118246Y-16789269D01*
X3118246Y-16789269D02*
X3127770Y-16808317D01*
X3127770Y-16808317D02*
X3137293Y-16846412D01*
X3137293Y-16846412D02*
X3137293Y-16894031D01*
X3137293Y-16894031D02*
X3127770Y-16932127D01*
X3127770Y-16932127D02*
X3118246Y-16951174D01*
X3118246Y-16951174D02*
X3108722Y-16960698D01*
X3108722Y-16960698D02*
X3089674Y-16970222D01*
X3089674Y-16970222D02*
X3070627Y-16970222D01*
X3070627Y-16970222D02*
X3051579Y-16960698D01*
X3051579Y-16960698D02*
X3042055Y-16951174D01*
X3042055Y-16951174D02*
X3032531Y-16932127D01*
X3032531Y-16932127D02*
X3023008Y-16894031D01*
X3023008Y-16894031D02*
X3023008Y-16846412D01*
X3023008Y-16846412D02*
X3032531Y-16808317D01*
X3032531Y-16808317D02*
X3042055Y-16789269D01*
X3042055Y-16789269D02*
X3051579Y-16779746D01*
X3051579Y-16779746D02*
X3070627Y-16770222D01*
X3223008Y-16970222D02*
X3223008Y-16836888D01*
X3223008Y-16855936D02*
X3232531Y-16846412D01*
X3232531Y-16846412D02*
X3251579Y-16836888D01*
X3251579Y-16836888D02*
X3280151Y-16836888D01*
X3280151Y-16836888D02*
X3299198Y-16846412D01*
X3299198Y-16846412D02*
X3308722Y-16865460D01*
X3308722Y-16865460D02*
X3308722Y-16970222D01*
X3308722Y-16865460D02*
X3318246Y-16846412D01*
X3318246Y-16846412D02*
X3337293Y-16836888D01*
X3337293Y-16836888D02*
X3365865Y-16836888D01*
X3365865Y-16836888D02*
X3384912Y-16846412D01*
X3384912Y-16846412D02*
X3394436Y-16865460D01*
X3394436Y-16865460D02*
X3394436Y-16970222D01*
X3489674Y-16970222D02*
X3489674Y-16836888D01*
X3489674Y-16855936D02*
X3499198Y-16846412D01*
X3499198Y-16846412D02*
X3518246Y-16836888D01*
X3518246Y-16836888D02*
X3546817Y-16836888D01*
X3546817Y-16836888D02*
X3565865Y-16846412D01*
X3565865Y-16846412D02*
X3575389Y-16865460D01*
X3575389Y-16865460D02*
X3575389Y-16970222D01*
X3575389Y-16865460D02*
X3584912Y-16846412D01*
X3584912Y-16846412D02*
X3603960Y-16836888D01*
X3603960Y-16836888D02*
X3632531Y-16836888D01*
X3632531Y-16836888D02*
X3651579Y-16846412D01*
X3651579Y-16846412D02*
X3661103Y-16865460D01*
X3661103Y-16865460D02*
X3661103Y-16970222D01*
X4051579Y-16760698D02*
X3880151Y-17017841D01*
X4308722Y-16770222D02*
X4327770Y-16770222D01*
X4327770Y-16770222D02*
X4346817Y-16779746D01*
X4346817Y-16779746D02*
X4356341Y-16789269D01*
X4356341Y-16789269D02*
X4365865Y-16808317D01*
X4365865Y-16808317D02*
X4375389Y-16846412D01*
X4375389Y-16846412D02*
X4375389Y-16894031D01*
X4375389Y-16894031D02*
X4365865Y-16932127D01*
X4365865Y-16932127D02*
X4356341Y-16951174D01*
X4356341Y-16951174D02*
X4346817Y-16960698D01*
X4346817Y-16960698D02*
X4327770Y-16970222D01*
X4327770Y-16970222D02*
X4308722Y-16970222D01*
X4308722Y-16970222D02*
X4289675Y-16960698D01*
X4289675Y-16960698D02*
X4280151Y-16951174D01*
X4280151Y-16951174D02*
X4270627Y-16932127D01*
X4270627Y-16932127D02*
X4261103Y-16894031D01*
X4261103Y-16894031D02*
X4261103Y-16846412D01*
X4261103Y-16846412D02*
X4270627Y-16808317D01*
X4270627Y-16808317D02*
X4280151Y-16789269D01*
X4280151Y-16789269D02*
X4289675Y-16779746D01*
X4289675Y-16779746D02*
X4308722Y-16770222D01*
X4461103Y-16951174D02*
X4470627Y-16960698D01*
X4470627Y-16960698D02*
X4461103Y-16970222D01*
X4461103Y-16970222D02*
X4451579Y-16960698D01*
X4451579Y-16960698D02*
X4461103Y-16951174D01*
X4461103Y-16951174D02*
X4461103Y-16970222D01*
X4594436Y-16770222D02*
X4613484Y-16770222D01*
X4613484Y-16770222D02*
X4632532Y-16779746D01*
X4632532Y-16779746D02*
X4642056Y-16789269D01*
X4642056Y-16789269D02*
X4651579Y-16808317D01*
X4651579Y-16808317D02*
X4661103Y-16846412D01*
X4661103Y-16846412D02*
X4661103Y-16894031D01*
X4661103Y-16894031D02*
X4651579Y-16932127D01*
X4651579Y-16932127D02*
X4642056Y-16951174D01*
X4642056Y-16951174D02*
X4632532Y-16960698D01*
X4632532Y-16960698D02*
X4613484Y-16970222D01*
X4613484Y-16970222D02*
X4594436Y-16970222D01*
X4594436Y-16970222D02*
X4575389Y-16960698D01*
X4575389Y-16960698D02*
X4565865Y-16951174D01*
X4565865Y-16951174D02*
X4556341Y-16932127D01*
X4556341Y-16932127D02*
X4546817Y-16894031D01*
X4546817Y-16894031D02*
X4546817Y-16846412D01*
X4546817Y-16846412D02*
X4556341Y-16808317D01*
X4556341Y-16808317D02*
X4565865Y-16789269D01*
X4565865Y-16789269D02*
X4575389Y-16779746D01*
X4575389Y-16779746D02*
X4594436Y-16770222D01*
X4832532Y-16836888D02*
X4832532Y-16970222D01*
X4784913Y-16760698D02*
X4737294Y-16903555D01*
X4737294Y-16903555D02*
X4861103Y-16903555D01*
X4918246Y-16770222D02*
X5051579Y-16770222D01*
X5051579Y-16770222D02*
X4965865Y-16970222D01*
X5118246Y-16789269D02*
X5127770Y-16779746D01*
X5127770Y-16779746D02*
X5146817Y-16770222D01*
X5146817Y-16770222D02*
X5194437Y-16770222D01*
X5194437Y-16770222D02*
X5213484Y-16779746D01*
X5213484Y-16779746D02*
X5223008Y-16789269D01*
X5223008Y-16789269D02*
X5232532Y-16808317D01*
X5232532Y-16808317D02*
X5232532Y-16827365D01*
X5232532Y-16827365D02*
X5223008Y-16855936D01*
X5223008Y-16855936D02*
X5108722Y-16970222D01*
X5108722Y-16970222D02*
X5232532Y-16970222D01*
X5308722Y-16770222D02*
X5308722Y-16808317D01*
X5384913Y-16770222D02*
X5384913Y-16808317D01*
X5680151Y-17046412D02*
X5670627Y-17036888D01*
X5670627Y-17036888D02*
X5651579Y-17008317D01*
X5651579Y-17008317D02*
X5642056Y-16989269D01*
X5642056Y-16989269D02*
X5632532Y-16960698D01*
X5632532Y-16960698D02*
X5623008Y-16913079D01*
X5623008Y-16913079D02*
X5623008Y-16874984D01*
X5623008Y-16874984D02*
X5632532Y-16827365D01*
X5632532Y-16827365D02*
X5642056Y-16798793D01*
X5642056Y-16798793D02*
X5651579Y-16779746D01*
X5651579Y-16779746D02*
X5670627Y-16751174D01*
X5670627Y-16751174D02*
X5680151Y-16741650D01*
X5842056Y-16770222D02*
X5803960Y-16770222D01*
X5803960Y-16770222D02*
X5784913Y-16779746D01*
X5784913Y-16779746D02*
X5775389Y-16789269D01*
X5775389Y-16789269D02*
X5756341Y-16817841D01*
X5756341Y-16817841D02*
X5746817Y-16855936D01*
X5746817Y-16855936D02*
X5746817Y-16932127D01*
X5746817Y-16932127D02*
X5756341Y-16951174D01*
X5756341Y-16951174D02*
X5765865Y-16960698D01*
X5765865Y-16960698D02*
X5784913Y-16970222D01*
X5784913Y-16970222D02*
X5823008Y-16970222D01*
X5823008Y-16970222D02*
X5842056Y-16960698D01*
X5842056Y-16960698D02*
X5851579Y-16951174D01*
X5851579Y-16951174D02*
X5861103Y-16932127D01*
X5861103Y-16932127D02*
X5861103Y-16884508D01*
X5861103Y-16884508D02*
X5851579Y-16865460D01*
X5851579Y-16865460D02*
X5842056Y-16855936D01*
X5842056Y-16855936D02*
X5823008Y-16846412D01*
X5823008Y-16846412D02*
X5784913Y-16846412D01*
X5784913Y-16846412D02*
X5765865Y-16855936D01*
X5765865Y-16855936D02*
X5756341Y-16865460D01*
X5756341Y-16865460D02*
X5746817Y-16884508D01*
X5984913Y-16770222D02*
X6003960Y-16770222D01*
X6003960Y-16770222D02*
X6023008Y-16779746D01*
X6023008Y-16779746D02*
X6032532Y-16789269D01*
X6032532Y-16789269D02*
X6042056Y-16808317D01*
X6042056Y-16808317D02*
X6051579Y-16846412D01*
X6051579Y-16846412D02*
X6051579Y-16894031D01*
X6051579Y-16894031D02*
X6042056Y-16932127D01*
X6042056Y-16932127D02*
X6032532Y-16951174D01*
X6032532Y-16951174D02*
X6023008Y-16960698D01*
X6023008Y-16960698D02*
X6003960Y-16970222D01*
X6003960Y-16970222D02*
X5984913Y-16970222D01*
X5984913Y-16970222D02*
X5965865Y-16960698D01*
X5965865Y-16960698D02*
X5956341Y-16951174D01*
X5956341Y-16951174D02*
X5946817Y-16932127D01*
X5946817Y-16932127D02*
X5937294Y-16894031D01*
X5937294Y-16894031D02*
X5937294Y-16846412D01*
X5937294Y-16846412D02*
X5946817Y-16808317D01*
X5946817Y-16808317D02*
X5956341Y-16789269D01*
X5956341Y-16789269D02*
X5965865Y-16779746D01*
X5965865Y-16779746D02*
X5984913Y-16770222D01*
X6289675Y-16970222D02*
X6289675Y-16770222D01*
X6375389Y-16970222D02*
X6375389Y-16865460D01*
X6375389Y-16865460D02*
X6365865Y-16846412D01*
X6365865Y-16846412D02*
X6346818Y-16836888D01*
X6346818Y-16836888D02*
X6318246Y-16836888D01*
X6318246Y-16836888D02*
X6299198Y-16846412D01*
X6299198Y-16846412D02*
X6289675Y-16855936D01*
X6499198Y-16970222D02*
X6480151Y-16960698D01*
X6480151Y-16960698D02*
X6470627Y-16951174D01*
X6470627Y-16951174D02*
X6461103Y-16932127D01*
X6461103Y-16932127D02*
X6461103Y-16874984D01*
X6461103Y-16874984D02*
X6470627Y-16855936D01*
X6470627Y-16855936D02*
X6480151Y-16846412D01*
X6480151Y-16846412D02*
X6499198Y-16836888D01*
X6499198Y-16836888D02*
X6527770Y-16836888D01*
X6527770Y-16836888D02*
X6546818Y-16846412D01*
X6546818Y-16846412D02*
X6556341Y-16855936D01*
X6556341Y-16855936D02*
X6565865Y-16874984D01*
X6565865Y-16874984D02*
X6565865Y-16932127D01*
X6565865Y-16932127D02*
X6556341Y-16951174D01*
X6556341Y-16951174D02*
X6546818Y-16960698D01*
X6546818Y-16960698D02*
X6527770Y-16970222D01*
X6527770Y-16970222D02*
X6499198Y-16970222D01*
X6680151Y-16970222D02*
X6661103Y-16960698D01*
X6661103Y-16960698D02*
X6651579Y-16941650D01*
X6651579Y-16941650D02*
X6651579Y-16770222D01*
X6832532Y-16960698D02*
X6813484Y-16970222D01*
X6813484Y-16970222D02*
X6775389Y-16970222D01*
X6775389Y-16970222D02*
X6756341Y-16960698D01*
X6756341Y-16960698D02*
X6746818Y-16941650D01*
X6746818Y-16941650D02*
X6746818Y-16865460D01*
X6746818Y-16865460D02*
X6756341Y-16846412D01*
X6756341Y-16846412D02*
X6775389Y-16836888D01*
X6775389Y-16836888D02*
X6813484Y-16836888D01*
X6813484Y-16836888D02*
X6832532Y-16846412D01*
X6832532Y-16846412D02*
X6842056Y-16865460D01*
X6842056Y-16865460D02*
X6842056Y-16884508D01*
X6842056Y-16884508D02*
X6746818Y-16903555D01*
X6918246Y-16960698D02*
X6937294Y-16970222D01*
X6937294Y-16970222D02*
X6975389Y-16970222D01*
X6975389Y-16970222D02*
X6994437Y-16960698D01*
X6994437Y-16960698D02*
X7003960Y-16941650D01*
X7003960Y-16941650D02*
X7003960Y-16932127D01*
X7003960Y-16932127D02*
X6994437Y-16913079D01*
X6994437Y-16913079D02*
X6975389Y-16903555D01*
X6975389Y-16903555D02*
X6946818Y-16903555D01*
X6946818Y-16903555D02*
X6927770Y-16894031D01*
X6927770Y-16894031D02*
X6918246Y-16874984D01*
X6918246Y-16874984D02*
X6918246Y-16865460D01*
X6918246Y-16865460D02*
X6927770Y-16846412D01*
X6927770Y-16846412D02*
X6946818Y-16836888D01*
X6946818Y-16836888D02*
X6975389Y-16836888D01*
X6975389Y-16836888D02*
X6994437Y-16846412D01*
X7070627Y-17046412D02*
X7080151Y-17036888D01*
X7080151Y-17036888D02*
X7099199Y-17008317D01*
X7099199Y-17008317D02*
X7108722Y-16989269D01*
X7108722Y-16989269D02*
X7118246Y-16960698D01*
X7118246Y-16960698D02*
X7127770Y-16913079D01*
X7127770Y-16913079D02*
X7127770Y-16874984D01*
X7127770Y-16874984D02*
X7118246Y-16827365D01*
X7118246Y-16827365D02*
X7108722Y-16798793D01*
X7108722Y-16798793D02*
X7099199Y-16779746D01*
X7099199Y-16779746D02*
X7080151Y-16751174D01*
X7080151Y-16751174D02*
X7070627Y-16741650D01*
X2018246Y-17241698D02*
X2118246Y-17141698D01*
X2018246Y-17041698D01*
X1918246Y-17141698D01*
X2018246Y-17241698D01*
X2356341Y-17053269D02*
X2365865Y-17043746D01*
X2365865Y-17043746D02*
X2384912Y-17034222D01*
X2384912Y-17034222D02*
X2432532Y-17034222D01*
X2432532Y-17034222D02*
X2451579Y-17043746D01*
X2451579Y-17043746D02*
X2461103Y-17053269D01*
X2461103Y-17053269D02*
X2470627Y-17072317D01*
X2470627Y-17072317D02*
X2470627Y-17091365D01*
X2470627Y-17091365D02*
X2461103Y-17119936D01*
X2461103Y-17119936D02*
X2346817Y-17234222D01*
X2346817Y-17234222D02*
X2470627Y-17234222D01*
X2556341Y-17215174D02*
X2565865Y-17224698D01*
X2565865Y-17224698D02*
X2556341Y-17234222D01*
X2556341Y-17234222D02*
X2546817Y-17224698D01*
X2546817Y-17224698D02*
X2556341Y-17215174D01*
X2556341Y-17215174D02*
X2556341Y-17234222D01*
X2642055Y-17053269D02*
X2651579Y-17043746D01*
X2651579Y-17043746D02*
X2670627Y-17034222D01*
X2670627Y-17034222D02*
X2718246Y-17034222D01*
X2718246Y-17034222D02*
X2737293Y-17043746D01*
X2737293Y-17043746D02*
X2746817Y-17053269D01*
X2746817Y-17053269D02*
X2756341Y-17072317D01*
X2756341Y-17072317D02*
X2756341Y-17091365D01*
X2756341Y-17091365D02*
X2746817Y-17119936D01*
X2746817Y-17119936D02*
X2632532Y-17234222D01*
X2632532Y-17234222D02*
X2756341Y-17234222D01*
X2880150Y-17034222D02*
X2899198Y-17034222D01*
X2899198Y-17034222D02*
X2918246Y-17043746D01*
X2918246Y-17043746D02*
X2927770Y-17053269D01*
X2927770Y-17053269D02*
X2937293Y-17072317D01*
X2937293Y-17072317D02*
X2946817Y-17110412D01*
X2946817Y-17110412D02*
X2946817Y-17158031D01*
X2946817Y-17158031D02*
X2937293Y-17196127D01*
X2937293Y-17196127D02*
X2927770Y-17215174D01*
X2927770Y-17215174D02*
X2918246Y-17224698D01*
X2918246Y-17224698D02*
X2899198Y-17234222D01*
X2899198Y-17234222D02*
X2880150Y-17234222D01*
X2880150Y-17234222D02*
X2861103Y-17224698D01*
X2861103Y-17224698D02*
X2851579Y-17215174D01*
X2851579Y-17215174D02*
X2842055Y-17196127D01*
X2842055Y-17196127D02*
X2832531Y-17158031D01*
X2832531Y-17158031D02*
X2832531Y-17110412D01*
X2832531Y-17110412D02*
X2842055Y-17072317D01*
X2842055Y-17072317D02*
X2851579Y-17053269D01*
X2851579Y-17053269D02*
X2861103Y-17043746D01*
X2861103Y-17043746D02*
X2880150Y-17034222D01*
X3070627Y-17034222D02*
X3089674Y-17034222D01*
X3089674Y-17034222D02*
X3108722Y-17043746D01*
X3108722Y-17043746D02*
X3118246Y-17053269D01*
X3118246Y-17053269D02*
X3127770Y-17072317D01*
X3127770Y-17072317D02*
X3137293Y-17110412D01*
X3137293Y-17110412D02*
X3137293Y-17158031D01*
X3137293Y-17158031D02*
X3127770Y-17196127D01*
X3127770Y-17196127D02*
X3118246Y-17215174D01*
X3118246Y-17215174D02*
X3108722Y-17224698D01*
X3108722Y-17224698D02*
X3089674Y-17234222D01*
X3089674Y-17234222D02*
X3070627Y-17234222D01*
X3070627Y-17234222D02*
X3051579Y-17224698D01*
X3051579Y-17224698D02*
X3042055Y-17215174D01*
X3042055Y-17215174D02*
X3032531Y-17196127D01*
X3032531Y-17196127D02*
X3023008Y-17158031D01*
X3023008Y-17158031D02*
X3023008Y-17110412D01*
X3023008Y-17110412D02*
X3032531Y-17072317D01*
X3032531Y-17072317D02*
X3042055Y-17053269D01*
X3042055Y-17053269D02*
X3051579Y-17043746D01*
X3051579Y-17043746D02*
X3070627Y-17034222D01*
X3223008Y-17234222D02*
X3223008Y-17100888D01*
X3223008Y-17119936D02*
X3232531Y-17110412D01*
X3232531Y-17110412D02*
X3251579Y-17100888D01*
X3251579Y-17100888D02*
X3280151Y-17100888D01*
X3280151Y-17100888D02*
X3299198Y-17110412D01*
X3299198Y-17110412D02*
X3308722Y-17129460D01*
X3308722Y-17129460D02*
X3308722Y-17234222D01*
X3308722Y-17129460D02*
X3318246Y-17110412D01*
X3318246Y-17110412D02*
X3337293Y-17100888D01*
X3337293Y-17100888D02*
X3365865Y-17100888D01*
X3365865Y-17100888D02*
X3384912Y-17110412D01*
X3384912Y-17110412D02*
X3394436Y-17129460D01*
X3394436Y-17129460D02*
X3394436Y-17234222D01*
X3489674Y-17234222D02*
X3489674Y-17100888D01*
X3489674Y-17119936D02*
X3499198Y-17110412D01*
X3499198Y-17110412D02*
X3518246Y-17100888D01*
X3518246Y-17100888D02*
X3546817Y-17100888D01*
X3546817Y-17100888D02*
X3565865Y-17110412D01*
X3565865Y-17110412D02*
X3575389Y-17129460D01*
X3575389Y-17129460D02*
X3575389Y-17234222D01*
X3575389Y-17129460D02*
X3584912Y-17110412D01*
X3584912Y-17110412D02*
X3603960Y-17100888D01*
X3603960Y-17100888D02*
X3632531Y-17100888D01*
X3632531Y-17100888D02*
X3651579Y-17110412D01*
X3651579Y-17110412D02*
X3661103Y-17129460D01*
X3661103Y-17129460D02*
X3661103Y-17234222D01*
X4051579Y-17024698D02*
X3880151Y-17281841D01*
X4308722Y-17034222D02*
X4327770Y-17034222D01*
X4327770Y-17034222D02*
X4346817Y-17043746D01*
X4346817Y-17043746D02*
X4356341Y-17053269D01*
X4356341Y-17053269D02*
X4365865Y-17072317D01*
X4365865Y-17072317D02*
X4375389Y-17110412D01*
X4375389Y-17110412D02*
X4375389Y-17158031D01*
X4375389Y-17158031D02*
X4365865Y-17196127D01*
X4365865Y-17196127D02*
X4356341Y-17215174D01*
X4356341Y-17215174D02*
X4346817Y-17224698D01*
X4346817Y-17224698D02*
X4327770Y-17234222D01*
X4327770Y-17234222D02*
X4308722Y-17234222D01*
X4308722Y-17234222D02*
X4289675Y-17224698D01*
X4289675Y-17224698D02*
X4280151Y-17215174D01*
X4280151Y-17215174D02*
X4270627Y-17196127D01*
X4270627Y-17196127D02*
X4261103Y-17158031D01*
X4261103Y-17158031D02*
X4261103Y-17110412D01*
X4261103Y-17110412D02*
X4270627Y-17072317D01*
X4270627Y-17072317D02*
X4280151Y-17053269D01*
X4280151Y-17053269D02*
X4289675Y-17043746D01*
X4289675Y-17043746D02*
X4308722Y-17034222D01*
X4461103Y-17215174D02*
X4470627Y-17224698D01*
X4470627Y-17224698D02*
X4461103Y-17234222D01*
X4461103Y-17234222D02*
X4451579Y-17224698D01*
X4451579Y-17224698D02*
X4461103Y-17215174D01*
X4461103Y-17215174D02*
X4461103Y-17234222D01*
X4594436Y-17034222D02*
X4613484Y-17034222D01*
X4613484Y-17034222D02*
X4632532Y-17043746D01*
X4632532Y-17043746D02*
X4642056Y-17053269D01*
X4642056Y-17053269D02*
X4651579Y-17072317D01*
X4651579Y-17072317D02*
X4661103Y-17110412D01*
X4661103Y-17110412D02*
X4661103Y-17158031D01*
X4661103Y-17158031D02*
X4651579Y-17196127D01*
X4651579Y-17196127D02*
X4642056Y-17215174D01*
X4642056Y-17215174D02*
X4632532Y-17224698D01*
X4632532Y-17224698D02*
X4613484Y-17234222D01*
X4613484Y-17234222D02*
X4594436Y-17234222D01*
X4594436Y-17234222D02*
X4575389Y-17224698D01*
X4575389Y-17224698D02*
X4565865Y-17215174D01*
X4565865Y-17215174D02*
X4556341Y-17196127D01*
X4556341Y-17196127D02*
X4546817Y-17158031D01*
X4546817Y-17158031D02*
X4546817Y-17110412D01*
X4546817Y-17110412D02*
X4556341Y-17072317D01*
X4556341Y-17072317D02*
X4565865Y-17053269D01*
X4565865Y-17053269D02*
X4575389Y-17043746D01*
X4575389Y-17043746D02*
X4594436Y-17034222D01*
X4775389Y-17119936D02*
X4756341Y-17110412D01*
X4756341Y-17110412D02*
X4746817Y-17100888D01*
X4746817Y-17100888D02*
X4737294Y-17081841D01*
X4737294Y-17081841D02*
X4737294Y-17072317D01*
X4737294Y-17072317D02*
X4746817Y-17053269D01*
X4746817Y-17053269D02*
X4756341Y-17043746D01*
X4756341Y-17043746D02*
X4775389Y-17034222D01*
X4775389Y-17034222D02*
X4813484Y-17034222D01*
X4813484Y-17034222D02*
X4832532Y-17043746D01*
X4832532Y-17043746D02*
X4842056Y-17053269D01*
X4842056Y-17053269D02*
X4851579Y-17072317D01*
X4851579Y-17072317D02*
X4851579Y-17081841D01*
X4851579Y-17081841D02*
X4842056Y-17100888D01*
X4842056Y-17100888D02*
X4832532Y-17110412D01*
X4832532Y-17110412D02*
X4813484Y-17119936D01*
X4813484Y-17119936D02*
X4775389Y-17119936D01*
X4775389Y-17119936D02*
X4756341Y-17129460D01*
X4756341Y-17129460D02*
X4746817Y-17138984D01*
X4746817Y-17138984D02*
X4737294Y-17158031D01*
X4737294Y-17158031D02*
X4737294Y-17196127D01*
X4737294Y-17196127D02*
X4746817Y-17215174D01*
X4746817Y-17215174D02*
X4756341Y-17224698D01*
X4756341Y-17224698D02*
X4775389Y-17234222D01*
X4775389Y-17234222D02*
X4813484Y-17234222D01*
X4813484Y-17234222D02*
X4832532Y-17224698D01*
X4832532Y-17224698D02*
X4842056Y-17215174D01*
X4842056Y-17215174D02*
X4851579Y-17196127D01*
X4851579Y-17196127D02*
X4851579Y-17158031D01*
X4851579Y-17158031D02*
X4842056Y-17138984D01*
X4842056Y-17138984D02*
X4832532Y-17129460D01*
X4832532Y-17129460D02*
X4813484Y-17119936D01*
X5023008Y-17034222D02*
X4984913Y-17034222D01*
X4984913Y-17034222D02*
X4965865Y-17043746D01*
X4965865Y-17043746D02*
X4956341Y-17053269D01*
X4956341Y-17053269D02*
X4937294Y-17081841D01*
X4937294Y-17081841D02*
X4927770Y-17119936D01*
X4927770Y-17119936D02*
X4927770Y-17196127D01*
X4927770Y-17196127D02*
X4937294Y-17215174D01*
X4937294Y-17215174D02*
X4946817Y-17224698D01*
X4946817Y-17224698D02*
X4965865Y-17234222D01*
X4965865Y-17234222D02*
X5003960Y-17234222D01*
X5003960Y-17234222D02*
X5023008Y-17224698D01*
X5023008Y-17224698D02*
X5032532Y-17215174D01*
X5032532Y-17215174D02*
X5042056Y-17196127D01*
X5042056Y-17196127D02*
X5042056Y-17148508D01*
X5042056Y-17148508D02*
X5032532Y-17129460D01*
X5032532Y-17129460D02*
X5023008Y-17119936D01*
X5023008Y-17119936D02*
X5003960Y-17110412D01*
X5003960Y-17110412D02*
X4965865Y-17110412D01*
X4965865Y-17110412D02*
X4946817Y-17119936D01*
X4946817Y-17119936D02*
X4937294Y-17129460D01*
X4937294Y-17129460D02*
X4927770Y-17148508D01*
X5213484Y-17034222D02*
X5175389Y-17034222D01*
X5175389Y-17034222D02*
X5156341Y-17043746D01*
X5156341Y-17043746D02*
X5146817Y-17053269D01*
X5146817Y-17053269D02*
X5127770Y-17081841D01*
X5127770Y-17081841D02*
X5118246Y-17119936D01*
X5118246Y-17119936D02*
X5118246Y-17196127D01*
X5118246Y-17196127D02*
X5127770Y-17215174D01*
X5127770Y-17215174D02*
X5137294Y-17224698D01*
X5137294Y-17224698D02*
X5156341Y-17234222D01*
X5156341Y-17234222D02*
X5194437Y-17234222D01*
X5194437Y-17234222D02*
X5213484Y-17224698D01*
X5213484Y-17224698D02*
X5223008Y-17215174D01*
X5223008Y-17215174D02*
X5232532Y-17196127D01*
X5232532Y-17196127D02*
X5232532Y-17148508D01*
X5232532Y-17148508D02*
X5223008Y-17129460D01*
X5223008Y-17129460D02*
X5213484Y-17119936D01*
X5213484Y-17119936D02*
X5194437Y-17110412D01*
X5194437Y-17110412D02*
X5156341Y-17110412D01*
X5156341Y-17110412D02*
X5137294Y-17119936D01*
X5137294Y-17119936D02*
X5127770Y-17129460D01*
X5127770Y-17129460D02*
X5118246Y-17148508D01*
X5308722Y-17034222D02*
X5308722Y-17072317D01*
X5384913Y-17034222D02*
X5384913Y-17072317D01*
X5680151Y-17310412D02*
X5670627Y-17300888D01*
X5670627Y-17300888D02*
X5651579Y-17272317D01*
X5651579Y-17272317D02*
X5642056Y-17253269D01*
X5642056Y-17253269D02*
X5632532Y-17224698D01*
X5632532Y-17224698D02*
X5623008Y-17177079D01*
X5623008Y-17177079D02*
X5623008Y-17138984D01*
X5623008Y-17138984D02*
X5632532Y-17091365D01*
X5632532Y-17091365D02*
X5642056Y-17062793D01*
X5642056Y-17062793D02*
X5651579Y-17043746D01*
X5651579Y-17043746D02*
X5670627Y-17015174D01*
X5670627Y-17015174D02*
X5680151Y-17005650D01*
X5842056Y-17034222D02*
X5803960Y-17034222D01*
X5803960Y-17034222D02*
X5784913Y-17043746D01*
X5784913Y-17043746D02*
X5775389Y-17053269D01*
X5775389Y-17053269D02*
X5756341Y-17081841D01*
X5756341Y-17081841D02*
X5746817Y-17119936D01*
X5746817Y-17119936D02*
X5746817Y-17196127D01*
X5746817Y-17196127D02*
X5756341Y-17215174D01*
X5756341Y-17215174D02*
X5765865Y-17224698D01*
X5765865Y-17224698D02*
X5784913Y-17234222D01*
X5784913Y-17234222D02*
X5823008Y-17234222D01*
X5823008Y-17234222D02*
X5842056Y-17224698D01*
X5842056Y-17224698D02*
X5851579Y-17215174D01*
X5851579Y-17215174D02*
X5861103Y-17196127D01*
X5861103Y-17196127D02*
X5861103Y-17148508D01*
X5861103Y-17148508D02*
X5851579Y-17129460D01*
X5851579Y-17129460D02*
X5842056Y-17119936D01*
X5842056Y-17119936D02*
X5823008Y-17110412D01*
X5823008Y-17110412D02*
X5784913Y-17110412D01*
X5784913Y-17110412D02*
X5765865Y-17119936D01*
X5765865Y-17119936D02*
X5756341Y-17129460D01*
X5756341Y-17129460D02*
X5746817Y-17148508D01*
X6099198Y-17234222D02*
X6099198Y-17034222D01*
X6184913Y-17234222D02*
X6184913Y-17129460D01*
X6184913Y-17129460D02*
X6175389Y-17110412D01*
X6175389Y-17110412D02*
X6156341Y-17100888D01*
X6156341Y-17100888D02*
X6127770Y-17100888D01*
X6127770Y-17100888D02*
X6108722Y-17110412D01*
X6108722Y-17110412D02*
X6099198Y-17119936D01*
X6308722Y-17234222D02*
X6289675Y-17224698D01*
X6289675Y-17224698D02*
X6280151Y-17215174D01*
X6280151Y-17215174D02*
X6270627Y-17196127D01*
X6270627Y-17196127D02*
X6270627Y-17138984D01*
X6270627Y-17138984D02*
X6280151Y-17119936D01*
X6280151Y-17119936D02*
X6289675Y-17110412D01*
X6289675Y-17110412D02*
X6308722Y-17100888D01*
X6308722Y-17100888D02*
X6337294Y-17100888D01*
X6337294Y-17100888D02*
X6356341Y-17110412D01*
X6356341Y-17110412D02*
X6365865Y-17119936D01*
X6365865Y-17119936D02*
X6375389Y-17138984D01*
X6375389Y-17138984D02*
X6375389Y-17196127D01*
X6375389Y-17196127D02*
X6365865Y-17215174D01*
X6365865Y-17215174D02*
X6356341Y-17224698D01*
X6356341Y-17224698D02*
X6337294Y-17234222D01*
X6337294Y-17234222D02*
X6308722Y-17234222D01*
X6489675Y-17234222D02*
X6470627Y-17224698D01*
X6470627Y-17224698D02*
X6461103Y-17205650D01*
X6461103Y-17205650D02*
X6461103Y-17034222D01*
X6642056Y-17224698D02*
X6623008Y-17234222D01*
X6623008Y-17234222D02*
X6584913Y-17234222D01*
X6584913Y-17234222D02*
X6565865Y-17224698D01*
X6565865Y-17224698D02*
X6556341Y-17205650D01*
X6556341Y-17205650D02*
X6556341Y-17129460D01*
X6556341Y-17129460D02*
X6565865Y-17110412D01*
X6565865Y-17110412D02*
X6584913Y-17100888D01*
X6584913Y-17100888D02*
X6623008Y-17100888D01*
X6623008Y-17100888D02*
X6642056Y-17110412D01*
X6642056Y-17110412D02*
X6651579Y-17129460D01*
X6651579Y-17129460D02*
X6651579Y-17148508D01*
X6651579Y-17148508D02*
X6556341Y-17167555D01*
X6727770Y-17224698D02*
X6746818Y-17234222D01*
X6746818Y-17234222D02*
X6784913Y-17234222D01*
X6784913Y-17234222D02*
X6803960Y-17224698D01*
X6803960Y-17224698D02*
X6813484Y-17205650D01*
X6813484Y-17205650D02*
X6813484Y-17196127D01*
X6813484Y-17196127D02*
X6803960Y-17177079D01*
X6803960Y-17177079D02*
X6784913Y-17167555D01*
X6784913Y-17167555D02*
X6756341Y-17167555D01*
X6756341Y-17167555D02*
X6737294Y-17158031D01*
X6737294Y-17158031D02*
X6727770Y-17138984D01*
X6727770Y-17138984D02*
X6727770Y-17129460D01*
X6727770Y-17129460D02*
X6737294Y-17110412D01*
X6737294Y-17110412D02*
X6756341Y-17100888D01*
X6756341Y-17100888D02*
X6784913Y-17100888D01*
X6784913Y-17100888D02*
X6803960Y-17110412D01*
X6880151Y-17310412D02*
X6889675Y-17300888D01*
X6889675Y-17300888D02*
X6908722Y-17272317D01*
X6908722Y-17272317D02*
X6918246Y-17253269D01*
X6918246Y-17253269D02*
X6927770Y-17224698D01*
X6927770Y-17224698D02*
X6937294Y-17177079D01*
X6937294Y-17177079D02*
X6937294Y-17138984D01*
X6937294Y-17138984D02*
X6927770Y-17091365D01*
X6927770Y-17091365D02*
X6918246Y-17062793D01*
X6918246Y-17062793D02*
X6908722Y-17043746D01*
X6908722Y-17043746D02*
X6889675Y-17015174D01*
X6889675Y-17015174D02*
X6880151Y-17005650D01*
M02*
