M48
; DRILL file {KiCad 7.0.2-0} date 2023 September 16, Saturday 16:43:01
; FORMAT={-:-/ absolute / metric / decimal}
; #@! TF.CreationDate,2023-09-16T16:43:01+01:00
; #@! TF.GenerationSoftware,Kicad,Pcbnew,7.0.2-0
; #@! TF.FileFunction,Plated,1,2,PTH
FMAT,2
METRIC
; #@! TA.AperFunction,Plated,PTH,ViaDrill
T1C0.400
; #@! TA.AperFunction,Plated,PTH,ComponentDrill
T2C0.900
; #@! TA.AperFunction,Plated,PTH,ComponentDrill
T3C1.000
; #@! TA.AperFunction,Plated,PTH,ComponentDrill
T4C1.200
; #@! TA.AperFunction,Plated,PTH,ComponentDrill
T5C2.200
%
G90
G05
T1
X85.27Y-102.909
X89.942Y-83.155
X97.08Y-87.425
X101.67Y-89.612
X108.13Y-85.392
X109.247Y-97.117
X117.584Y-86.629
X154.099Y-110.517
X154.099Y-118.908
X157.782Y-99.526
X158.517Y-98.849
X159.309Y-98.238
X160.073Y-97.594
X160.798Y-96.85
X168.185Y-100.935
X179.52Y-87.217
X180.322Y-90.212
X181.554Y-91.331
X187.26Y-90.216
X195.679Y-119.05
X197.737Y-93.0
X198.954Y-97.539
T2
X142.125Y-135.86
X143.35Y-138.25
X143.35Y-140.79
X143.35Y-143.33
X143.35Y-145.87
X143.975Y-135.86
T3
X141.369Y-74.718
X141.369Y-77.258
X141.369Y-79.798
X141.369Y-82.338
X141.369Y-84.878
X141.369Y-87.418
X141.369Y-89.958
X141.369Y-92.498
X141.369Y-95.038
X143.909Y-95.038
X146.449Y-95.038
X146.498Y-111.338
X146.498Y-113.878
X146.498Y-116.418
X146.498Y-118.958
X148.989Y-95.038
X151.529Y-95.038
X154.069Y-95.038
X156.609Y-74.718
X156.609Y-77.258
X156.609Y-79.798
X156.609Y-82.338
X156.609Y-84.878
X156.609Y-87.418
X156.609Y-89.958
X156.609Y-92.498
X156.609Y-95.038
T4
X33.177Y-72.494
X37.035Y-52.644
X37.684Y-75.509
X41.543Y-55.66
X51.791Y-84.295
X56.19Y-87.465
X56.304Y-64.743
X60.704Y-67.914
X60.837Y-45.111
X65.236Y-48.282
X73.374Y-82.461
X77.66Y-85.783
X78.574Y-63.054
X82.86Y-66.377
X83.799Y-43.549
X88.086Y-46.872
X91.26Y-93.827
X95.546Y-97.15
X96.404Y-127.628
X96.519Y-74.2
X100.117Y-131.58
X100.805Y-77.522
X101.757Y-54.653
X106.043Y-57.976
X113.386Y-89.764
X115.734Y-136.851
X117.672Y-93.086
X118.578Y-70.381
X119.089Y-141.111
X122.864Y-73.704
X173.439Y-141.638
X178.83Y-141.051
X179.514Y-70.381
X184.708Y-89.764
X184.887Y-71.116
X190.081Y-90.498
X192.38Y-131.634
X196.337Y-54.653
X197.802Y-131.519
X201.575Y-74.2
X201.71Y-55.388
X206.834Y-93.827
X206.948Y-74.934
X212.207Y-94.562
X214.294Y-43.549
X219.52Y-63.054
X219.667Y-44.284
X224.72Y-82.461
X224.893Y-63.788
X230.093Y-83.195
X237.257Y-45.111
X241.79Y-64.743
X242.601Y-46.032
X246.303Y-84.295
X247.134Y-65.664
X251.648Y-85.216
X261.059Y-52.644
X264.917Y-72.494
X266.368Y-53.752
X270.226Y-73.601
T5
X64.815Y-75.81
X129.985Y-121.34
X129.995Y-83.37
X167.985Y-83.36
X167.995Y-121.35
X233.285Y-75.82
T0
M30
