%TF.GenerationSoftware,KiCad,Pcbnew,7.0.2-0*%
%TF.CreationDate,2023-09-16T16:43:01+01:00*%
%TF.ProjectId,buteo-mx,62757465-6f2d-46d7-982e-6b696361645f,0.0.1*%
%TF.SameCoordinates,Original*%
%TF.FileFunction,Drillmap*%
%TF.FilePolarity,Positive*%
%FSLAX45Y45*%
G04 Gerber Fmt 4.5, Leading zero omitted, Abs format (unit mm)*
G04 Created by KiCad (PCBNEW 7.0.2-0) date 2023-09-16 16:43:01*
%MOMM*%
%LPD*%
G01*
G04 APERTURE LIST*
%ADD10C,0.100000*%
%ADD11C,0.200000*%
%ADD12C,0.150000*%
%ADD13C,0.190000*%
%ADD14C,0.345000*%
G04 APERTURE END LIST*
D10*
X7501985Y-3951422D02*
X7501985Y-3951422D01*
G75*
G02*
X7746926Y-3810019I193175J-51768D01*
G01*
X9200770Y-4199554D01*
G75*
G02*
X9342187Y-4444529I-51730J-193166D01*
G01*
X9340362Y-4451340D01*
G75*
G03*
X9622920Y-4941214I386348J-103580D01*
G01*
X10996230Y-5310227D01*
G75*
G02*
X11137536Y-5555064I-51910J-193153D01*
G01*
X11012522Y-6022346D01*
G75*
G03*
X11295285Y-6512062I386408J-103384D01*
G01*
X12655474Y-6876977D01*
X14149377Y-7254079D01*
G75*
G02*
X14300427Y-7447996I-48947J-193921D01*
G01*
X14300427Y-9149608D01*
G75*
G03*
X14500428Y-9349608I200003J8D01*
G01*
X15294228Y-9349608D01*
G75*
G03*
X15494228Y-9149608I-8J200008D01*
G01*
X15494227Y-7448297D01*
G75*
G02*
X15645640Y-7254288I200013J-13D01*
G01*
X17156169Y-6875995D01*
X18514047Y-6512015D01*
G75*
G03*
X18796858Y-6022143I-103567J386365D01*
G01*
X18671671Y-5554859D01*
G75*
G02*
X18813048Y-5309930I193189J51759D01*
G01*
X20186387Y-4941598D01*
G75*
G03*
X20469233Y-4452075I-103617J386348D01*
G01*
X20467163Y-4444323D01*
G75*
G02*
X20608645Y-4199546I193207J51603D01*
G01*
X22062521Y-3810083D01*
G75*
G02*
X22307433Y-3951420I51739J-193207D01*
G01*
X22337354Y-4062882D01*
G75*
G03*
X22813485Y-4348967I386336J103722D01*
G01*
X24377589Y-3988594D01*
G75*
G02*
X24617371Y-4138511I44931J-194846D01*
G01*
X24761563Y-4763263D01*
G75*
G03*
X25227570Y-5065974I389767J89973D01*
G01*
X26775169Y-4765441D01*
G75*
G02*
X27009616Y-4923593I38121J-196340D01*
G01*
X27682778Y-8385024D01*
G75*
G02*
X27524645Y-8619524I-196318J-38176D01*
G01*
X26138925Y-8889083D01*
G75*
G03*
X25825547Y-9371669I76365J-392627D01*
G01*
X25860536Y-9523283D01*
G75*
G02*
X25710615Y-9763138I-194906J-44957D01*
G01*
X24244299Y-10101399D01*
G75*
G02*
X24004441Y-9951389I-44969J194869D01*
G01*
X23984820Y-9866168D01*
G75*
G03*
X23491467Y-9569549I-389810J-89752D01*
G01*
X22224746Y-9909049D01*
G75*
G03*
X21941847Y-10398641I103554J-386362D01*
G01*
X21951071Y-10433174D01*
G75*
G02*
X21809692Y-10677952I-193241J-51606D01*
G01*
X21638374Y-10723934D01*
X21074147Y-10874980D01*
G75*
G03*
X20418866Y-12246954I258593J-965980D01*
G01*
X20656092Y-12780946D01*
X20714944Y-12913604D01*
G75*
G02*
X20613682Y-13177326I-182814J-81106D01*
G01*
X19223111Y-13798336D01*
G75*
G03*
X18750921Y-14034656I2446819J-5478894D01*
G01*
X17225861Y-14883799D01*
G75*
G02*
X12566181Y-14889931I-2335923J4619160D01*
G01*
X11021766Y-14030746D01*
G75*
G03*
X10548814Y-13794297I-2916986J-5243404D01*
G01*
X9177077Y-13182499D01*
G75*
G02*
X9075842Y-12918475I81463J182659D01*
G01*
X9138009Y-12778888D01*
X9376095Y-12243697D01*
G75*
G03*
X8721423Y-10871362I-913667J406459D01*
G01*
X8156323Y-10719832D01*
X7999941Y-10677891D01*
G75*
G02*
X7858476Y-10433667I51229J192761D01*
G01*
X7867700Y-10399134D01*
G75*
G03*
X7584801Y-9909541I-386452J103228D01*
G01*
X6344689Y-9576858D01*
X6317911Y-9569708D01*
G75*
G03*
X5825012Y-9866017I-103187J-386467D01*
G01*
X5805144Y-9951899D01*
G75*
G02*
X5565297Y-10101697I-194864J45099D01*
G01*
X4098908Y-9763134D01*
G75*
G02*
X3949025Y-9523275I44972J194864D01*
G01*
X3983950Y-9371983D01*
G75*
G03*
X3670798Y-8889417I-389735J89980D01*
G01*
X2285146Y-8619064D01*
G75*
G02*
X2127116Y-8384625I38315J196304D01*
G01*
X2799536Y-4923260D01*
G75*
G02*
X3034018Y-4765072I196329J-38139D01*
G01*
X4582259Y-5065946D01*
G75*
G03*
X5048340Y-4763150I76301J392656D01*
G01*
X5192320Y-4138618D01*
G75*
G02*
X5432238Y-3988683I194890J-44932D01*
G01*
X6995456Y-4349913D01*
G75*
G03*
X7471875Y-4063748I90054J389743D01*
G01*
X7501985Y-3951422D01*
D11*
D12*
X14260000Y-14761000D02*
X14410000Y-14911000D01*
X14410000Y-14761000D02*
X14260000Y-14911000D01*
D13*
X2760211Y-7723606D02*
G75*
G03*
X2760211Y-7723606I-95000J0D01*
G01*
X3146046Y-5738655D02*
G75*
G03*
X3146046Y-5738655I-95000J0D01*
G01*
X3840001Y-7933495D02*
G75*
G03*
X3840001Y-7933495I-95000J0D01*
G01*
X4225836Y-5948545D02*
G75*
G03*
X4225836Y-5948545I-95000J0D01*
G01*
X4605427Y-8880607D02*
G75*
G03*
X4605427Y-8880607I-95000J0D01*
G01*
X5056814Y-6925436D02*
G75*
G03*
X5056814Y-6925436I-95000J0D01*
G01*
X5510055Y-4962231D02*
G75*
G03*
X5510055Y-4962231I-95000J0D01*
G01*
X5677234Y-9128053D02*
G75*
G03*
X5677234Y-9128053I-95000J0D01*
G01*
X6128620Y-7172882D02*
G75*
G03*
X6128620Y-7172882I-95000J0D01*
G01*
X6581862Y-5209677D02*
G75*
G03*
X6581862Y-5209677I-95000J0D01*
G01*
X6748440Y-8673641D02*
G75*
G03*
X6748440Y-8673641I-95000J0D01*
G01*
X7268443Y-6732961D02*
G75*
G03*
X7268443Y-6732961I-95000J0D01*
G01*
X7790977Y-4782467D02*
G75*
G03*
X7790977Y-4782467I-95000J0D01*
G01*
X7810958Y-8958342D02*
G75*
G03*
X7810958Y-8958342I-95000J0D01*
G01*
X8330962Y-7017662D02*
G75*
G03*
X8330962Y-7017662I-95000J0D01*
G01*
X8537037Y-9810295D02*
G75*
G03*
X8537037Y-9810295I-95000J0D01*
G01*
X8853495Y-5067168D02*
G75*
G03*
X8853495Y-5067168I-95000J0D01*
G01*
X9062957Y-7847533D02*
G75*
G03*
X9062957Y-7847533I-95000J0D01*
G01*
X9586703Y-5892886D02*
G75*
G03*
X9586703Y-5892886I-95000J0D01*
G01*
X9599556Y-10094996D02*
G75*
G03*
X9599556Y-10094996I-95000J0D01*
G01*
X9844249Y-12395278D02*
G75*
G03*
X9844249Y-12395278I-95000J0D01*
G01*
X10125476Y-8132234D02*
G75*
G03*
X10125476Y-8132234I-95000J0D01*
G01*
X10649222Y-6177587D02*
G75*
G03*
X10649222Y-6177587I-95000J0D01*
G01*
X10749611Y-9403903D02*
G75*
G03*
X10749611Y-9403903I-95000J0D01*
G01*
X10849149Y-12842688D02*
G75*
G03*
X10849149Y-12842688I-95000J0D01*
G01*
X11268857Y-7465677D02*
G75*
G03*
X11268857Y-7465677I-95000J0D01*
G01*
X11808901Y-13328469D02*
G75*
G03*
X11808901Y-13328469I-95000J0D01*
G01*
X11812129Y-9688604D02*
G75*
G03*
X11812129Y-9688604I-95000J0D01*
G01*
X12331375Y-7750378D02*
G75*
G03*
X12331375Y-7750378I-95000J0D01*
G01*
X12770982Y-13861759D02*
G75*
G03*
X12770982Y-13861759I-95000J0D01*
G01*
X17210914Y-13855708D02*
G75*
G03*
X17210914Y-13855708I-95000J0D01*
G01*
X17667819Y-7750378D02*
G75*
G03*
X17667819Y-7750378I-95000J0D01*
G01*
X18172996Y-13322417D02*
G75*
G03*
X18172996Y-13322417I-95000J0D01*
G01*
X18187265Y-9688604D02*
G75*
G03*
X18187265Y-9688604I-95000J0D01*
G01*
X18730337Y-7465677D02*
G75*
G03*
X18730337Y-7465677I-95000J0D01*
G01*
X19132747Y-12836636D02*
G75*
G03*
X19132747Y-12836636I-95000J0D01*
G01*
X19249784Y-9403903D02*
G75*
G03*
X19249784Y-9403903I-95000J0D01*
G01*
X19350172Y-6177587D02*
G75*
G03*
X19350172Y-6177587I-95000J0D01*
G01*
X19873919Y-8132234D02*
G75*
G03*
X19873919Y-8132234I-95000J0D01*
G01*
X20137647Y-12389225D02*
G75*
G03*
X20137647Y-12389225I-95000J0D01*
G01*
X20399839Y-10094995D02*
G75*
G03*
X20399839Y-10094995I-95000J0D01*
G01*
X20412691Y-5892886D02*
G75*
G03*
X20412691Y-5892886I-95000J0D01*
G01*
X20936437Y-7847533D02*
G75*
G03*
X20936437Y-7847533I-95000J0D01*
G01*
X21145799Y-5067168D02*
G75*
G03*
X21145799Y-5067168I-95000J0D01*
G01*
X21462357Y-9810294D02*
G75*
G03*
X21462357Y-9810294I-95000J0D01*
G01*
X21668433Y-7017662D02*
G75*
G03*
X21668433Y-7017662I-95000J0D01*
G01*
X22188436Y-8958342D02*
G75*
G03*
X22188436Y-8958342I-95000J0D01*
G01*
X22208317Y-4782467D02*
G75*
G03*
X22208317Y-4782467I-95000J0D01*
G01*
X22730951Y-6732961D02*
G75*
G03*
X22730951Y-6732961I-95000J0D01*
G01*
X23250954Y-8673641D02*
G75*
G03*
X23250954Y-8673641I-95000J0D01*
G01*
X23417532Y-5209677D02*
G75*
G03*
X23417532Y-5209677I-95000J0D01*
G01*
X23870774Y-7172882D02*
G75*
G03*
X23870774Y-7172882I-95000J0D01*
G01*
X24322161Y-9128053D02*
G75*
G03*
X24322161Y-9128053I-95000J0D01*
G01*
X24489339Y-4962231D02*
G75*
G03*
X24489339Y-4962231I-95000J0D01*
G01*
X24942581Y-6925436D02*
G75*
G03*
X24942581Y-6925436I-95000J0D01*
G01*
X25393968Y-8880607D02*
G75*
G03*
X25393968Y-8880607I-95000J0D01*
G01*
X25773558Y-5948546D02*
G75*
G03*
X25773558Y-5948546I-95000J0D01*
G01*
X26159393Y-7933496D02*
G75*
G03*
X26159393Y-7933496I-95000J0D01*
G01*
X26853348Y-5738656D02*
G75*
G03*
X26853348Y-5738656I-95000J0D01*
G01*
X27239183Y-7723606D02*
G75*
G03*
X27239183Y-7723606I-95000J0D01*
G01*
D14*
X3205106Y-7656051D02*
X3205106Y-8001051D01*
X3032606Y-7828551D02*
X3377606Y-7828551D01*
X3590941Y-5671100D02*
X3590941Y-6016100D01*
X3418441Y-5843600D02*
X3763441Y-5843600D01*
X5046330Y-8831830D02*
X5046330Y-9176830D01*
X4873830Y-9004330D02*
X5218830Y-9004330D01*
X5497717Y-6876659D02*
X5497717Y-7221659D01*
X5325217Y-7049159D02*
X5670217Y-7049159D01*
X5950958Y-4913454D02*
X5950958Y-5258454D01*
X5778458Y-5085954D02*
X6123458Y-5085954D01*
X7184699Y-8643492D02*
X7184699Y-8988492D01*
X7012199Y-8815992D02*
X7357199Y-8815992D01*
X7704702Y-6702811D02*
X7704702Y-7047811D01*
X7532202Y-6875311D02*
X7877202Y-6875311D01*
X8227236Y-4752318D02*
X8227236Y-5097318D01*
X8054736Y-4924818D02*
X8399736Y-4924818D01*
X8973297Y-9780145D02*
X8973297Y-10125145D01*
X8800797Y-9952645D02*
X9145797Y-9952645D01*
X9499217Y-7817384D02*
X9499217Y-8162384D01*
X9326717Y-7989884D02*
X9671717Y-7989884D01*
X10022963Y-5862736D02*
X10022963Y-6207736D01*
X9850463Y-6035236D02*
X10195463Y-6035236D01*
X10251699Y-12446483D02*
X10251699Y-12791483D01*
X10079199Y-12618983D02*
X10424199Y-12618983D01*
X11185870Y-9373753D02*
X11185870Y-9718753D01*
X11013370Y-9546253D02*
X11358370Y-9546253D01*
X11705116Y-7435527D02*
X11705116Y-7780527D01*
X11532616Y-7608027D02*
X11877616Y-7608027D01*
X12194942Y-13422614D02*
X12194942Y-13767614D01*
X12022442Y-13595114D02*
X12367442Y-13595114D01*
X17596955Y-13416563D02*
X17596955Y-13761563D01*
X17424455Y-13589063D02*
X17769455Y-13589063D01*
X18104078Y-7435527D02*
X18104078Y-7780527D01*
X17931578Y-7608027D02*
X18276578Y-7608027D01*
X18623525Y-9373754D02*
X18623525Y-9718754D01*
X18451025Y-9546254D02*
X18796025Y-9546254D01*
X19540197Y-12440431D02*
X19540197Y-12785431D01*
X19367697Y-12612931D02*
X19712697Y-12612931D01*
X19786432Y-5862736D02*
X19786432Y-6207736D01*
X19613932Y-6035236D02*
X19958932Y-6035236D01*
X20310178Y-7817384D02*
X20310178Y-8162384D01*
X20137678Y-7989884D02*
X20482678Y-7989884D01*
X20836098Y-9780145D02*
X20836098Y-10125145D01*
X20663598Y-9952645D02*
X21008598Y-9952645D01*
X21582058Y-4752317D02*
X21582058Y-5097317D01*
X21409558Y-4924817D02*
X21754558Y-4924817D01*
X22104692Y-6702811D02*
X22104692Y-7047811D01*
X21932192Y-6875311D02*
X22277192Y-6875311D01*
X22624695Y-8643492D02*
X22624695Y-8988492D01*
X22452195Y-8815992D02*
X22797195Y-8815992D01*
X23858436Y-4913454D02*
X23858436Y-5258454D01*
X23685936Y-5085954D02*
X24030936Y-5085954D01*
X24311677Y-6876659D02*
X24311677Y-7221659D01*
X24139177Y-7049159D02*
X24484177Y-7049159D01*
X24763064Y-8831830D02*
X24763064Y-9176830D01*
X24590564Y-9004330D02*
X24935564Y-9004330D01*
X26218453Y-5671101D02*
X26218453Y-6016101D01*
X26045953Y-5843601D02*
X26390953Y-5843601D01*
X26604288Y-7656051D02*
X26604288Y-8001051D01*
X26431788Y-7828551D02*
X26776788Y-7828551D01*
D11*
X2365865Y-15758222D02*
X2365865Y-15558222D01*
X2365865Y-15558222D02*
X2413484Y-15558222D01*
X2413484Y-15558222D02*
X2442055Y-15567746D01*
X2442055Y-15567746D02*
X2461103Y-15586793D01*
X2461103Y-15586793D02*
X2470627Y-15605841D01*
X2470627Y-15605841D02*
X2480151Y-15643936D01*
X2480151Y-15643936D02*
X2480151Y-15672507D01*
X2480151Y-15672507D02*
X2470627Y-15710603D01*
X2470627Y-15710603D02*
X2461103Y-15729650D01*
X2461103Y-15729650D02*
X2442055Y-15748698D01*
X2442055Y-15748698D02*
X2413484Y-15758222D01*
X2413484Y-15758222D02*
X2365865Y-15758222D01*
X2565865Y-15758222D02*
X2565865Y-15624888D01*
X2565865Y-15662984D02*
X2575389Y-15643936D01*
X2575389Y-15643936D02*
X2584912Y-15634412D01*
X2584912Y-15634412D02*
X2603960Y-15624888D01*
X2603960Y-15624888D02*
X2623008Y-15624888D01*
X2689674Y-15758222D02*
X2689674Y-15624888D01*
X2689674Y-15558222D02*
X2680151Y-15567746D01*
X2680151Y-15567746D02*
X2689674Y-15577269D01*
X2689674Y-15577269D02*
X2699198Y-15567746D01*
X2699198Y-15567746D02*
X2689674Y-15558222D01*
X2689674Y-15558222D02*
X2689674Y-15577269D01*
X2813484Y-15758222D02*
X2794436Y-15748698D01*
X2794436Y-15748698D02*
X2784912Y-15729650D01*
X2784912Y-15729650D02*
X2784912Y-15558222D01*
X2918246Y-15758222D02*
X2899198Y-15748698D01*
X2899198Y-15748698D02*
X2889674Y-15729650D01*
X2889674Y-15729650D02*
X2889674Y-15558222D01*
X3146817Y-15758222D02*
X3146817Y-15558222D01*
X3146817Y-15558222D02*
X3213484Y-15701079D01*
X3213484Y-15701079D02*
X3280150Y-15558222D01*
X3280150Y-15558222D02*
X3280150Y-15758222D01*
X3461103Y-15758222D02*
X3461103Y-15653460D01*
X3461103Y-15653460D02*
X3451579Y-15634412D01*
X3451579Y-15634412D02*
X3432531Y-15624888D01*
X3432531Y-15624888D02*
X3394436Y-15624888D01*
X3394436Y-15624888D02*
X3375389Y-15634412D01*
X3461103Y-15748698D02*
X3442055Y-15758222D01*
X3442055Y-15758222D02*
X3394436Y-15758222D01*
X3394436Y-15758222D02*
X3375389Y-15748698D01*
X3375389Y-15748698D02*
X3365865Y-15729650D01*
X3365865Y-15729650D02*
X3365865Y-15710603D01*
X3365865Y-15710603D02*
X3375389Y-15691555D01*
X3375389Y-15691555D02*
X3394436Y-15682031D01*
X3394436Y-15682031D02*
X3442055Y-15682031D01*
X3442055Y-15682031D02*
X3461103Y-15672507D01*
X3556341Y-15624888D02*
X3556341Y-15824888D01*
X3556341Y-15634412D02*
X3575389Y-15624888D01*
X3575389Y-15624888D02*
X3613484Y-15624888D01*
X3613484Y-15624888D02*
X3632531Y-15634412D01*
X3632531Y-15634412D02*
X3642055Y-15643936D01*
X3642055Y-15643936D02*
X3651579Y-15662984D01*
X3651579Y-15662984D02*
X3651579Y-15720126D01*
X3651579Y-15720126D02*
X3642055Y-15739174D01*
X3642055Y-15739174D02*
X3632531Y-15748698D01*
X3632531Y-15748698D02*
X3613484Y-15758222D01*
X3613484Y-15758222D02*
X3575389Y-15758222D01*
X3575389Y-15758222D02*
X3556341Y-15748698D01*
X3737293Y-15739174D02*
X3746817Y-15748698D01*
X3746817Y-15748698D02*
X3737293Y-15758222D01*
X3737293Y-15758222D02*
X3727770Y-15748698D01*
X3727770Y-15748698D02*
X3737293Y-15739174D01*
X3737293Y-15739174D02*
X3737293Y-15758222D01*
X3737293Y-15634412D02*
X3746817Y-15643936D01*
X3746817Y-15643936D02*
X3737293Y-15653460D01*
X3737293Y-15653460D02*
X3727770Y-15643936D01*
X3727770Y-15643936D02*
X3737293Y-15634412D01*
X3737293Y-15634412D02*
X3737293Y-15653460D01*
D12*
X1968246Y-16010698D02*
X2118246Y-16160698D01*
X2118246Y-16010698D02*
X1968246Y-16160698D01*
D11*
X2470627Y-16178222D02*
X2356341Y-16178222D01*
X2413484Y-16178222D02*
X2413484Y-15978222D01*
X2413484Y-15978222D02*
X2394436Y-16006793D01*
X2394436Y-16006793D02*
X2375389Y-16025841D01*
X2375389Y-16025841D02*
X2356341Y-16035365D01*
X2556341Y-16159174D02*
X2565865Y-16168698D01*
X2565865Y-16168698D02*
X2556341Y-16178222D01*
X2556341Y-16178222D02*
X2546817Y-16168698D01*
X2546817Y-16168698D02*
X2556341Y-16159174D01*
X2556341Y-16159174D02*
X2556341Y-16178222D01*
X2746817Y-15978222D02*
X2651579Y-15978222D01*
X2651579Y-15978222D02*
X2642055Y-16073460D01*
X2642055Y-16073460D02*
X2651579Y-16063936D01*
X2651579Y-16063936D02*
X2670627Y-16054412D01*
X2670627Y-16054412D02*
X2718246Y-16054412D01*
X2718246Y-16054412D02*
X2737293Y-16063936D01*
X2737293Y-16063936D02*
X2746817Y-16073460D01*
X2746817Y-16073460D02*
X2756341Y-16092507D01*
X2756341Y-16092507D02*
X2756341Y-16140126D01*
X2756341Y-16140126D02*
X2746817Y-16159174D01*
X2746817Y-16159174D02*
X2737293Y-16168698D01*
X2737293Y-16168698D02*
X2718246Y-16178222D01*
X2718246Y-16178222D02*
X2670627Y-16178222D01*
X2670627Y-16178222D02*
X2651579Y-16168698D01*
X2651579Y-16168698D02*
X2642055Y-16159174D01*
X2880150Y-15978222D02*
X2899198Y-15978222D01*
X2899198Y-15978222D02*
X2918246Y-15987746D01*
X2918246Y-15987746D02*
X2927770Y-15997269D01*
X2927770Y-15997269D02*
X2937293Y-16016317D01*
X2937293Y-16016317D02*
X2946817Y-16054412D01*
X2946817Y-16054412D02*
X2946817Y-16102031D01*
X2946817Y-16102031D02*
X2937293Y-16140126D01*
X2937293Y-16140126D02*
X2927770Y-16159174D01*
X2927770Y-16159174D02*
X2918246Y-16168698D01*
X2918246Y-16168698D02*
X2899198Y-16178222D01*
X2899198Y-16178222D02*
X2880150Y-16178222D01*
X2880150Y-16178222D02*
X2861103Y-16168698D01*
X2861103Y-16168698D02*
X2851579Y-16159174D01*
X2851579Y-16159174D02*
X2842055Y-16140126D01*
X2842055Y-16140126D02*
X2832531Y-16102031D01*
X2832531Y-16102031D02*
X2832531Y-16054412D01*
X2832531Y-16054412D02*
X2842055Y-16016317D01*
X2842055Y-16016317D02*
X2851579Y-15997269D01*
X2851579Y-15997269D02*
X2861103Y-15987746D01*
X2861103Y-15987746D02*
X2880150Y-15978222D01*
X3070627Y-15978222D02*
X3089674Y-15978222D01*
X3089674Y-15978222D02*
X3108722Y-15987746D01*
X3108722Y-15987746D02*
X3118246Y-15997269D01*
X3118246Y-15997269D02*
X3127770Y-16016317D01*
X3127770Y-16016317D02*
X3137293Y-16054412D01*
X3137293Y-16054412D02*
X3137293Y-16102031D01*
X3137293Y-16102031D02*
X3127770Y-16140126D01*
X3127770Y-16140126D02*
X3118246Y-16159174D01*
X3118246Y-16159174D02*
X3108722Y-16168698D01*
X3108722Y-16168698D02*
X3089674Y-16178222D01*
X3089674Y-16178222D02*
X3070627Y-16178222D01*
X3070627Y-16178222D02*
X3051579Y-16168698D01*
X3051579Y-16168698D02*
X3042055Y-16159174D01*
X3042055Y-16159174D02*
X3032531Y-16140126D01*
X3032531Y-16140126D02*
X3023008Y-16102031D01*
X3023008Y-16102031D02*
X3023008Y-16054412D01*
X3023008Y-16054412D02*
X3032531Y-16016317D01*
X3032531Y-16016317D02*
X3042055Y-15997269D01*
X3042055Y-15997269D02*
X3051579Y-15987746D01*
X3051579Y-15987746D02*
X3070627Y-15978222D01*
X3223008Y-16178222D02*
X3223008Y-16044888D01*
X3223008Y-16063936D02*
X3232531Y-16054412D01*
X3232531Y-16054412D02*
X3251579Y-16044888D01*
X3251579Y-16044888D02*
X3280151Y-16044888D01*
X3280151Y-16044888D02*
X3299198Y-16054412D01*
X3299198Y-16054412D02*
X3308722Y-16073460D01*
X3308722Y-16073460D02*
X3308722Y-16178222D01*
X3308722Y-16073460D02*
X3318246Y-16054412D01*
X3318246Y-16054412D02*
X3337293Y-16044888D01*
X3337293Y-16044888D02*
X3365865Y-16044888D01*
X3365865Y-16044888D02*
X3384912Y-16054412D01*
X3384912Y-16054412D02*
X3394436Y-16073460D01*
X3394436Y-16073460D02*
X3394436Y-16178222D01*
X3489674Y-16178222D02*
X3489674Y-16044888D01*
X3489674Y-16063936D02*
X3499198Y-16054412D01*
X3499198Y-16054412D02*
X3518246Y-16044888D01*
X3518246Y-16044888D02*
X3546817Y-16044888D01*
X3546817Y-16044888D02*
X3565865Y-16054412D01*
X3565865Y-16054412D02*
X3575389Y-16073460D01*
X3575389Y-16073460D02*
X3575389Y-16178222D01*
X3575389Y-16073460D02*
X3584912Y-16054412D01*
X3584912Y-16054412D02*
X3603960Y-16044888D01*
X3603960Y-16044888D02*
X3632531Y-16044888D01*
X3632531Y-16044888D02*
X3651579Y-16054412D01*
X3651579Y-16054412D02*
X3661103Y-16073460D01*
X3661103Y-16073460D02*
X3661103Y-16178222D01*
X4051579Y-15968698D02*
X3880151Y-16225841D01*
X4308722Y-15978222D02*
X4327770Y-15978222D01*
X4327770Y-15978222D02*
X4346817Y-15987746D01*
X4346817Y-15987746D02*
X4356341Y-15997269D01*
X4356341Y-15997269D02*
X4365865Y-16016317D01*
X4365865Y-16016317D02*
X4375389Y-16054412D01*
X4375389Y-16054412D02*
X4375389Y-16102031D01*
X4375389Y-16102031D02*
X4365865Y-16140126D01*
X4365865Y-16140126D02*
X4356341Y-16159174D01*
X4356341Y-16159174D02*
X4346817Y-16168698D01*
X4346817Y-16168698D02*
X4327770Y-16178222D01*
X4327770Y-16178222D02*
X4308722Y-16178222D01*
X4308722Y-16178222D02*
X4289675Y-16168698D01*
X4289675Y-16168698D02*
X4280151Y-16159174D01*
X4280151Y-16159174D02*
X4270627Y-16140126D01*
X4270627Y-16140126D02*
X4261103Y-16102031D01*
X4261103Y-16102031D02*
X4261103Y-16054412D01*
X4261103Y-16054412D02*
X4270627Y-16016317D01*
X4270627Y-16016317D02*
X4280151Y-15997269D01*
X4280151Y-15997269D02*
X4289675Y-15987746D01*
X4289675Y-15987746D02*
X4308722Y-15978222D01*
X4461103Y-16159174D02*
X4470627Y-16168698D01*
X4470627Y-16168698D02*
X4461103Y-16178222D01*
X4461103Y-16178222D02*
X4451579Y-16168698D01*
X4451579Y-16168698D02*
X4461103Y-16159174D01*
X4461103Y-16159174D02*
X4461103Y-16178222D01*
X4594436Y-15978222D02*
X4613484Y-15978222D01*
X4613484Y-15978222D02*
X4632532Y-15987746D01*
X4632532Y-15987746D02*
X4642056Y-15997269D01*
X4642056Y-15997269D02*
X4651579Y-16016317D01*
X4651579Y-16016317D02*
X4661103Y-16054412D01*
X4661103Y-16054412D02*
X4661103Y-16102031D01*
X4661103Y-16102031D02*
X4651579Y-16140126D01*
X4651579Y-16140126D02*
X4642056Y-16159174D01*
X4642056Y-16159174D02*
X4632532Y-16168698D01*
X4632532Y-16168698D02*
X4613484Y-16178222D01*
X4613484Y-16178222D02*
X4594436Y-16178222D01*
X4594436Y-16178222D02*
X4575389Y-16168698D01*
X4575389Y-16168698D02*
X4565865Y-16159174D01*
X4565865Y-16159174D02*
X4556341Y-16140126D01*
X4556341Y-16140126D02*
X4546817Y-16102031D01*
X4546817Y-16102031D02*
X4546817Y-16054412D01*
X4546817Y-16054412D02*
X4556341Y-16016317D01*
X4556341Y-16016317D02*
X4565865Y-15997269D01*
X4565865Y-15997269D02*
X4575389Y-15987746D01*
X4575389Y-15987746D02*
X4594436Y-15978222D01*
X4842056Y-15978222D02*
X4746817Y-15978222D01*
X4746817Y-15978222D02*
X4737294Y-16073460D01*
X4737294Y-16073460D02*
X4746817Y-16063936D01*
X4746817Y-16063936D02*
X4765865Y-16054412D01*
X4765865Y-16054412D02*
X4813484Y-16054412D01*
X4813484Y-16054412D02*
X4832532Y-16063936D01*
X4832532Y-16063936D02*
X4842056Y-16073460D01*
X4842056Y-16073460D02*
X4851579Y-16092507D01*
X4851579Y-16092507D02*
X4851579Y-16140126D01*
X4851579Y-16140126D02*
X4842056Y-16159174D01*
X4842056Y-16159174D02*
X4832532Y-16168698D01*
X4832532Y-16168698D02*
X4813484Y-16178222D01*
X4813484Y-16178222D02*
X4765865Y-16178222D01*
X4765865Y-16178222D02*
X4746817Y-16168698D01*
X4746817Y-16168698D02*
X4737294Y-16159174D01*
X4946817Y-16178222D02*
X4984913Y-16178222D01*
X4984913Y-16178222D02*
X5003960Y-16168698D01*
X5003960Y-16168698D02*
X5013484Y-16159174D01*
X5013484Y-16159174D02*
X5032532Y-16130603D01*
X5032532Y-16130603D02*
X5042056Y-16092507D01*
X5042056Y-16092507D02*
X5042056Y-16016317D01*
X5042056Y-16016317D02*
X5032532Y-15997269D01*
X5032532Y-15997269D02*
X5023008Y-15987746D01*
X5023008Y-15987746D02*
X5003960Y-15978222D01*
X5003960Y-15978222D02*
X4965865Y-15978222D01*
X4965865Y-15978222D02*
X4946817Y-15987746D01*
X4946817Y-15987746D02*
X4937294Y-15997269D01*
X4937294Y-15997269D02*
X4927770Y-16016317D01*
X4927770Y-16016317D02*
X4927770Y-16063936D01*
X4927770Y-16063936D02*
X4937294Y-16082984D01*
X4937294Y-16082984D02*
X4946817Y-16092507D01*
X4946817Y-16092507D02*
X4965865Y-16102031D01*
X4965865Y-16102031D02*
X5003960Y-16102031D01*
X5003960Y-16102031D02*
X5023008Y-16092507D01*
X5023008Y-16092507D02*
X5032532Y-16082984D01*
X5032532Y-16082984D02*
X5042056Y-16063936D01*
X5232532Y-16178222D02*
X5118246Y-16178222D01*
X5175389Y-16178222D02*
X5175389Y-15978222D01*
X5175389Y-15978222D02*
X5156341Y-16006793D01*
X5156341Y-16006793D02*
X5137294Y-16025841D01*
X5137294Y-16025841D02*
X5118246Y-16035365D01*
X5308722Y-15978222D02*
X5308722Y-16016317D01*
X5384913Y-15978222D02*
X5384913Y-16016317D01*
X5680151Y-16254412D02*
X5670627Y-16244888D01*
X5670627Y-16244888D02*
X5651579Y-16216317D01*
X5651579Y-16216317D02*
X5642056Y-16197269D01*
X5642056Y-16197269D02*
X5632532Y-16168698D01*
X5632532Y-16168698D02*
X5623008Y-16121079D01*
X5623008Y-16121079D02*
X5623008Y-16082984D01*
X5623008Y-16082984D02*
X5632532Y-16035365D01*
X5632532Y-16035365D02*
X5642056Y-16006793D01*
X5642056Y-16006793D02*
X5651579Y-15987746D01*
X5651579Y-15987746D02*
X5670627Y-15959174D01*
X5670627Y-15959174D02*
X5680151Y-15949650D01*
X5861103Y-16178222D02*
X5746817Y-16178222D01*
X5803960Y-16178222D02*
X5803960Y-15978222D01*
X5803960Y-15978222D02*
X5784913Y-16006793D01*
X5784913Y-16006793D02*
X5765865Y-16025841D01*
X5765865Y-16025841D02*
X5746817Y-16035365D01*
X6099198Y-16178222D02*
X6099198Y-15978222D01*
X6184913Y-16178222D02*
X6184913Y-16073460D01*
X6184913Y-16073460D02*
X6175389Y-16054412D01*
X6175389Y-16054412D02*
X6156341Y-16044888D01*
X6156341Y-16044888D02*
X6127770Y-16044888D01*
X6127770Y-16044888D02*
X6108722Y-16054412D01*
X6108722Y-16054412D02*
X6099198Y-16063936D01*
X6308722Y-16178222D02*
X6289675Y-16168698D01*
X6289675Y-16168698D02*
X6280151Y-16159174D01*
X6280151Y-16159174D02*
X6270627Y-16140126D01*
X6270627Y-16140126D02*
X6270627Y-16082984D01*
X6270627Y-16082984D02*
X6280151Y-16063936D01*
X6280151Y-16063936D02*
X6289675Y-16054412D01*
X6289675Y-16054412D02*
X6308722Y-16044888D01*
X6308722Y-16044888D02*
X6337294Y-16044888D01*
X6337294Y-16044888D02*
X6356341Y-16054412D01*
X6356341Y-16054412D02*
X6365865Y-16063936D01*
X6365865Y-16063936D02*
X6375389Y-16082984D01*
X6375389Y-16082984D02*
X6375389Y-16140126D01*
X6375389Y-16140126D02*
X6365865Y-16159174D01*
X6365865Y-16159174D02*
X6356341Y-16168698D01*
X6356341Y-16168698D02*
X6337294Y-16178222D01*
X6337294Y-16178222D02*
X6308722Y-16178222D01*
X6489675Y-16178222D02*
X6470627Y-16168698D01*
X6470627Y-16168698D02*
X6461103Y-16149650D01*
X6461103Y-16149650D02*
X6461103Y-15978222D01*
X6642056Y-16168698D02*
X6623008Y-16178222D01*
X6623008Y-16178222D02*
X6584913Y-16178222D01*
X6584913Y-16178222D02*
X6565865Y-16168698D01*
X6565865Y-16168698D02*
X6556341Y-16149650D01*
X6556341Y-16149650D02*
X6556341Y-16073460D01*
X6556341Y-16073460D02*
X6565865Y-16054412D01*
X6565865Y-16054412D02*
X6584913Y-16044888D01*
X6584913Y-16044888D02*
X6623008Y-16044888D01*
X6623008Y-16044888D02*
X6642056Y-16054412D01*
X6642056Y-16054412D02*
X6651579Y-16073460D01*
X6651579Y-16073460D02*
X6651579Y-16092507D01*
X6651579Y-16092507D02*
X6556341Y-16111555D01*
X6718246Y-16254412D02*
X6727770Y-16244888D01*
X6727770Y-16244888D02*
X6746818Y-16216317D01*
X6746818Y-16216317D02*
X6756341Y-16197269D01*
X6756341Y-16197269D02*
X6765865Y-16168698D01*
X6765865Y-16168698D02*
X6775389Y-16121079D01*
X6775389Y-16121079D02*
X6775389Y-16082984D01*
X6775389Y-16082984D02*
X6765865Y-16035365D01*
X6765865Y-16035365D02*
X6756341Y-16006793D01*
X6756341Y-16006793D02*
X6746818Y-15987746D01*
X6746818Y-15987746D02*
X6727770Y-15959174D01*
X6727770Y-15959174D02*
X6718246Y-15949650D01*
X7080151Y-16254412D02*
X7070627Y-16244888D01*
X7070627Y-16244888D02*
X7051579Y-16216317D01*
X7051579Y-16216317D02*
X7042056Y-16197269D01*
X7042056Y-16197269D02*
X7032532Y-16168698D01*
X7032532Y-16168698D02*
X7023008Y-16121079D01*
X7023008Y-16121079D02*
X7023008Y-16082984D01*
X7023008Y-16082984D02*
X7032532Y-16035365D01*
X7032532Y-16035365D02*
X7042056Y-16006793D01*
X7042056Y-16006793D02*
X7051579Y-15987746D01*
X7051579Y-15987746D02*
X7070627Y-15959174D01*
X7070627Y-15959174D02*
X7080151Y-15949650D01*
X7156341Y-16044888D02*
X7156341Y-16178222D01*
X7156341Y-16063936D02*
X7165865Y-16054412D01*
X7165865Y-16054412D02*
X7184913Y-16044888D01*
X7184913Y-16044888D02*
X7213484Y-16044888D01*
X7213484Y-16044888D02*
X7232532Y-16054412D01*
X7232532Y-16054412D02*
X7242056Y-16073460D01*
X7242056Y-16073460D02*
X7242056Y-16178222D01*
X7365865Y-16178222D02*
X7346818Y-16168698D01*
X7346818Y-16168698D02*
X7337294Y-16159174D01*
X7337294Y-16159174D02*
X7327770Y-16140126D01*
X7327770Y-16140126D02*
X7327770Y-16082984D01*
X7327770Y-16082984D02*
X7337294Y-16063936D01*
X7337294Y-16063936D02*
X7346818Y-16054412D01*
X7346818Y-16054412D02*
X7365865Y-16044888D01*
X7365865Y-16044888D02*
X7394437Y-16044888D01*
X7394437Y-16044888D02*
X7413484Y-16054412D01*
X7413484Y-16054412D02*
X7423008Y-16063936D01*
X7423008Y-16063936D02*
X7432532Y-16082984D01*
X7432532Y-16082984D02*
X7432532Y-16140126D01*
X7432532Y-16140126D02*
X7423008Y-16159174D01*
X7423008Y-16159174D02*
X7413484Y-16168698D01*
X7413484Y-16168698D02*
X7394437Y-16178222D01*
X7394437Y-16178222D02*
X7365865Y-16178222D01*
X7489675Y-16044888D02*
X7565865Y-16044888D01*
X7518246Y-15978222D02*
X7518246Y-16149650D01*
X7518246Y-16149650D02*
X7527770Y-16168698D01*
X7527770Y-16168698D02*
X7546818Y-16178222D01*
X7546818Y-16178222D02*
X7565865Y-16178222D01*
X7784913Y-16044888D02*
X7784913Y-16244888D01*
X7784913Y-16054412D02*
X7803960Y-16044888D01*
X7803960Y-16044888D02*
X7842056Y-16044888D01*
X7842056Y-16044888D02*
X7861103Y-16054412D01*
X7861103Y-16054412D02*
X7870627Y-16063936D01*
X7870627Y-16063936D02*
X7880151Y-16082984D01*
X7880151Y-16082984D02*
X7880151Y-16140126D01*
X7880151Y-16140126D02*
X7870627Y-16159174D01*
X7870627Y-16159174D02*
X7861103Y-16168698D01*
X7861103Y-16168698D02*
X7842056Y-16178222D01*
X7842056Y-16178222D02*
X7803960Y-16178222D01*
X7803960Y-16178222D02*
X7784913Y-16168698D01*
X7994437Y-16178222D02*
X7975389Y-16168698D01*
X7975389Y-16168698D02*
X7965865Y-16149650D01*
X7965865Y-16149650D02*
X7965865Y-15978222D01*
X8156341Y-16178222D02*
X8156341Y-16073460D01*
X8156341Y-16073460D02*
X8146818Y-16054412D01*
X8146818Y-16054412D02*
X8127770Y-16044888D01*
X8127770Y-16044888D02*
X8089675Y-16044888D01*
X8089675Y-16044888D02*
X8070627Y-16054412D01*
X8156341Y-16168698D02*
X8137294Y-16178222D01*
X8137294Y-16178222D02*
X8089675Y-16178222D01*
X8089675Y-16178222D02*
X8070627Y-16168698D01*
X8070627Y-16168698D02*
X8061103Y-16149650D01*
X8061103Y-16149650D02*
X8061103Y-16130603D01*
X8061103Y-16130603D02*
X8070627Y-16111555D01*
X8070627Y-16111555D02*
X8089675Y-16102031D01*
X8089675Y-16102031D02*
X8137294Y-16102031D01*
X8137294Y-16102031D02*
X8156341Y-16092507D01*
X8223008Y-16044888D02*
X8299199Y-16044888D01*
X8251580Y-15978222D02*
X8251580Y-16149650D01*
X8251580Y-16149650D02*
X8261103Y-16168698D01*
X8261103Y-16168698D02*
X8280151Y-16178222D01*
X8280151Y-16178222D02*
X8299199Y-16178222D01*
X8442056Y-16168698D02*
X8423008Y-16178222D01*
X8423008Y-16178222D02*
X8384913Y-16178222D01*
X8384913Y-16178222D02*
X8365865Y-16168698D01*
X8365865Y-16168698D02*
X8356341Y-16149650D01*
X8356341Y-16149650D02*
X8356341Y-16073460D01*
X8356341Y-16073460D02*
X8365865Y-16054412D01*
X8365865Y-16054412D02*
X8384913Y-16044888D01*
X8384913Y-16044888D02*
X8423008Y-16044888D01*
X8423008Y-16044888D02*
X8442056Y-16054412D01*
X8442056Y-16054412D02*
X8451580Y-16073460D01*
X8451580Y-16073460D02*
X8451580Y-16092507D01*
X8451580Y-16092507D02*
X8356341Y-16111555D01*
X8623008Y-16178222D02*
X8623008Y-15978222D01*
X8623008Y-16168698D02*
X8603961Y-16178222D01*
X8603961Y-16178222D02*
X8565865Y-16178222D01*
X8565865Y-16178222D02*
X8546818Y-16168698D01*
X8546818Y-16168698D02*
X8537294Y-16159174D01*
X8537294Y-16159174D02*
X8527770Y-16140126D01*
X8527770Y-16140126D02*
X8527770Y-16082984D01*
X8527770Y-16082984D02*
X8537294Y-16063936D01*
X8537294Y-16063936D02*
X8546818Y-16054412D01*
X8546818Y-16054412D02*
X8565865Y-16044888D01*
X8565865Y-16044888D02*
X8603961Y-16044888D01*
X8603961Y-16044888D02*
X8623008Y-16054412D01*
X8699199Y-16254412D02*
X8708723Y-16244888D01*
X8708723Y-16244888D02*
X8727770Y-16216317D01*
X8727770Y-16216317D02*
X8737294Y-16197269D01*
X8737294Y-16197269D02*
X8746818Y-16168698D01*
X8746818Y-16168698D02*
X8756342Y-16121079D01*
X8756342Y-16121079D02*
X8756342Y-16082984D01*
X8756342Y-16082984D02*
X8746818Y-16035365D01*
X8746818Y-16035365D02*
X8737294Y-16006793D01*
X8737294Y-16006793D02*
X8727770Y-15987746D01*
X8727770Y-15987746D02*
X8708723Y-15959174D01*
X8708723Y-15959174D02*
X8699199Y-15949650D01*
D13*
X2118246Y-16355698D02*
G75*
G03*
X2118246Y-16355698I-95000J0D01*
G01*
D11*
X2470627Y-16448222D02*
X2356341Y-16448222D01*
X2413484Y-16448222D02*
X2413484Y-16248222D01*
X2413484Y-16248222D02*
X2394436Y-16276793D01*
X2394436Y-16276793D02*
X2375389Y-16295841D01*
X2375389Y-16295841D02*
X2356341Y-16305365D01*
X2556341Y-16429174D02*
X2565865Y-16438698D01*
X2565865Y-16438698D02*
X2556341Y-16448222D01*
X2556341Y-16448222D02*
X2546817Y-16438698D01*
X2546817Y-16438698D02*
X2556341Y-16429174D01*
X2556341Y-16429174D02*
X2556341Y-16448222D01*
X2661103Y-16448222D02*
X2699198Y-16448222D01*
X2699198Y-16448222D02*
X2718246Y-16438698D01*
X2718246Y-16438698D02*
X2727770Y-16429174D01*
X2727770Y-16429174D02*
X2746817Y-16400603D01*
X2746817Y-16400603D02*
X2756341Y-16362507D01*
X2756341Y-16362507D02*
X2756341Y-16286317D01*
X2756341Y-16286317D02*
X2746817Y-16267269D01*
X2746817Y-16267269D02*
X2737293Y-16257746D01*
X2737293Y-16257746D02*
X2718246Y-16248222D01*
X2718246Y-16248222D02*
X2680151Y-16248222D01*
X2680151Y-16248222D02*
X2661103Y-16257746D01*
X2661103Y-16257746D02*
X2651579Y-16267269D01*
X2651579Y-16267269D02*
X2642055Y-16286317D01*
X2642055Y-16286317D02*
X2642055Y-16333936D01*
X2642055Y-16333936D02*
X2651579Y-16352984D01*
X2651579Y-16352984D02*
X2661103Y-16362507D01*
X2661103Y-16362507D02*
X2680151Y-16372031D01*
X2680151Y-16372031D02*
X2718246Y-16372031D01*
X2718246Y-16372031D02*
X2737293Y-16362507D01*
X2737293Y-16362507D02*
X2746817Y-16352984D01*
X2746817Y-16352984D02*
X2756341Y-16333936D01*
X2880150Y-16248222D02*
X2899198Y-16248222D01*
X2899198Y-16248222D02*
X2918246Y-16257746D01*
X2918246Y-16257746D02*
X2927770Y-16267269D01*
X2927770Y-16267269D02*
X2937293Y-16286317D01*
X2937293Y-16286317D02*
X2946817Y-16324412D01*
X2946817Y-16324412D02*
X2946817Y-16372031D01*
X2946817Y-16372031D02*
X2937293Y-16410126D01*
X2937293Y-16410126D02*
X2927770Y-16429174D01*
X2927770Y-16429174D02*
X2918246Y-16438698D01*
X2918246Y-16438698D02*
X2899198Y-16448222D01*
X2899198Y-16448222D02*
X2880150Y-16448222D01*
X2880150Y-16448222D02*
X2861103Y-16438698D01*
X2861103Y-16438698D02*
X2851579Y-16429174D01*
X2851579Y-16429174D02*
X2842055Y-16410126D01*
X2842055Y-16410126D02*
X2832531Y-16372031D01*
X2832531Y-16372031D02*
X2832531Y-16324412D01*
X2832531Y-16324412D02*
X2842055Y-16286317D01*
X2842055Y-16286317D02*
X2851579Y-16267269D01*
X2851579Y-16267269D02*
X2861103Y-16257746D01*
X2861103Y-16257746D02*
X2880150Y-16248222D01*
X3070627Y-16248222D02*
X3089674Y-16248222D01*
X3089674Y-16248222D02*
X3108722Y-16257746D01*
X3108722Y-16257746D02*
X3118246Y-16267269D01*
X3118246Y-16267269D02*
X3127770Y-16286317D01*
X3127770Y-16286317D02*
X3137293Y-16324412D01*
X3137293Y-16324412D02*
X3137293Y-16372031D01*
X3137293Y-16372031D02*
X3127770Y-16410126D01*
X3127770Y-16410126D02*
X3118246Y-16429174D01*
X3118246Y-16429174D02*
X3108722Y-16438698D01*
X3108722Y-16438698D02*
X3089674Y-16448222D01*
X3089674Y-16448222D02*
X3070627Y-16448222D01*
X3070627Y-16448222D02*
X3051579Y-16438698D01*
X3051579Y-16438698D02*
X3042055Y-16429174D01*
X3042055Y-16429174D02*
X3032531Y-16410126D01*
X3032531Y-16410126D02*
X3023008Y-16372031D01*
X3023008Y-16372031D02*
X3023008Y-16324412D01*
X3023008Y-16324412D02*
X3032531Y-16286317D01*
X3032531Y-16286317D02*
X3042055Y-16267269D01*
X3042055Y-16267269D02*
X3051579Y-16257746D01*
X3051579Y-16257746D02*
X3070627Y-16248222D01*
X3223008Y-16448222D02*
X3223008Y-16314888D01*
X3223008Y-16333936D02*
X3232531Y-16324412D01*
X3232531Y-16324412D02*
X3251579Y-16314888D01*
X3251579Y-16314888D02*
X3280151Y-16314888D01*
X3280151Y-16314888D02*
X3299198Y-16324412D01*
X3299198Y-16324412D02*
X3308722Y-16343460D01*
X3308722Y-16343460D02*
X3308722Y-16448222D01*
X3308722Y-16343460D02*
X3318246Y-16324412D01*
X3318246Y-16324412D02*
X3337293Y-16314888D01*
X3337293Y-16314888D02*
X3365865Y-16314888D01*
X3365865Y-16314888D02*
X3384912Y-16324412D01*
X3384912Y-16324412D02*
X3394436Y-16343460D01*
X3394436Y-16343460D02*
X3394436Y-16448222D01*
X3489674Y-16448222D02*
X3489674Y-16314888D01*
X3489674Y-16333936D02*
X3499198Y-16324412D01*
X3499198Y-16324412D02*
X3518246Y-16314888D01*
X3518246Y-16314888D02*
X3546817Y-16314888D01*
X3546817Y-16314888D02*
X3565865Y-16324412D01*
X3565865Y-16324412D02*
X3575389Y-16343460D01*
X3575389Y-16343460D02*
X3575389Y-16448222D01*
X3575389Y-16343460D02*
X3584912Y-16324412D01*
X3584912Y-16324412D02*
X3603960Y-16314888D01*
X3603960Y-16314888D02*
X3632531Y-16314888D01*
X3632531Y-16314888D02*
X3651579Y-16324412D01*
X3651579Y-16324412D02*
X3661103Y-16343460D01*
X3661103Y-16343460D02*
X3661103Y-16448222D01*
X4051579Y-16238698D02*
X3880151Y-16495841D01*
X4308722Y-16248222D02*
X4327770Y-16248222D01*
X4327770Y-16248222D02*
X4346817Y-16257746D01*
X4346817Y-16257746D02*
X4356341Y-16267269D01*
X4356341Y-16267269D02*
X4365865Y-16286317D01*
X4365865Y-16286317D02*
X4375389Y-16324412D01*
X4375389Y-16324412D02*
X4375389Y-16372031D01*
X4375389Y-16372031D02*
X4365865Y-16410126D01*
X4365865Y-16410126D02*
X4356341Y-16429174D01*
X4356341Y-16429174D02*
X4346817Y-16438698D01*
X4346817Y-16438698D02*
X4327770Y-16448222D01*
X4327770Y-16448222D02*
X4308722Y-16448222D01*
X4308722Y-16448222D02*
X4289675Y-16438698D01*
X4289675Y-16438698D02*
X4280151Y-16429174D01*
X4280151Y-16429174D02*
X4270627Y-16410126D01*
X4270627Y-16410126D02*
X4261103Y-16372031D01*
X4261103Y-16372031D02*
X4261103Y-16324412D01*
X4261103Y-16324412D02*
X4270627Y-16286317D01*
X4270627Y-16286317D02*
X4280151Y-16267269D01*
X4280151Y-16267269D02*
X4289675Y-16257746D01*
X4289675Y-16257746D02*
X4308722Y-16248222D01*
X4461103Y-16429174D02*
X4470627Y-16438698D01*
X4470627Y-16438698D02*
X4461103Y-16448222D01*
X4461103Y-16448222D02*
X4451579Y-16438698D01*
X4451579Y-16438698D02*
X4461103Y-16429174D01*
X4461103Y-16429174D02*
X4461103Y-16448222D01*
X4594436Y-16248222D02*
X4613484Y-16248222D01*
X4613484Y-16248222D02*
X4632532Y-16257746D01*
X4632532Y-16257746D02*
X4642056Y-16267269D01*
X4642056Y-16267269D02*
X4651579Y-16286317D01*
X4651579Y-16286317D02*
X4661103Y-16324412D01*
X4661103Y-16324412D02*
X4661103Y-16372031D01*
X4661103Y-16372031D02*
X4651579Y-16410126D01*
X4651579Y-16410126D02*
X4642056Y-16429174D01*
X4642056Y-16429174D02*
X4632532Y-16438698D01*
X4632532Y-16438698D02*
X4613484Y-16448222D01*
X4613484Y-16448222D02*
X4594436Y-16448222D01*
X4594436Y-16448222D02*
X4575389Y-16438698D01*
X4575389Y-16438698D02*
X4565865Y-16429174D01*
X4565865Y-16429174D02*
X4556341Y-16410126D01*
X4556341Y-16410126D02*
X4546817Y-16372031D01*
X4546817Y-16372031D02*
X4546817Y-16324412D01*
X4546817Y-16324412D02*
X4556341Y-16286317D01*
X4556341Y-16286317D02*
X4565865Y-16267269D01*
X4565865Y-16267269D02*
X4575389Y-16257746D01*
X4575389Y-16257746D02*
X4594436Y-16248222D01*
X4727770Y-16248222D02*
X4861103Y-16248222D01*
X4861103Y-16248222D02*
X4775389Y-16448222D01*
X5023008Y-16314888D02*
X5023008Y-16448222D01*
X4975389Y-16238698D02*
X4927770Y-16381555D01*
X4927770Y-16381555D02*
X5051579Y-16381555D01*
X5156341Y-16333936D02*
X5137294Y-16324412D01*
X5137294Y-16324412D02*
X5127770Y-16314888D01*
X5127770Y-16314888D02*
X5118246Y-16295841D01*
X5118246Y-16295841D02*
X5118246Y-16286317D01*
X5118246Y-16286317D02*
X5127770Y-16267269D01*
X5127770Y-16267269D02*
X5137294Y-16257746D01*
X5137294Y-16257746D02*
X5156341Y-16248222D01*
X5156341Y-16248222D02*
X5194437Y-16248222D01*
X5194437Y-16248222D02*
X5213484Y-16257746D01*
X5213484Y-16257746D02*
X5223008Y-16267269D01*
X5223008Y-16267269D02*
X5232532Y-16286317D01*
X5232532Y-16286317D02*
X5232532Y-16295841D01*
X5232532Y-16295841D02*
X5223008Y-16314888D01*
X5223008Y-16314888D02*
X5213484Y-16324412D01*
X5213484Y-16324412D02*
X5194437Y-16333936D01*
X5194437Y-16333936D02*
X5156341Y-16333936D01*
X5156341Y-16333936D02*
X5137294Y-16343460D01*
X5137294Y-16343460D02*
X5127770Y-16352984D01*
X5127770Y-16352984D02*
X5118246Y-16372031D01*
X5118246Y-16372031D02*
X5118246Y-16410126D01*
X5118246Y-16410126D02*
X5127770Y-16429174D01*
X5127770Y-16429174D02*
X5137294Y-16438698D01*
X5137294Y-16438698D02*
X5156341Y-16448222D01*
X5156341Y-16448222D02*
X5194437Y-16448222D01*
X5194437Y-16448222D02*
X5213484Y-16438698D01*
X5213484Y-16438698D02*
X5223008Y-16429174D01*
X5223008Y-16429174D02*
X5232532Y-16410126D01*
X5232532Y-16410126D02*
X5232532Y-16372031D01*
X5232532Y-16372031D02*
X5223008Y-16352984D01*
X5223008Y-16352984D02*
X5213484Y-16343460D01*
X5213484Y-16343460D02*
X5194437Y-16333936D01*
X5308722Y-16248222D02*
X5308722Y-16286317D01*
X5384913Y-16248222D02*
X5384913Y-16286317D01*
X5680151Y-16524412D02*
X5670627Y-16514888D01*
X5670627Y-16514888D02*
X5651579Y-16486317D01*
X5651579Y-16486317D02*
X5642056Y-16467269D01*
X5642056Y-16467269D02*
X5632532Y-16438698D01*
X5632532Y-16438698D02*
X5623008Y-16391079D01*
X5623008Y-16391079D02*
X5623008Y-16352984D01*
X5623008Y-16352984D02*
X5632532Y-16305365D01*
X5632532Y-16305365D02*
X5642056Y-16276793D01*
X5642056Y-16276793D02*
X5651579Y-16257746D01*
X5651579Y-16257746D02*
X5670627Y-16229174D01*
X5670627Y-16229174D02*
X5680151Y-16219650D01*
X5842056Y-16248222D02*
X5803960Y-16248222D01*
X5803960Y-16248222D02*
X5784913Y-16257746D01*
X5784913Y-16257746D02*
X5775389Y-16267269D01*
X5775389Y-16267269D02*
X5756341Y-16295841D01*
X5756341Y-16295841D02*
X5746817Y-16333936D01*
X5746817Y-16333936D02*
X5746817Y-16410126D01*
X5746817Y-16410126D02*
X5756341Y-16429174D01*
X5756341Y-16429174D02*
X5765865Y-16438698D01*
X5765865Y-16438698D02*
X5784913Y-16448222D01*
X5784913Y-16448222D02*
X5823008Y-16448222D01*
X5823008Y-16448222D02*
X5842056Y-16438698D01*
X5842056Y-16438698D02*
X5851579Y-16429174D01*
X5851579Y-16429174D02*
X5861103Y-16410126D01*
X5861103Y-16410126D02*
X5861103Y-16362507D01*
X5861103Y-16362507D02*
X5851579Y-16343460D01*
X5851579Y-16343460D02*
X5842056Y-16333936D01*
X5842056Y-16333936D02*
X5823008Y-16324412D01*
X5823008Y-16324412D02*
X5784913Y-16324412D01*
X5784913Y-16324412D02*
X5765865Y-16333936D01*
X5765865Y-16333936D02*
X5756341Y-16343460D01*
X5756341Y-16343460D02*
X5746817Y-16362507D01*
X5984913Y-16248222D02*
X6003960Y-16248222D01*
X6003960Y-16248222D02*
X6023008Y-16257746D01*
X6023008Y-16257746D02*
X6032532Y-16267269D01*
X6032532Y-16267269D02*
X6042056Y-16286317D01*
X6042056Y-16286317D02*
X6051579Y-16324412D01*
X6051579Y-16324412D02*
X6051579Y-16372031D01*
X6051579Y-16372031D02*
X6042056Y-16410126D01*
X6042056Y-16410126D02*
X6032532Y-16429174D01*
X6032532Y-16429174D02*
X6023008Y-16438698D01*
X6023008Y-16438698D02*
X6003960Y-16448222D01*
X6003960Y-16448222D02*
X5984913Y-16448222D01*
X5984913Y-16448222D02*
X5965865Y-16438698D01*
X5965865Y-16438698D02*
X5956341Y-16429174D01*
X5956341Y-16429174D02*
X5946817Y-16410126D01*
X5946817Y-16410126D02*
X5937294Y-16372031D01*
X5937294Y-16372031D02*
X5937294Y-16324412D01*
X5937294Y-16324412D02*
X5946817Y-16286317D01*
X5946817Y-16286317D02*
X5956341Y-16267269D01*
X5956341Y-16267269D02*
X5965865Y-16257746D01*
X5965865Y-16257746D02*
X5984913Y-16248222D01*
X6289675Y-16448222D02*
X6289675Y-16248222D01*
X6375389Y-16448222D02*
X6375389Y-16343460D01*
X6375389Y-16343460D02*
X6365865Y-16324412D01*
X6365865Y-16324412D02*
X6346818Y-16314888D01*
X6346818Y-16314888D02*
X6318246Y-16314888D01*
X6318246Y-16314888D02*
X6299198Y-16324412D01*
X6299198Y-16324412D02*
X6289675Y-16333936D01*
X6499198Y-16448222D02*
X6480151Y-16438698D01*
X6480151Y-16438698D02*
X6470627Y-16429174D01*
X6470627Y-16429174D02*
X6461103Y-16410126D01*
X6461103Y-16410126D02*
X6461103Y-16352984D01*
X6461103Y-16352984D02*
X6470627Y-16333936D01*
X6470627Y-16333936D02*
X6480151Y-16324412D01*
X6480151Y-16324412D02*
X6499198Y-16314888D01*
X6499198Y-16314888D02*
X6527770Y-16314888D01*
X6527770Y-16314888D02*
X6546818Y-16324412D01*
X6546818Y-16324412D02*
X6556341Y-16333936D01*
X6556341Y-16333936D02*
X6565865Y-16352984D01*
X6565865Y-16352984D02*
X6565865Y-16410126D01*
X6565865Y-16410126D02*
X6556341Y-16429174D01*
X6556341Y-16429174D02*
X6546818Y-16438698D01*
X6546818Y-16438698D02*
X6527770Y-16448222D01*
X6527770Y-16448222D02*
X6499198Y-16448222D01*
X6680151Y-16448222D02*
X6661103Y-16438698D01*
X6661103Y-16438698D02*
X6651579Y-16419650D01*
X6651579Y-16419650D02*
X6651579Y-16248222D01*
X6832532Y-16438698D02*
X6813484Y-16448222D01*
X6813484Y-16448222D02*
X6775389Y-16448222D01*
X6775389Y-16448222D02*
X6756341Y-16438698D01*
X6756341Y-16438698D02*
X6746818Y-16419650D01*
X6746818Y-16419650D02*
X6746818Y-16343460D01*
X6746818Y-16343460D02*
X6756341Y-16324412D01*
X6756341Y-16324412D02*
X6775389Y-16314888D01*
X6775389Y-16314888D02*
X6813484Y-16314888D01*
X6813484Y-16314888D02*
X6832532Y-16324412D01*
X6832532Y-16324412D02*
X6842056Y-16343460D01*
X6842056Y-16343460D02*
X6842056Y-16362507D01*
X6842056Y-16362507D02*
X6746818Y-16381555D01*
X6918246Y-16438698D02*
X6937294Y-16448222D01*
X6937294Y-16448222D02*
X6975389Y-16448222D01*
X6975389Y-16448222D02*
X6994437Y-16438698D01*
X6994437Y-16438698D02*
X7003960Y-16419650D01*
X7003960Y-16419650D02*
X7003960Y-16410126D01*
X7003960Y-16410126D02*
X6994437Y-16391079D01*
X6994437Y-16391079D02*
X6975389Y-16381555D01*
X6975389Y-16381555D02*
X6946818Y-16381555D01*
X6946818Y-16381555D02*
X6927770Y-16372031D01*
X6927770Y-16372031D02*
X6918246Y-16352984D01*
X6918246Y-16352984D02*
X6918246Y-16343460D01*
X6918246Y-16343460D02*
X6927770Y-16324412D01*
X6927770Y-16324412D02*
X6946818Y-16314888D01*
X6946818Y-16314888D02*
X6975389Y-16314888D01*
X6975389Y-16314888D02*
X6994437Y-16324412D01*
X7070627Y-16524412D02*
X7080151Y-16514888D01*
X7080151Y-16514888D02*
X7099199Y-16486317D01*
X7099199Y-16486317D02*
X7108722Y-16467269D01*
X7108722Y-16467269D02*
X7118246Y-16438698D01*
X7118246Y-16438698D02*
X7127770Y-16391079D01*
X7127770Y-16391079D02*
X7127770Y-16352984D01*
X7127770Y-16352984D02*
X7118246Y-16305365D01*
X7118246Y-16305365D02*
X7108722Y-16276793D01*
X7108722Y-16276793D02*
X7099199Y-16257746D01*
X7099199Y-16257746D02*
X7080151Y-16229174D01*
X7080151Y-16229174D02*
X7070627Y-16219650D01*
X7432532Y-16524412D02*
X7423008Y-16514888D01*
X7423008Y-16514888D02*
X7403960Y-16486317D01*
X7403960Y-16486317D02*
X7394437Y-16467269D01*
X7394437Y-16467269D02*
X7384913Y-16438698D01*
X7384913Y-16438698D02*
X7375389Y-16391079D01*
X7375389Y-16391079D02*
X7375389Y-16352984D01*
X7375389Y-16352984D02*
X7384913Y-16305365D01*
X7384913Y-16305365D02*
X7394437Y-16276793D01*
X7394437Y-16276793D02*
X7403960Y-16257746D01*
X7403960Y-16257746D02*
X7423008Y-16229174D01*
X7423008Y-16229174D02*
X7432532Y-16219650D01*
X7508722Y-16314888D02*
X7508722Y-16448222D01*
X7508722Y-16333936D02*
X7518246Y-16324412D01*
X7518246Y-16324412D02*
X7537294Y-16314888D01*
X7537294Y-16314888D02*
X7565865Y-16314888D01*
X7565865Y-16314888D02*
X7584913Y-16324412D01*
X7584913Y-16324412D02*
X7594437Y-16343460D01*
X7594437Y-16343460D02*
X7594437Y-16448222D01*
X7718246Y-16448222D02*
X7699199Y-16438698D01*
X7699199Y-16438698D02*
X7689675Y-16429174D01*
X7689675Y-16429174D02*
X7680151Y-16410126D01*
X7680151Y-16410126D02*
X7680151Y-16352984D01*
X7680151Y-16352984D02*
X7689675Y-16333936D01*
X7689675Y-16333936D02*
X7699199Y-16324412D01*
X7699199Y-16324412D02*
X7718246Y-16314888D01*
X7718246Y-16314888D02*
X7746818Y-16314888D01*
X7746818Y-16314888D02*
X7765865Y-16324412D01*
X7765865Y-16324412D02*
X7775389Y-16333936D01*
X7775389Y-16333936D02*
X7784913Y-16352984D01*
X7784913Y-16352984D02*
X7784913Y-16410126D01*
X7784913Y-16410126D02*
X7775389Y-16429174D01*
X7775389Y-16429174D02*
X7765865Y-16438698D01*
X7765865Y-16438698D02*
X7746818Y-16448222D01*
X7746818Y-16448222D02*
X7718246Y-16448222D01*
X7842056Y-16314888D02*
X7918246Y-16314888D01*
X7870627Y-16248222D02*
X7870627Y-16419650D01*
X7870627Y-16419650D02*
X7880151Y-16438698D01*
X7880151Y-16438698D02*
X7899199Y-16448222D01*
X7899199Y-16448222D02*
X7918246Y-16448222D01*
X8137294Y-16314888D02*
X8137294Y-16514888D01*
X8137294Y-16324412D02*
X8156341Y-16314888D01*
X8156341Y-16314888D02*
X8194437Y-16314888D01*
X8194437Y-16314888D02*
X8213484Y-16324412D01*
X8213484Y-16324412D02*
X8223008Y-16333936D01*
X8223008Y-16333936D02*
X8232532Y-16352984D01*
X8232532Y-16352984D02*
X8232532Y-16410126D01*
X8232532Y-16410126D02*
X8223008Y-16429174D01*
X8223008Y-16429174D02*
X8213484Y-16438698D01*
X8213484Y-16438698D02*
X8194437Y-16448222D01*
X8194437Y-16448222D02*
X8156341Y-16448222D01*
X8156341Y-16448222D02*
X8137294Y-16438698D01*
X8346818Y-16448222D02*
X8327770Y-16438698D01*
X8327770Y-16438698D02*
X8318246Y-16419650D01*
X8318246Y-16419650D02*
X8318246Y-16248222D01*
X8508723Y-16448222D02*
X8508723Y-16343460D01*
X8508723Y-16343460D02*
X8499199Y-16324412D01*
X8499199Y-16324412D02*
X8480151Y-16314888D01*
X8480151Y-16314888D02*
X8442056Y-16314888D01*
X8442056Y-16314888D02*
X8423008Y-16324412D01*
X8508723Y-16438698D02*
X8489675Y-16448222D01*
X8489675Y-16448222D02*
X8442056Y-16448222D01*
X8442056Y-16448222D02*
X8423008Y-16438698D01*
X8423008Y-16438698D02*
X8413484Y-16419650D01*
X8413484Y-16419650D02*
X8413484Y-16400603D01*
X8413484Y-16400603D02*
X8423008Y-16381555D01*
X8423008Y-16381555D02*
X8442056Y-16372031D01*
X8442056Y-16372031D02*
X8489675Y-16372031D01*
X8489675Y-16372031D02*
X8508723Y-16362507D01*
X8575389Y-16314888D02*
X8651580Y-16314888D01*
X8603961Y-16248222D02*
X8603961Y-16419650D01*
X8603961Y-16419650D02*
X8613484Y-16438698D01*
X8613484Y-16438698D02*
X8632532Y-16448222D01*
X8632532Y-16448222D02*
X8651580Y-16448222D01*
X8794437Y-16438698D02*
X8775389Y-16448222D01*
X8775389Y-16448222D02*
X8737294Y-16448222D01*
X8737294Y-16448222D02*
X8718246Y-16438698D01*
X8718246Y-16438698D02*
X8708723Y-16419650D01*
X8708723Y-16419650D02*
X8708723Y-16343460D01*
X8708723Y-16343460D02*
X8718246Y-16324412D01*
X8718246Y-16324412D02*
X8737294Y-16314888D01*
X8737294Y-16314888D02*
X8775389Y-16314888D01*
X8775389Y-16314888D02*
X8794437Y-16324412D01*
X8794437Y-16324412D02*
X8803961Y-16343460D01*
X8803961Y-16343460D02*
X8803961Y-16362507D01*
X8803961Y-16362507D02*
X8708723Y-16381555D01*
X8975389Y-16448222D02*
X8975389Y-16248222D01*
X8975389Y-16438698D02*
X8956342Y-16448222D01*
X8956342Y-16448222D02*
X8918246Y-16448222D01*
X8918246Y-16448222D02*
X8899199Y-16438698D01*
X8899199Y-16438698D02*
X8889675Y-16429174D01*
X8889675Y-16429174D02*
X8880151Y-16410126D01*
X8880151Y-16410126D02*
X8880151Y-16352984D01*
X8880151Y-16352984D02*
X8889675Y-16333936D01*
X8889675Y-16333936D02*
X8899199Y-16324412D01*
X8899199Y-16324412D02*
X8918246Y-16314888D01*
X8918246Y-16314888D02*
X8956342Y-16314888D01*
X8956342Y-16314888D02*
X8975389Y-16324412D01*
X9051580Y-16524412D02*
X9061104Y-16514888D01*
X9061104Y-16514888D02*
X9080151Y-16486317D01*
X9080151Y-16486317D02*
X9089675Y-16467269D01*
X9089675Y-16467269D02*
X9099199Y-16438698D01*
X9099199Y-16438698D02*
X9108723Y-16391079D01*
X9108723Y-16391079D02*
X9108723Y-16352984D01*
X9108723Y-16352984D02*
X9099199Y-16305365D01*
X9099199Y-16305365D02*
X9089675Y-16276793D01*
X9089675Y-16276793D02*
X9080151Y-16257746D01*
X9080151Y-16257746D02*
X9061104Y-16229174D01*
X9061104Y-16229174D02*
X9051580Y-16219650D01*
X2018246Y-16565698D02*
X2018246Y-16765698D01*
X1918246Y-16665698D02*
X2118246Y-16665698D01*
X2346817Y-16558222D02*
X2470627Y-16558222D01*
X2470627Y-16558222D02*
X2403960Y-16634412D01*
X2403960Y-16634412D02*
X2432532Y-16634412D01*
X2432532Y-16634412D02*
X2451579Y-16643936D01*
X2451579Y-16643936D02*
X2461103Y-16653460D01*
X2461103Y-16653460D02*
X2470627Y-16672507D01*
X2470627Y-16672507D02*
X2470627Y-16720126D01*
X2470627Y-16720126D02*
X2461103Y-16739174D01*
X2461103Y-16739174D02*
X2451579Y-16748698D01*
X2451579Y-16748698D02*
X2432532Y-16758222D01*
X2432532Y-16758222D02*
X2375389Y-16758222D01*
X2375389Y-16758222D02*
X2356341Y-16748698D01*
X2356341Y-16748698D02*
X2346817Y-16739174D01*
X2556341Y-16739174D02*
X2565865Y-16748698D01*
X2565865Y-16748698D02*
X2556341Y-16758222D01*
X2556341Y-16758222D02*
X2546817Y-16748698D01*
X2546817Y-16748698D02*
X2556341Y-16739174D01*
X2556341Y-16739174D02*
X2556341Y-16758222D01*
X2737293Y-16624888D02*
X2737293Y-16758222D01*
X2689674Y-16548698D02*
X2642055Y-16691555D01*
X2642055Y-16691555D02*
X2765865Y-16691555D01*
X2937293Y-16558222D02*
X2842055Y-16558222D01*
X2842055Y-16558222D02*
X2832531Y-16653460D01*
X2832531Y-16653460D02*
X2842055Y-16643936D01*
X2842055Y-16643936D02*
X2861103Y-16634412D01*
X2861103Y-16634412D02*
X2908722Y-16634412D01*
X2908722Y-16634412D02*
X2927770Y-16643936D01*
X2927770Y-16643936D02*
X2937293Y-16653460D01*
X2937293Y-16653460D02*
X2946817Y-16672507D01*
X2946817Y-16672507D02*
X2946817Y-16720126D01*
X2946817Y-16720126D02*
X2937293Y-16739174D01*
X2937293Y-16739174D02*
X2927770Y-16748698D01*
X2927770Y-16748698D02*
X2908722Y-16758222D01*
X2908722Y-16758222D02*
X2861103Y-16758222D01*
X2861103Y-16758222D02*
X2842055Y-16748698D01*
X2842055Y-16748698D02*
X2832531Y-16739174D01*
X3070627Y-16558222D02*
X3089674Y-16558222D01*
X3089674Y-16558222D02*
X3108722Y-16567746D01*
X3108722Y-16567746D02*
X3118246Y-16577269D01*
X3118246Y-16577269D02*
X3127770Y-16596317D01*
X3127770Y-16596317D02*
X3137293Y-16634412D01*
X3137293Y-16634412D02*
X3137293Y-16682031D01*
X3137293Y-16682031D02*
X3127770Y-16720126D01*
X3127770Y-16720126D02*
X3118246Y-16739174D01*
X3118246Y-16739174D02*
X3108722Y-16748698D01*
X3108722Y-16748698D02*
X3089674Y-16758222D01*
X3089674Y-16758222D02*
X3070627Y-16758222D01*
X3070627Y-16758222D02*
X3051579Y-16748698D01*
X3051579Y-16748698D02*
X3042055Y-16739174D01*
X3042055Y-16739174D02*
X3032531Y-16720126D01*
X3032531Y-16720126D02*
X3023008Y-16682031D01*
X3023008Y-16682031D02*
X3023008Y-16634412D01*
X3023008Y-16634412D02*
X3032531Y-16596317D01*
X3032531Y-16596317D02*
X3042055Y-16577269D01*
X3042055Y-16577269D02*
X3051579Y-16567746D01*
X3051579Y-16567746D02*
X3070627Y-16558222D01*
X3223008Y-16758222D02*
X3223008Y-16624888D01*
X3223008Y-16643936D02*
X3232531Y-16634412D01*
X3232531Y-16634412D02*
X3251579Y-16624888D01*
X3251579Y-16624888D02*
X3280151Y-16624888D01*
X3280151Y-16624888D02*
X3299198Y-16634412D01*
X3299198Y-16634412D02*
X3308722Y-16653460D01*
X3308722Y-16653460D02*
X3308722Y-16758222D01*
X3308722Y-16653460D02*
X3318246Y-16634412D01*
X3318246Y-16634412D02*
X3337293Y-16624888D01*
X3337293Y-16624888D02*
X3365865Y-16624888D01*
X3365865Y-16624888D02*
X3384912Y-16634412D01*
X3384912Y-16634412D02*
X3394436Y-16653460D01*
X3394436Y-16653460D02*
X3394436Y-16758222D01*
X3489674Y-16758222D02*
X3489674Y-16624888D01*
X3489674Y-16643936D02*
X3499198Y-16634412D01*
X3499198Y-16634412D02*
X3518246Y-16624888D01*
X3518246Y-16624888D02*
X3546817Y-16624888D01*
X3546817Y-16624888D02*
X3565865Y-16634412D01*
X3565865Y-16634412D02*
X3575389Y-16653460D01*
X3575389Y-16653460D02*
X3575389Y-16758222D01*
X3575389Y-16653460D02*
X3584912Y-16634412D01*
X3584912Y-16634412D02*
X3603960Y-16624888D01*
X3603960Y-16624888D02*
X3632531Y-16624888D01*
X3632531Y-16624888D02*
X3651579Y-16634412D01*
X3651579Y-16634412D02*
X3661103Y-16653460D01*
X3661103Y-16653460D02*
X3661103Y-16758222D01*
X4051579Y-16548698D02*
X3880151Y-16805841D01*
X4308722Y-16558222D02*
X4327770Y-16558222D01*
X4327770Y-16558222D02*
X4346817Y-16567746D01*
X4346817Y-16567746D02*
X4356341Y-16577269D01*
X4356341Y-16577269D02*
X4365865Y-16596317D01*
X4365865Y-16596317D02*
X4375389Y-16634412D01*
X4375389Y-16634412D02*
X4375389Y-16682031D01*
X4375389Y-16682031D02*
X4365865Y-16720126D01*
X4365865Y-16720126D02*
X4356341Y-16739174D01*
X4356341Y-16739174D02*
X4346817Y-16748698D01*
X4346817Y-16748698D02*
X4327770Y-16758222D01*
X4327770Y-16758222D02*
X4308722Y-16758222D01*
X4308722Y-16758222D02*
X4289675Y-16748698D01*
X4289675Y-16748698D02*
X4280151Y-16739174D01*
X4280151Y-16739174D02*
X4270627Y-16720126D01*
X4270627Y-16720126D02*
X4261103Y-16682031D01*
X4261103Y-16682031D02*
X4261103Y-16634412D01*
X4261103Y-16634412D02*
X4270627Y-16596317D01*
X4270627Y-16596317D02*
X4280151Y-16577269D01*
X4280151Y-16577269D02*
X4289675Y-16567746D01*
X4289675Y-16567746D02*
X4308722Y-16558222D01*
X4461103Y-16739174D02*
X4470627Y-16748698D01*
X4470627Y-16748698D02*
X4461103Y-16758222D01*
X4461103Y-16758222D02*
X4451579Y-16748698D01*
X4451579Y-16748698D02*
X4461103Y-16739174D01*
X4461103Y-16739174D02*
X4461103Y-16758222D01*
X4661103Y-16758222D02*
X4546817Y-16758222D01*
X4603960Y-16758222D02*
X4603960Y-16558222D01*
X4603960Y-16558222D02*
X4584913Y-16586793D01*
X4584913Y-16586793D02*
X4565865Y-16605841D01*
X4565865Y-16605841D02*
X4546817Y-16615365D01*
X4727770Y-16558222D02*
X4851579Y-16558222D01*
X4851579Y-16558222D02*
X4784913Y-16634412D01*
X4784913Y-16634412D02*
X4813484Y-16634412D01*
X4813484Y-16634412D02*
X4832532Y-16643936D01*
X4832532Y-16643936D02*
X4842056Y-16653460D01*
X4842056Y-16653460D02*
X4851579Y-16672507D01*
X4851579Y-16672507D02*
X4851579Y-16720126D01*
X4851579Y-16720126D02*
X4842056Y-16739174D01*
X4842056Y-16739174D02*
X4832532Y-16748698D01*
X4832532Y-16748698D02*
X4813484Y-16758222D01*
X4813484Y-16758222D02*
X4756341Y-16758222D01*
X4756341Y-16758222D02*
X4737294Y-16748698D01*
X4737294Y-16748698D02*
X4727770Y-16739174D01*
X5032532Y-16558222D02*
X4937294Y-16558222D01*
X4937294Y-16558222D02*
X4927770Y-16653460D01*
X4927770Y-16653460D02*
X4937294Y-16643936D01*
X4937294Y-16643936D02*
X4956341Y-16634412D01*
X4956341Y-16634412D02*
X5003960Y-16634412D01*
X5003960Y-16634412D02*
X5023008Y-16643936D01*
X5023008Y-16643936D02*
X5032532Y-16653460D01*
X5032532Y-16653460D02*
X5042056Y-16672507D01*
X5042056Y-16672507D02*
X5042056Y-16720126D01*
X5042056Y-16720126D02*
X5032532Y-16739174D01*
X5032532Y-16739174D02*
X5023008Y-16748698D01*
X5023008Y-16748698D02*
X5003960Y-16758222D01*
X5003960Y-16758222D02*
X4956341Y-16758222D01*
X4956341Y-16758222D02*
X4937294Y-16748698D01*
X4937294Y-16748698D02*
X4927770Y-16739174D01*
X5156341Y-16643936D02*
X5137294Y-16634412D01*
X5137294Y-16634412D02*
X5127770Y-16624888D01*
X5127770Y-16624888D02*
X5118246Y-16605841D01*
X5118246Y-16605841D02*
X5118246Y-16596317D01*
X5118246Y-16596317D02*
X5127770Y-16577269D01*
X5127770Y-16577269D02*
X5137294Y-16567746D01*
X5137294Y-16567746D02*
X5156341Y-16558222D01*
X5156341Y-16558222D02*
X5194437Y-16558222D01*
X5194437Y-16558222D02*
X5213484Y-16567746D01*
X5213484Y-16567746D02*
X5223008Y-16577269D01*
X5223008Y-16577269D02*
X5232532Y-16596317D01*
X5232532Y-16596317D02*
X5232532Y-16605841D01*
X5232532Y-16605841D02*
X5223008Y-16624888D01*
X5223008Y-16624888D02*
X5213484Y-16634412D01*
X5213484Y-16634412D02*
X5194437Y-16643936D01*
X5194437Y-16643936D02*
X5156341Y-16643936D01*
X5156341Y-16643936D02*
X5137294Y-16653460D01*
X5137294Y-16653460D02*
X5127770Y-16662984D01*
X5127770Y-16662984D02*
X5118246Y-16682031D01*
X5118246Y-16682031D02*
X5118246Y-16720126D01*
X5118246Y-16720126D02*
X5127770Y-16739174D01*
X5127770Y-16739174D02*
X5137294Y-16748698D01*
X5137294Y-16748698D02*
X5156341Y-16758222D01*
X5156341Y-16758222D02*
X5194437Y-16758222D01*
X5194437Y-16758222D02*
X5213484Y-16748698D01*
X5213484Y-16748698D02*
X5223008Y-16739174D01*
X5223008Y-16739174D02*
X5232532Y-16720126D01*
X5232532Y-16720126D02*
X5232532Y-16682031D01*
X5232532Y-16682031D02*
X5223008Y-16662984D01*
X5223008Y-16662984D02*
X5213484Y-16653460D01*
X5213484Y-16653460D02*
X5194437Y-16643936D01*
X5308722Y-16558222D02*
X5308722Y-16596317D01*
X5384913Y-16558222D02*
X5384913Y-16596317D01*
X5680151Y-16834412D02*
X5670627Y-16824888D01*
X5670627Y-16824888D02*
X5651579Y-16796317D01*
X5651579Y-16796317D02*
X5642056Y-16777269D01*
X5642056Y-16777269D02*
X5632532Y-16748698D01*
X5632532Y-16748698D02*
X5623008Y-16701079D01*
X5623008Y-16701079D02*
X5623008Y-16662984D01*
X5623008Y-16662984D02*
X5632532Y-16615365D01*
X5632532Y-16615365D02*
X5642056Y-16586793D01*
X5642056Y-16586793D02*
X5651579Y-16567746D01*
X5651579Y-16567746D02*
X5670627Y-16539174D01*
X5670627Y-16539174D02*
X5680151Y-16529650D01*
X5737294Y-16558222D02*
X5861103Y-16558222D01*
X5861103Y-16558222D02*
X5794436Y-16634412D01*
X5794436Y-16634412D02*
X5823008Y-16634412D01*
X5823008Y-16634412D02*
X5842056Y-16643936D01*
X5842056Y-16643936D02*
X5851579Y-16653460D01*
X5851579Y-16653460D02*
X5861103Y-16672507D01*
X5861103Y-16672507D02*
X5861103Y-16720126D01*
X5861103Y-16720126D02*
X5851579Y-16739174D01*
X5851579Y-16739174D02*
X5842056Y-16748698D01*
X5842056Y-16748698D02*
X5823008Y-16758222D01*
X5823008Y-16758222D02*
X5765865Y-16758222D01*
X5765865Y-16758222D02*
X5746817Y-16748698D01*
X5746817Y-16748698D02*
X5737294Y-16739174D01*
X5984913Y-16558222D02*
X6003960Y-16558222D01*
X6003960Y-16558222D02*
X6023008Y-16567746D01*
X6023008Y-16567746D02*
X6032532Y-16577269D01*
X6032532Y-16577269D02*
X6042056Y-16596317D01*
X6042056Y-16596317D02*
X6051579Y-16634412D01*
X6051579Y-16634412D02*
X6051579Y-16682031D01*
X6051579Y-16682031D02*
X6042056Y-16720126D01*
X6042056Y-16720126D02*
X6032532Y-16739174D01*
X6032532Y-16739174D02*
X6023008Y-16748698D01*
X6023008Y-16748698D02*
X6003960Y-16758222D01*
X6003960Y-16758222D02*
X5984913Y-16758222D01*
X5984913Y-16758222D02*
X5965865Y-16748698D01*
X5965865Y-16748698D02*
X5956341Y-16739174D01*
X5956341Y-16739174D02*
X5946817Y-16720126D01*
X5946817Y-16720126D02*
X5937294Y-16682031D01*
X5937294Y-16682031D02*
X5937294Y-16634412D01*
X5937294Y-16634412D02*
X5946817Y-16596317D01*
X5946817Y-16596317D02*
X5956341Y-16577269D01*
X5956341Y-16577269D02*
X5965865Y-16567746D01*
X5965865Y-16567746D02*
X5984913Y-16558222D01*
X6289675Y-16758222D02*
X6289675Y-16558222D01*
X6375389Y-16758222D02*
X6375389Y-16653460D01*
X6375389Y-16653460D02*
X6365865Y-16634412D01*
X6365865Y-16634412D02*
X6346818Y-16624888D01*
X6346818Y-16624888D02*
X6318246Y-16624888D01*
X6318246Y-16624888D02*
X6299198Y-16634412D01*
X6299198Y-16634412D02*
X6289675Y-16643936D01*
X6499198Y-16758222D02*
X6480151Y-16748698D01*
X6480151Y-16748698D02*
X6470627Y-16739174D01*
X6470627Y-16739174D02*
X6461103Y-16720126D01*
X6461103Y-16720126D02*
X6461103Y-16662984D01*
X6461103Y-16662984D02*
X6470627Y-16643936D01*
X6470627Y-16643936D02*
X6480151Y-16634412D01*
X6480151Y-16634412D02*
X6499198Y-16624888D01*
X6499198Y-16624888D02*
X6527770Y-16624888D01*
X6527770Y-16624888D02*
X6546818Y-16634412D01*
X6546818Y-16634412D02*
X6556341Y-16643936D01*
X6556341Y-16643936D02*
X6565865Y-16662984D01*
X6565865Y-16662984D02*
X6565865Y-16720126D01*
X6565865Y-16720126D02*
X6556341Y-16739174D01*
X6556341Y-16739174D02*
X6546818Y-16748698D01*
X6546818Y-16748698D02*
X6527770Y-16758222D01*
X6527770Y-16758222D02*
X6499198Y-16758222D01*
X6680151Y-16758222D02*
X6661103Y-16748698D01*
X6661103Y-16748698D02*
X6651579Y-16729650D01*
X6651579Y-16729650D02*
X6651579Y-16558222D01*
X6832532Y-16748698D02*
X6813484Y-16758222D01*
X6813484Y-16758222D02*
X6775389Y-16758222D01*
X6775389Y-16758222D02*
X6756341Y-16748698D01*
X6756341Y-16748698D02*
X6746818Y-16729650D01*
X6746818Y-16729650D02*
X6746818Y-16653460D01*
X6746818Y-16653460D02*
X6756341Y-16634412D01*
X6756341Y-16634412D02*
X6775389Y-16624888D01*
X6775389Y-16624888D02*
X6813484Y-16624888D01*
X6813484Y-16624888D02*
X6832532Y-16634412D01*
X6832532Y-16634412D02*
X6842056Y-16653460D01*
X6842056Y-16653460D02*
X6842056Y-16672507D01*
X6842056Y-16672507D02*
X6746818Y-16691555D01*
X6918246Y-16748698D02*
X6937294Y-16758222D01*
X6937294Y-16758222D02*
X6975389Y-16758222D01*
X6975389Y-16758222D02*
X6994437Y-16748698D01*
X6994437Y-16748698D02*
X7003960Y-16729650D01*
X7003960Y-16729650D02*
X7003960Y-16720126D01*
X7003960Y-16720126D02*
X6994437Y-16701079D01*
X6994437Y-16701079D02*
X6975389Y-16691555D01*
X6975389Y-16691555D02*
X6946818Y-16691555D01*
X6946818Y-16691555D02*
X6927770Y-16682031D01*
X6927770Y-16682031D02*
X6918246Y-16662984D01*
X6918246Y-16662984D02*
X6918246Y-16653460D01*
X6918246Y-16653460D02*
X6927770Y-16634412D01*
X6927770Y-16634412D02*
X6946818Y-16624888D01*
X6946818Y-16624888D02*
X6975389Y-16624888D01*
X6975389Y-16624888D02*
X6994437Y-16634412D01*
X7070627Y-16834412D02*
X7080151Y-16824888D01*
X7080151Y-16824888D02*
X7099199Y-16796317D01*
X7099199Y-16796317D02*
X7108722Y-16777269D01*
X7108722Y-16777269D02*
X7118246Y-16748698D01*
X7118246Y-16748698D02*
X7127770Y-16701079D01*
X7127770Y-16701079D02*
X7127770Y-16662984D01*
X7127770Y-16662984D02*
X7118246Y-16615365D01*
X7118246Y-16615365D02*
X7108722Y-16586793D01*
X7108722Y-16586793D02*
X7099199Y-16567746D01*
X7099199Y-16567746D02*
X7080151Y-16539174D01*
X7080151Y-16539174D02*
X7070627Y-16529650D01*
X7432532Y-16834412D02*
X7423008Y-16824888D01*
X7423008Y-16824888D02*
X7403960Y-16796317D01*
X7403960Y-16796317D02*
X7394437Y-16777269D01*
X7394437Y-16777269D02*
X7384913Y-16748698D01*
X7384913Y-16748698D02*
X7375389Y-16701079D01*
X7375389Y-16701079D02*
X7375389Y-16662984D01*
X7375389Y-16662984D02*
X7384913Y-16615365D01*
X7384913Y-16615365D02*
X7394437Y-16586793D01*
X7394437Y-16586793D02*
X7403960Y-16567746D01*
X7403960Y-16567746D02*
X7423008Y-16539174D01*
X7423008Y-16539174D02*
X7432532Y-16529650D01*
X7508722Y-16624888D02*
X7508722Y-16758222D01*
X7508722Y-16643936D02*
X7518246Y-16634412D01*
X7518246Y-16634412D02*
X7537294Y-16624888D01*
X7537294Y-16624888D02*
X7565865Y-16624888D01*
X7565865Y-16624888D02*
X7584913Y-16634412D01*
X7584913Y-16634412D02*
X7594437Y-16653460D01*
X7594437Y-16653460D02*
X7594437Y-16758222D01*
X7718246Y-16758222D02*
X7699199Y-16748698D01*
X7699199Y-16748698D02*
X7689675Y-16739174D01*
X7689675Y-16739174D02*
X7680151Y-16720126D01*
X7680151Y-16720126D02*
X7680151Y-16662984D01*
X7680151Y-16662984D02*
X7689675Y-16643936D01*
X7689675Y-16643936D02*
X7699199Y-16634412D01*
X7699199Y-16634412D02*
X7718246Y-16624888D01*
X7718246Y-16624888D02*
X7746818Y-16624888D01*
X7746818Y-16624888D02*
X7765865Y-16634412D01*
X7765865Y-16634412D02*
X7775389Y-16643936D01*
X7775389Y-16643936D02*
X7784913Y-16662984D01*
X7784913Y-16662984D02*
X7784913Y-16720126D01*
X7784913Y-16720126D02*
X7775389Y-16739174D01*
X7775389Y-16739174D02*
X7765865Y-16748698D01*
X7765865Y-16748698D02*
X7746818Y-16758222D01*
X7746818Y-16758222D02*
X7718246Y-16758222D01*
X7842056Y-16624888D02*
X7918246Y-16624888D01*
X7870627Y-16558222D02*
X7870627Y-16729650D01*
X7870627Y-16729650D02*
X7880151Y-16748698D01*
X7880151Y-16748698D02*
X7899199Y-16758222D01*
X7899199Y-16758222D02*
X7918246Y-16758222D01*
X8137294Y-16624888D02*
X8137294Y-16824888D01*
X8137294Y-16634412D02*
X8156341Y-16624888D01*
X8156341Y-16624888D02*
X8194437Y-16624888D01*
X8194437Y-16624888D02*
X8213484Y-16634412D01*
X8213484Y-16634412D02*
X8223008Y-16643936D01*
X8223008Y-16643936D02*
X8232532Y-16662984D01*
X8232532Y-16662984D02*
X8232532Y-16720126D01*
X8232532Y-16720126D02*
X8223008Y-16739174D01*
X8223008Y-16739174D02*
X8213484Y-16748698D01*
X8213484Y-16748698D02*
X8194437Y-16758222D01*
X8194437Y-16758222D02*
X8156341Y-16758222D01*
X8156341Y-16758222D02*
X8137294Y-16748698D01*
X8346818Y-16758222D02*
X8327770Y-16748698D01*
X8327770Y-16748698D02*
X8318246Y-16729650D01*
X8318246Y-16729650D02*
X8318246Y-16558222D01*
X8508723Y-16758222D02*
X8508723Y-16653460D01*
X8508723Y-16653460D02*
X8499199Y-16634412D01*
X8499199Y-16634412D02*
X8480151Y-16624888D01*
X8480151Y-16624888D02*
X8442056Y-16624888D01*
X8442056Y-16624888D02*
X8423008Y-16634412D01*
X8508723Y-16748698D02*
X8489675Y-16758222D01*
X8489675Y-16758222D02*
X8442056Y-16758222D01*
X8442056Y-16758222D02*
X8423008Y-16748698D01*
X8423008Y-16748698D02*
X8413484Y-16729650D01*
X8413484Y-16729650D02*
X8413484Y-16710603D01*
X8413484Y-16710603D02*
X8423008Y-16691555D01*
X8423008Y-16691555D02*
X8442056Y-16682031D01*
X8442056Y-16682031D02*
X8489675Y-16682031D01*
X8489675Y-16682031D02*
X8508723Y-16672507D01*
X8575389Y-16624888D02*
X8651580Y-16624888D01*
X8603961Y-16558222D02*
X8603961Y-16729650D01*
X8603961Y-16729650D02*
X8613484Y-16748698D01*
X8613484Y-16748698D02*
X8632532Y-16758222D01*
X8632532Y-16758222D02*
X8651580Y-16758222D01*
X8794437Y-16748698D02*
X8775389Y-16758222D01*
X8775389Y-16758222D02*
X8737294Y-16758222D01*
X8737294Y-16758222D02*
X8718246Y-16748698D01*
X8718246Y-16748698D02*
X8708723Y-16729650D01*
X8708723Y-16729650D02*
X8708723Y-16653460D01*
X8708723Y-16653460D02*
X8718246Y-16634412D01*
X8718246Y-16634412D02*
X8737294Y-16624888D01*
X8737294Y-16624888D02*
X8775389Y-16624888D01*
X8775389Y-16624888D02*
X8794437Y-16634412D01*
X8794437Y-16634412D02*
X8803961Y-16653460D01*
X8803961Y-16653460D02*
X8803961Y-16672507D01*
X8803961Y-16672507D02*
X8708723Y-16691555D01*
X8975389Y-16758222D02*
X8975389Y-16558222D01*
X8975389Y-16748698D02*
X8956342Y-16758222D01*
X8956342Y-16758222D02*
X8918246Y-16758222D01*
X8918246Y-16758222D02*
X8899199Y-16748698D01*
X8899199Y-16748698D02*
X8889675Y-16739174D01*
X8889675Y-16739174D02*
X8880151Y-16720126D01*
X8880151Y-16720126D02*
X8880151Y-16662984D01*
X8880151Y-16662984D02*
X8889675Y-16643936D01*
X8889675Y-16643936D02*
X8899199Y-16634412D01*
X8899199Y-16634412D02*
X8918246Y-16624888D01*
X8918246Y-16624888D02*
X8956342Y-16624888D01*
X8956342Y-16624888D02*
X8975389Y-16634412D01*
X9051580Y-16834412D02*
X9061104Y-16824888D01*
X9061104Y-16824888D02*
X9080151Y-16796317D01*
X9080151Y-16796317D02*
X9089675Y-16777269D01*
X9089675Y-16777269D02*
X9099199Y-16748698D01*
X9099199Y-16748698D02*
X9108723Y-16701079D01*
X9108723Y-16701079D02*
X9108723Y-16662984D01*
X9108723Y-16662984D02*
X9099199Y-16615365D01*
X9099199Y-16615365D02*
X9089675Y-16586793D01*
X9089675Y-16586793D02*
X9080151Y-16567746D01*
X9080151Y-16567746D02*
X9061104Y-16539174D01*
X9061104Y-16539174D02*
X9051580Y-16529650D01*
M02*
