  0
SECTION
  2
HEADER
  9
$ANGBASE
  50
0.0
  9
$ANGDIR
  70
1
  9
$MEASUREMENT
  70
1
  0
ENDSEC
  0
SECTION
  2
TABLES
  0
TABLE
  2
LTYPE
  70
4
  0
LTYPE
  5
40F
  2
CONTINUOUS
  70
0
  3
Solid line
  72
65
  73
0
  40
0.0
  0
LTYPE
  5
410
  2
DASHDOT
 70
0
  3
Dash Dot ____ _ ____ _
 72
65
 73
4
 40
2.0
 49
1.25
 49
-0.25
 49
0.25
 49
-0.25
  0
LTYPE
  5
411
  2
DASHED
 70
0
  3
Dashed __ __ __ __ __
 72
65
 73
2
 40
0.75
 49
0.5
 49
-0.25
  0
LTYPE
  5
43B
  2
DOTTED
 70
0
  3
Dotted .  .  .  .
 72
65
 73
2
 40
0.2
 49
0.0
 49
-0.2
  0
ENDTAB
  0
TABLE
  2
STYLE
  70
4
  0
STYLE
  2
KICAD
  70
0
  40
0
  41
1
  42
1
  50
0
  71
0
  3
isocp.shx
  0
STYLE
  2
KICADB
  70
0
  40
0
  41
1
  42
1
  50
0
  71
0
  3
isocp.shx
  0
STYLE
  2
KICADI
  70
0
  40
0
  41
1
  42
1
  50
15
  71
0
  3
isocp.shx
  0
STYLE
  2
KICADBI
  70
0
  40
0
  41
1
  42
1
  50
15
  71
0
  3
isocp.shx
  0
ENDTAB
  0
TABLE
  2
LAYER
  70
1
  0
LAYER
  2
BLACK
  70
0
  62
7
  6
CONTINUOUS
  0
ENDTAB
  0
ENDSEC
  0
SECTION
  2
ENTITIES
0
LINE
8
BLACK
6
CONTINUOUS
10
75.0198
20
-39.5142
11
75.0593
21
-39.3769
0
LINE
8
BLACK
6
CONTINUOUS
10
75.0593
20
-39.3769
11
75.1718
21
-39.1143
0
LINE
8
BLACK
6
CONTINUOUS
10
75.1718
20
-39.1143
11
75.3205
21
-38.8703
0
LINE
8
BLACK
6
CONTINUOUS
10
75.3205
20
-38.8703
11
75.5024
21
-38.65
0
LINE
8
BLACK
6
CONTINUOUS
10
75.5024
20
-38.65
11
75.7138
21
-38.4578
0
LINE
8
BLACK
6
CONTINUOUS
10
75.7138
20
-38.4578
11
75.9504
21
-38.2977
0
LINE
8
BLACK
6
CONTINUOUS
10
75.9504
20
-38.2977
11
76.2074
21
-38.1728
0
LINE
8
BLACK
6
CONTINUOUS
10
76.2074
20
-38.1728
11
76.4796
21
-38.0859
0
LINE
8
BLACK
6
CONTINUOUS
10
76.4796
20
-38.0859
11
76.7613
21
-38.0385
0
LINE
8
BLACK
6
CONTINUOUS
10
76.7613
20
-38.0385
11
77.0469
21
-38.0317
0
LINE
8
BLACK
6
CONTINUOUS
10
77.0469
20
-38.0317
11
77.3306
21
-38.0656
0
LINE
8
BLACK
6
CONTINUOUS
10
77.3306
20
-38.0656
11
77.4693
21
-38.1002
0
LINE
8
BLACK
6
CONTINUOUS
10
77.4693
20
-38.1002
11
92.0077
21
-41.9955
0
LINE
8
BLACK
6
CONTINUOUS
10
92.0077
20
-41.9955
11
92.1451
21
-42.0349
0
LINE
8
BLACK
6
CONTINUOUS
10
92.1451
20
-42.0349
11
92.4078
21
-42.1473
0
LINE
8
BLACK
6
CONTINUOUS
10
92.4078
20
-42.1473
11
92.6518
21
-42.296
0
LINE
8
BLACK
6
CONTINUOUS
10
92.6518
20
-42.296
11
92.8722
21
-42.478
0
LINE
8
BLACK
6
CONTINUOUS
10
92.8722
20
-42.478
11
93.0644
21
-42.6894
0
LINE
8
BLACK
6
CONTINUOUS
10
93.0644
20
-42.6894
11
93.2246
21
-42.9261
0
LINE
8
BLACK
6
CONTINUOUS
10
93.2246
20
-42.9261
11
93.3494
21
-43.1832
0
LINE
8
BLACK
6
CONTINUOUS
10
93.3494
20
-43.1832
11
93.4364
21
-43.4554
0
LINE
8
BLACK
6
CONTINUOUS
10
93.4364
20
-43.4554
11
93.4838
21
-43.7372
0
LINE
8
BLACK
6
CONTINUOUS
10
93.4838
20
-43.7372
11
93.4905
21
-44.0229
0
LINE
8
BLACK
6
CONTINUOUS
10
93.4905
20
-44.0229
11
93.4565
21
-44.3066
0
LINE
8
BLACK
6
CONTINUOUS
10
93.4565
20
-44.3066
11
93.4219
21
-44.4453
0
LINE
8
BLACK
6
CONTINUOUS
10
93.4219
20
-44.4453
11
93.4036
21
-44.5134
0
LINE
8
BLACK
6
CONTINUOUS
10
93.4036
20
-44.5134
11
93.3551
21
-44.7036
0
LINE
8
BLACK
6
CONTINUOUS
10
93.3551
20
-44.7036
11
93.2911
21
-45.091
0
LINE
8
BLACK
6
CONTINUOUS
10
93.2911
20
-45.091
11
93.2653
21
-45.4828
0
LINE
8
BLACK
6
CONTINUOUS
10
93.2653
20
-45.4828
11
93.2781
21
-45.8752
0
LINE
8
BLACK
6
CONTINUOUS
10
93.2781
20
-45.8752
11
93.3292
21
-46.2645
0
LINE
8
BLACK
6
CONTINUOUS
10
93.3292
20
-46.2645
11
93.4182
21
-46.6469
0
LINE
8
BLACK
6
CONTINUOUS
10
93.4182
20
-46.6469
11
93.5443
21
-47.0188
0
LINE
8
BLACK
6
CONTINUOUS
10
93.5443
20
-47.0188
11
93.7062
21
-47.3765
0
LINE
8
BLACK
6
CONTINUOUS
10
93.7062
20
-47.3765
11
93.9024
21
-47.7166
0
LINE
8
BLACK
6
CONTINUOUS
10
93.9024
20
-47.7166
11
94.131
21
-48.0358
0
LINE
8
BLACK
6
CONTINUOUS
10
94.131
20
-48.0358
11
94.3897
21
-48.3312
0
LINE
8
BLACK
6
CONTINUOUS
10
94.3897
20
-48.3312
11
94.6761
21
-48.5997
0
LINE
8
BLACK
6
CONTINUOUS
10
94.6761
20
-48.5997
11
94.9875
21
-48.8389
0
LINE
8
BLACK
6
CONTINUOUS
10
94.9875
20
-48.8389
11
95.3208
21
-49.0464
0
LINE
8
BLACK
6
CONTINUOUS
10
95.3208
20
-49.0464
11
95.6729
21
-49.2203
0
LINE
8
BLACK
6
CONTINUOUS
10
95.6729
20
-49.2203
11
96.0402
21
-49.3589
0
LINE
8
BLACK
6
CONTINUOUS
10
96.0402
20
-49.3589
11
96.2292
21
-49.4121
0
LINE
8
BLACK
6
CONTINUOUS
10
96.2292
20
-49.4121
11
109.962
21
-53.1023
0
LINE
8
BLACK
6
CONTINUOUS
10
109.962
20
-53.1023
11
110.1
21
-53.1418
0
LINE
8
BLACK
6
CONTINUOUS
10
110.1
20
-53.1418
11
110.362
21
-53.2543
0
LINE
8
BLACK
6
CONTINUOUS
10
110.362
20
-53.2543
11
110.606
21
-53.4031
0
LINE
8
BLACK
6
CONTINUOUS
10
110.606
20
-53.4031
11
110.826
21
-53.585
0
LINE
8
BLACK
6
CONTINUOUS
10
110.826
20
-53.585
11
111.018
21
-53.7963
0
LINE
8
BLACK
6
CONTINUOUS
10
111.018
20
-53.7963
11
111.178
21
-54.0328
0
LINE
8
BLACK
6
CONTINUOUS
10
111.178
20
-54.0328
11
111.302
21
-54.2896
0
LINE
8
BLACK
6
CONTINUOUS
10
111.302
20
-54.2896
11
111.389
21
-54.5616
0
LINE
8
BLACK
6
CONTINUOUS
10
111.389
20
-54.5616
11
111.437
21
-54.8431
0
LINE
8
BLACK
6
CONTINUOUS
10
111.437
20
-54.8431
11
111.444
21
-55.1286
0
LINE
8
BLACK
6
CONTINUOUS
10
111.444
20
-55.1286
11
111.41
21
-55.4121
0
LINE
8
BLACK
6
CONTINUOUS
10
111.41
20
-55.4121
11
111.375
21
-55.5506
0
LINE
8
BLACK
6
CONTINUOUS
10
111.375
20
-55.5506
11
110.125
21
-60.2235
0
LINE
8
BLACK
6
CONTINUOUS
10
110.125
20
-60.2235
11
110.077
21
-60.4137
0
LINE
8
BLACK
6
CONTINUOUS
10
110.077
20
-60.4137
11
110.013
21
-60.8011
0
LINE
8
BLACK
6
CONTINUOUS
10
110.013
20
-60.8011
11
109.987
21
-61.1929
0
LINE
8
BLACK
6
CONTINUOUS
10
109.987
20
-61.1929
11
110
21
-61.5853
0
LINE
8
BLACK
6
CONTINUOUS
10
110
20
-61.5853
11
110.052
21
-61.9745
0
LINE
8
BLACK
6
CONTINUOUS
10
110.052
20
-61.9745
11
110.141
21
-62.3568
0
LINE
8
BLACK
6
CONTINUOUS
10
110.141
20
-62.3568
11
110.267
21
-62.7286
0
LINE
8
BLACK
6
CONTINUOUS
10
110.267
20
-62.7286
11
110.429
21
-63.0862
0
LINE
8
BLACK
6
CONTINUOUS
10
110.429
20
-63.0862
11
110.626
21
-63.4262
0
LINE
8
BLACK
6
CONTINUOUS
10
110.626
20
-63.4262
11
110.854
21
-63.7453
0
LINE
8
BLACK
6
CONTINUOUS
10
110.854
20
-63.7453
11
111.113
21
-64.0405
0
LINE
8
BLACK
6
CONTINUOUS
10
111.113
20
-64.0405
11
111.4
21
-64.3089
0
LINE
8
BLACK
6
CONTINUOUS
10
111.4
20
-64.3089
11
111.711
21
-64.548
0
LINE
8
BLACK
6
CONTINUOUS
10
111.711
20
-64.548
11
112.044
21
-64.7554
0
LINE
8
BLACK
6
CONTINUOUS
10
112.044
20
-64.7554
11
112.396
21
-64.9291
0
LINE
8
BLACK
6
CONTINUOUS
10
112.396
20
-64.9291
11
112.764
21
-65.0675
0
LINE
8
BLACK
6
CONTINUOUS
10
112.764
20
-65.0675
11
112.953
21
-65.1206
0
LINE
8
BLACK
6
CONTINUOUS
10
112.953
20
-65.1206
11
126.555
21
-68.7698
0
LINE
8
BLACK
6
CONTINUOUS
10
126.555
20
-68.7698
11
141.494
21
-72.5408
0
LINE
8
BLACK
6
CONTINUOUS
10
141.494
20
-72.5408
11
141.636
21
-72.5793
0
LINE
8
BLACK
6
CONTINUOUS
10
141.636
20
-72.5793
11
141.907
21
-72.6924
0
LINE
8
BLACK
6
CONTINUOUS
10
141.907
20
-72.6924
11
142.16
21
-72.844
0
LINE
8
BLACK
6
CONTINUOUS
10
142.16
20
-72.844
11
142.387
21
-73.031
0
LINE
8
BLACK
6
CONTINUOUS
10
142.387
20
-73.031
11
142.584
21
-73.2492
0
LINE
8
BLACK
6
CONTINUOUS
10
142.584
20
-73.2492
11
142.748
21
-73.494
0
LINE
8
BLACK
6
CONTINUOUS
10
142.748
20
-73.494
11
142.873
21
-73.7601
0
LINE
8
BLACK
6
CONTINUOUS
10
142.873
20
-73.7601
11
142.959
21
-74.0417
0
LINE
8
BLACK
6
CONTINUOUS
10
142.959
20
-74.0417
11
143.002
21
-74.3328
0
LINE
8
BLACK
6
CONTINUOUS
10
143.002
20
-74.3328
11
143.004
21
-74.48
0
LINE
8
BLACK
6
CONTINUOUS
10
143.004
20
-74.48
11
143.004
21
-91.4961
0
LINE
8
BLACK
6
CONTINUOUS
10
143.004
20
-91.4961
11
143.007
21
-91.6389
0
LINE
8
BLACK
6
CONTINUOUS
10
143.007
20
-91.6389
11
143.047
21
-91.9217
0
LINE
8
BLACK
6
CONTINUOUS
10
143.047
20
-91.9217
11
143.128
21
-92.1959
0
LINE
8
BLACK
6
CONTINUOUS
10
143.128
20
-92.1959
11
143.247
21
-92.4558
0
LINE
8
BLACK
6
CONTINUOUS
10
143.247
20
-92.4558
11
143.401
21
-92.6961
0
LINE
8
BLACK
6
CONTINUOUS
10
143.401
20
-92.6961
11
143.588
21
-92.9121
0
LINE
8
BLACK
6
CONTINUOUS
10
143.588
20
-92.9121
11
143.804
21
-93.0992
0
LINE
8
BLACK
6
CONTINUOUS
10
143.804
20
-93.0992
11
144.045
21
-93.2536
0
LINE
8
BLACK
6
CONTINUOUS
10
144.045
20
-93.2536
11
144.304
21
-93.3723
0
LINE
8
BLACK
6
CONTINUOUS
10
144.304
20
-93.3723
11
144.579
21
-93.4528
0
LINE
8
BLACK
6
CONTINUOUS
10
144.579
20
-93.4528
11
144.861
21
-93.4935
0
LINE
8
BLACK
6
CONTINUOUS
10
144.861
20
-93.4935
11
145.004
21
-93.4961
0
LINE
8
BLACK
6
CONTINUOUS
10
145.004
20
-93.4961
11
152.942
21
-93.4961
0
LINE
8
BLACK
6
CONTINUOUS
10
152.942
20
-93.4961
11
153.085
21
-93.4935
0
LINE
8
BLACK
6
CONTINUOUS
10
153.085
20
-93.4935
11
153.368
21
-93.4529
0
LINE
8
BLACK
6
CONTINUOUS
10
153.368
20
-93.4529
11
153.642
21
-93.3724
0
LINE
8
BLACK
6
CONTINUOUS
10
153.642
20
-93.3724
11
153.902
21
-93.2537
0
LINE
8
BLACK
6
CONTINUOUS
10
153.902
20
-93.2537
11
154.142
21
-93.0992
0
LINE
8
BLACK
6
CONTINUOUS
10
154.142
20
-93.0992
11
154.358
21
-92.9121
0
LINE
8
BLACK
6
CONTINUOUS
10
154.358
20
-92.9121
11
154.545
21
-92.6961
0
LINE
8
BLACK
6
CONTINUOUS
10
154.545
20
-92.6961
11
154.7
21
-92.4558
0
LINE
8
BLACK
6
CONTINUOUS
10
154.7
20
-92.4558
11
154.819
21
-92.1959
0
LINE
8
BLACK
6
CONTINUOUS
10
154.819
20
-92.1959
11
154.899
21
-91.9217
0
LINE
8
BLACK
6
CONTINUOUS
10
154.899
20
-91.9217
11
154.94
21
-91.6389
0
LINE
8
BLACK
6
CONTINUOUS
10
154.94
20
-91.6389
11
154.942
21
-91.4961
0
LINE
8
BLACK
6
CONTINUOUS
10
154.942
20
-91.4961
11
154.942
21
-74.483
0
LINE
8
BLACK
6
CONTINUOUS
10
154.942
20
-74.483
11
154.945
21
-74.3356
0
LINE
8
BLACK
6
CONTINUOUS
10
154.945
20
-74.3356
11
154.988
21
-74.0442
0
LINE
8
BLACK
6
CONTINUOUS
10
154.988
20
-74.0442
11
155.074
21
-73.7622
0
LINE
8
BLACK
6
CONTINUOUS
10
155.074
20
-73.7622
11
155.2
21
-73.4958
0
LINE
8
BLACK
6
CONTINUOUS
10
155.2
20
-73.4958
11
155.363
21
-73.2508
0
LINE
8
BLACK
6
CONTINUOUS
10
155.363
20
-73.2508
11
155.561
21
-73.0324
0
LINE
8
BLACK
6
CONTINUOUS
10
155.561
20
-73.0324
11
155.789
21
-72.8455
0
LINE
8
BLACK
6
CONTINUOUS
10
155.789
20
-72.8455
11
156.042
21
-72.694
0
LINE
8
BLACK
6
CONTINUOUS
10
156.042
20
-72.694
11
156.314
21
-72.5813
0
LINE
8
BLACK
6
CONTINUOUS
10
156.314
20
-72.5813
11
156.456
21
-72.5429
0
LINE
8
BLACK
6
CONTINUOUS
10
156.456
20
-72.5429
11
171.562
21
-68.76
0
LINE
8
BLACK
6
CONTINUOUS
10
171.562
20
-68.76
11
185.14
21
-65.1202
0
LINE
8
BLACK
6
CONTINUOUS
10
185.14
20
-65.1202
11
185.33
21
-65.067
0
LINE
8
BLACK
6
CONTINUOUS
10
185.33
20
-65.067
11
185.697
21
-64.9286
0
LINE
8
BLACK
6
CONTINUOUS
10
185.697
20
-64.9286
11
186.049
21
-64.7549
0
LINE
8
BLACK
6
CONTINUOUS
10
186.049
20
-64.7549
11
186.383
21
-64.5475
0
LINE
8
BLACK
6
CONTINUOUS
10
186.383
20
-64.5475
11
186.694
21
-64.3083
0
LINE
8
BLACK
6
CONTINUOUS
10
186.694
20
-64.3083
11
186.981
21
-64.0399
0
LINE
8
BLACK
6
CONTINUOUS
10
186.981
20
-64.0399
11
187.24
21
-63.7446
0
LINE
8
BLACK
6
CONTINUOUS
10
187.24
20
-63.7446
11
187.469
21
-63.4253
0
LINE
8
BLACK
6
CONTINUOUS
10
187.469
20
-63.4253
11
187.665
21
-63.0852
0
LINE
8
BLACK
6
CONTINUOUS
10
187.665
20
-63.0852
11
187.827
21
-62.7274
0
LINE
8
BLACK
6
CONTINUOUS
10
187.827
20
-62.7274
11
187.953
21
-62.3555
0
LINE
8
BLACK
6
CONTINUOUS
10
187.953
20
-62.3555
11
188.043
21
-61.9731
0
LINE
8
BLACK
6
CONTINUOUS
10
188.043
20
-61.9731
11
188.094
21
-61.5837
0
LINE
8
BLACK
6
CONTINUOUS
10
188.094
20
-61.5837
11
188.107
21
-61.1911
0
LINE
8
BLACK
6
CONTINUOUS
10
188.107
20
-61.1911
11
188.081
21
-60.7992
0
LINE
8
BLACK
6
CONTINUOUS
10
188.081
20
-60.7992
11
188.017
21
-60.4117
0
LINE
8
BLACK
6
CONTINUOUS
10
188.017
20
-60.4117
11
187.969
21
-60.2214
0
LINE
8
BLACK
6
CONTINUOUS
10
187.969
20
-60.2214
11
186.717
21
-55.5486
0
LINE
8
BLACK
6
CONTINUOUS
10
186.717
20
-55.5486
11
186.682
21
-55.41
0
LINE
8
BLACK
6
CONTINUOUS
10
186.682
20
-55.41
11
186.648
21
-55.1263
0
LINE
8
BLACK
6
CONTINUOUS
10
186.648
20
-55.1263
11
186.655
21
-54.8407
0
LINE
8
BLACK
6
CONTINUOUS
10
186.655
20
-54.8407
11
186.702
21
-54.559
0
LINE
8
BLACK
6
CONTINUOUS
10
186.702
20
-54.559
11
186.789
21
-54.2869
0
LINE
8
BLACK
6
CONTINUOUS
10
186.789
20
-54.2869
11
186.914
21
-54.0299
0
LINE
8
BLACK
6
CONTINUOUS
10
186.914
20
-54.0299
11
187.074
21
-53.7933
0
LINE
8
BLACK
6
CONTINUOUS
10
187.074
20
-53.7933
11
187.266
21
-53.5819
0
LINE
8
BLACK
6
CONTINUOUS
10
187.266
20
-53.5819
11
187.487
21
-53.4
0
LINE
8
BLACK
6
CONTINUOUS
10
187.487
20
-53.4
11
187.731
21
-53.2512
0
LINE
8
BLACK
6
CONTINUOUS
10
187.731
20
-53.2512
11
187.993
21
-53.1387
0
LINE
8
BLACK
6
CONTINUOUS
10
187.993
20
-53.1387
11
188.13
21
-53.0993
0
LINE
8
BLACK
6
CONTINUOUS
10
188.13
20
-53.0993
11
201.864
21
-49.416
0
LINE
8
BLACK
6
CONTINUOUS
10
201.864
20
-49.416
11
202.053
21
-49.3628
0
LINE
8
BLACK
6
CONTINUOUS
10
202.053
20
-49.3628
11
202.42
21
-49.2245
0
LINE
8
BLACK
6
CONTINUOUS
10
202.42
20
-49.2245
11
202.772
21
-49.0509
0
LINE
8
BLACK
6
CONTINUOUS
10
202.772
20
-49.0509
11
203.105
21
-48.8436
0
LINE
8
BLACK
6
CONTINUOUS
10
203.105
20
-48.8436
11
203.417
21
-48.6047
0
LINE
8
BLACK
6
CONTINUOUS
10
203.417
20
-48.6047
11
203.703
21
-48.3364
0
LINE
8
BLACK
6
CONTINUOUS
10
203.703
20
-48.3364
11
203.962
21
-48.0414
0
LINE
8
BLACK
6
CONTINUOUS
10
203.962
20
-48.0414
11
204.191
21
-47.7224
0
LINE
8
BLACK
6
CONTINUOUS
10
204.191
20
-47.7224
11
204.387
21
-47.3826
0
LINE
8
BLACK
6
CONTINUOUS
10
204.387
20
-47.3826
11
204.549
21
-47.0251
0
LINE
8
BLACK
6
CONTINUOUS
10
204.549
20
-47.0251
11
204.676
21
-46.6535
0
LINE
8
BLACK
6
CONTINUOUS
10
204.676
20
-46.6535
11
204.765
21
-46.2713
0
LINE
8
BLACK
6
CONTINUOUS
10
204.765
20
-46.2713
11
204.817
21
-45.8822
0
LINE
8
BLACK
6
CONTINUOUS
10
204.817
20
-45.8822
11
204.83
21
-45.4899
0
LINE
8
BLACK
6
CONTINUOUS
10
204.83
20
-45.4899
11
204.804
21
-45.0983
0
LINE
8
BLACK
6
CONTINUOUS
10
204.804
20
-45.0983
11
204.741
21
-44.711
0
LINE
8
BLACK
6
CONTINUOUS
10
204.741
20
-44.711
11
204.692
21
-44.5207
0
LINE
8
BLACK
6
CONTINUOUS
10
204.692
20
-44.5207
11
204.672
21
-44.4432
0
LINE
8
BLACK
6
CONTINUOUS
10
204.672
20
-44.4432
11
204.637
21
-44.3046
0
LINE
8
BLACK
6
CONTINUOUS
10
204.637
20
-44.3046
11
204.604
21
-44.021
0
LINE
8
BLACK
6
CONTINUOUS
10
204.604
20
-44.021
11
204.611
21
-43.7356
0
LINE
8
BLACK
6
CONTINUOUS
10
204.611
20
-43.7356
11
204.658
21
-43.454
0
LINE
8
BLACK
6
CONTINUOUS
10
204.658
20
-43.454
11
204.745
21
-43.182
0
LINE
8
BLACK
6
CONTINUOUS
10
204.745
20
-43.182
11
204.87
21
-42.9252
0
LINE
8
BLACK
6
CONTINUOUS
10
204.87
20
-42.9252
11
205.03
21
-42.6888
0
LINE
8
BLACK
6
CONTINUOUS
10
205.03
20
-42.6888
11
205.222
21
-42.4775
0
LINE
8
BLACK
6
CONTINUOUS
10
205.222
20
-42.4775
11
205.443
21
-42.2958
0
LINE
8
BLACK
6
CONTINUOUS
10
205.443
20
-42.2958
11
205.687
21
-42.1472
0
LINE
8
BLACK
6
CONTINUOUS
10
205.687
20
-42.1472
11
205.949
21
-42.0348
0
LINE
8
BLACK
6
CONTINUOUS
10
205.949
20
-42.0348
11
206.086
21
-41.9955
0
LINE
8
BLACK
6
CONTINUOUS
10
206.086
20
-41.9955
11
220.625
21
-38.1008
0
LINE
8
BLACK
6
CONTINUOUS
10
220.625
20
-38.1008
11
220.764
21
-38.0663
0
LINE
8
BLACK
6
CONTINUOUS
10
220.764
20
-38.0663
11
221.047
21
-38.0325
0
LINE
8
BLACK
6
CONTINUOUS
10
221.047
20
-38.0325
11
221.333
21
-38.0393
0
LINE
8
BLACK
6
CONTINUOUS
10
221.333
20
-38.0393
11
221.615
21
-38.0866
0
LINE
8
BLACK
6
CONTINUOUS
10
221.615
20
-38.0866
11
221.887
21
-38.1736
0
LINE
8
BLACK
6
CONTINUOUS
10
221.887
20
-38.1736
11
222.144
21
-38.2983
0
LINE
8
BLACK
6
CONTINUOUS
10
222.144
20
-38.2983
11
222.38
21
-38.4584
0
LINE
8
BLACK
6
CONTINUOUS
10
222.38
20
-38.4584
11
222.592
21
-38.6504
0
LINE
8
BLACK
6
CONTINUOUS
10
222.592
20
-38.6504
11
222.774
21
-38.8706
0
LINE
8
BLACK
6
CONTINUOUS
10
222.774
20
-38.8706
11
222.922
21
-39.1144
0
LINE
8
BLACK
6
CONTINUOUS
10
222.922
20
-39.1144
11
223.035
21
-39.3769
0
LINE
8
BLACK
6
CONTINUOUS
10
223.035
20
-39.3769
11
223.074
21
-39.5142
0
LINE
8
BLACK
6
CONTINUOUS
10
223.074
20
-39.5142
11
223.374
21
-40.6288
0
LINE
8
BLACK
6
CONTINUOUS
10
223.374
20
-40.6288
11
223.429
21
-40.8259
0
LINE
8
BLACK
6
CONTINUOUS
10
223.429
20
-40.8259
11
223.575
21
-41.2084
0
LINE
8
BLACK
6
CONTINUOUS
10
223.575
20
-41.2084
11
223.759
21
-41.574
0
LINE
8
BLACK
6
CONTINUOUS
10
223.759
20
-41.574
11
223.98
21
-41.9188
0
LINE
8
BLACK
6
CONTINUOUS
10
223.98
20
-41.9188
11
224.235
21
-42.2393
0
LINE
8
BLACK
6
CONTINUOUS
10
224.235
20
-42.2393
11
224.521
21
-42.5321
0
LINE
8
BLACK
6
CONTINUOUS
10
224.521
20
-42.5321
11
224.836
21
-42.7942
0
LINE
8
BLACK
6
CONTINUOUS
10
224.836
20
-42.7942
11
225.175
21
-43.0227
0
LINE
8
BLACK
6
CONTINUOUS
10
225.175
20
-43.0227
11
225.537
21
-43.2153
0
LINE
8
BLACK
6
CONTINUOUS
10
225.537
20
-43.2153
11
225.916
21
-43.3701
0
LINE
8
BLACK
6
CONTINUOUS
10
225.916
20
-43.3701
11
226.309
21
-43.4853
0
LINE
8
BLACK
6
CONTINUOUS
10
226.309
20
-43.4853
11
226.711
21
-43.5597
0
LINE
8
BLACK
6
CONTINUOUS
10
226.711
20
-43.5597
11
227.119
21
-43.5927
0
LINE
8
BLACK
6
CONTINUOUS
10
227.119
20
-43.5927
11
227.529
21
-43.5838
0
LINE
8
BLACK
6
CONTINUOUS
10
227.529
20
-43.5838
11
227.935
21
-43.5331
0
LINE
8
BLACK
6
CONTINUOUS
10
227.935
20
-43.5331
11
228.135
21
-43.4897
0
LINE
8
BLACK
6
CONTINUOUS
10
228.135
20
-43.4897
11
243.776
21
-39.8859
0
LINE
8
BLACK
6
CONTINUOUS
10
243.776
20
-39.8859
11
243.916
21
-39.8562
0
LINE
8
BLACK
6
CONTINUOUS
10
243.916
20
-39.8562
11
244.2
21
-39.8323
0
LINE
8
BLACK
6
CONTINUOUS
10
244.2
20
-39.8323
11
244.485
21
-39.8491
0
LINE
8
BLACK
6
CONTINUOUS
10
244.485
20
-39.8491
11
244.765
21
-39.9064
0
LINE
8
BLACK
6
CONTINUOUS
10
244.765
20
-39.9064
11
245.034
21
-40.0029
0
LINE
8
BLACK
6
CONTINUOUS
10
245.034
20
-40.0029
11
245.287
21
-40.1367
0
LINE
8
BLACK
6
CONTINUOUS
10
245.287
20
-40.1367
11
245.517
21
-40.305
0
LINE
8
BLACK
6
CONTINUOUS
10
245.517
20
-40.305
11
245.722
21
-40.5045
0
LINE
8
BLACK
6
CONTINUOUS
10
245.722
20
-40.5045
11
245.896
21
-40.731
0
LINE
8
BLACK
6
CONTINUOUS
10
245.896
20
-40.731
11
246.036
21
-40.9801
0
LINE
8
BLACK
6
CONTINUOUS
10
246.036
20
-40.9801
11
246.139
21
-41.2465
0
LINE
8
BLACK
6
CONTINUOUS
10
246.139
20
-41.2465
11
246.174
21
-41.3851
0
LINE
8
BLACK
6
CONTINUOUS
10
246.174
20
-41.3851
11
247.616
21
-47.6326
0
LINE
8
BLACK
6
CONTINUOUS
10
247.616
20
-47.6326
11
247.664
21
-47.8316
0
LINE
8
BLACK
6
CONTINUOUS
10
247.664
20
-47.8316
11
247.797
21
-48.2192
0
LINE
8
BLACK
6
CONTINUOUS
10
247.797
20
-48.2192
11
247.968
21
-48.5913
0
LINE
8
BLACK
6
CONTINUOUS
10
247.968
20
-48.5913
11
248.177
21
-48.9439
0
LINE
8
BLACK
6
CONTINUOUS
10
248.177
20
-48.9439
11
248.42
21
-49.2733
0
LINE
8
BLACK
6
CONTINUOUS
10
248.42
20
-49.2733
11
248.696
21
-49.5762
0
LINE
8
BLACK
6
CONTINUOUS
10
248.696
20
-49.5762
11
249.001
21
-49.8493
0
LINE
8
BLACK
6
CONTINUOUS
10
249.001
20
-49.8493
11
249.333
21
-50.0897
0
LINE
8
BLACK
6
CONTINUOUS
10
249.333
20
-50.0897
11
249.687
21
-50.295
0
LINE
8
BLACK
6
CONTINUOUS
10
249.687
20
-50.295
11
250.061
21
-50.4629
0
LINE
8
BLACK
6
CONTINUOUS
10
250.061
20
-50.4629
11
250.45
21
-50.5918
0
LINE
8
BLACK
6
CONTINUOUS
10
250.45
20
-50.5918
11
250.85
21
-50.6803
0
LINE
8
BLACK
6
CONTINUOUS
10
250.85
20
-50.6803
11
251.257
21
-50.7275
0
LINE
8
BLACK
6
CONTINUOUS
10
251.257
20
-50.7275
11
251.666
21
-50.7328
0
LINE
8
BLACK
6
CONTINUOUS
10
251.666
20
-50.7328
11
252.074
21
-50.6962
0
LINE
8
BLACK
6
CONTINUOUS
10
252.074
20
-50.6962
11
252.276
21
-50.6597
0
LINE
8
BLACK
6
CONTINUOUS
10
252.276
20
-50.6597
11
267.752
21
-47.6544
0
LINE
8
BLACK
6
CONTINUOUS
10
267.752
20
-47.6544
11
267.892
21
-47.6297
0
LINE
8
BLACK
6
CONTINUOUS
10
267.892
20
-47.6297
11
268.178
21
-47.6157
0
LINE
8
BLACK
6
CONTINUOUS
10
268.178
20
-47.6157
11
268.462
21
-47.6424
0
LINE
8
BLACK
6
CONTINUOUS
10
268.462
20
-47.6424
11
268.74
21
-47.7094
0
LINE
8
BLACK
6
CONTINUOUS
10
268.74
20
-47.7094
11
269.005
21
-47.8152
0
LINE
8
BLACK
6
CONTINUOUS
10
269.005
20
-47.8152
11
269.253
21
-47.9576
0
LINE
8
BLACK
6
CONTINUOUS
10
269.253
20
-47.9576
11
269.478
21
-48.1338
0
LINE
8
BLACK
6
CONTINUOUS
10
269.478
20
-48.1338
11
269.675
21
-48.3403
0
LINE
8
BLACK
6
CONTINUOUS
10
269.675
20
-48.3403
11
269.841
21
-48.5727
0
LINE
8
BLACK
6
CONTINUOUS
10
269.841
20
-48.5727
11
269.973
21
-48.8264
0
LINE
8
BLACK
6
CONTINUOUS
10
269.973
20
-48.8264
11
270.066
21
-49.0962
0
LINE
8
BLACK
6
CONTINUOUS
10
270.066
20
-49.0962
11
270.096
21
-49.2359
0
LINE
8
BLACK
6
CONTINUOUS
10
270.096
20
-49.2359
11
276.828
21
-83.8502
0
LINE
8
BLACK
6
CONTINUOUS
10
276.828
20
-83.8502
11
276.853
21
-83.991
0
LINE
8
BLACK
6
CONTINUOUS
10
276.853
20
-83.991
11
276.867
21
-84.2763
0
LINE
8
BLACK
6
CONTINUOUS
10
276.867
20
-84.2763
11
276.84
21
-84.5608
0
LINE
8
BLACK
6
CONTINUOUS
10
276.84
20
-84.5608
11
276.773
21
-84.8385
0
LINE
8
BLACK
6
CONTINUOUS
10
276.773
20
-84.8385
11
276.667
21
-85.104
0
LINE
8
BLACK
6
CONTINUOUS
10
276.667
20
-85.104
11
276.525
21
-85.3516
0
LINE
8
BLACK
6
CONTINUOUS
10
276.525
20
-85.3516
11
276.349
21
-85.5765
0
LINE
8
BLACK
6
CONTINUOUS
10
276.349
20
-85.5765
11
276.142
21
-85.774
0
LINE
8
BLACK
6
CONTINUOUS
10
276.142
20
-85.774
11
275.91
21
-85.9401
0
LINE
8
BLACK
6
CONTINUOUS
10
275.91
20
-85.9401
11
275.656
21
-86.0715
0
LINE
8
BLACK
6
CONTINUOUS
10
275.656
20
-86.0715
11
275.386
21
-86.1654
0
LINE
8
BLACK
6
CONTINUOUS
10
275.386
20
-86.1654
11
275.246
21
-86.1952
0
LINE
8
BLACK
6
CONTINUOUS
10
275.246
20
-86.1952
11
261.389
21
-88.8908
0
LINE
8
BLACK
6
CONTINUOUS
10
261.389
20
-88.8908
11
261.193
21
-88.9316
0
LINE
8
BLACK
6
CONTINUOUS
10
261.193
20
-88.9316
11
260.808
21
-89.0473
0
LINE
8
BLACK
6
CONTINUOUS
10
260.808
20
-89.0473
11
260.437
21
-89.201
0
LINE
8
BLACK
6
CONTINUOUS
10
260.437
20
-89.201
11
260.084
21
-89.391
0
LINE
8
BLACK
6
CONTINUOUS
10
260.084
20
-89.391
11
259.751
21
-89.6155
0
LINE
8
BLACK
6
CONTINUOUS
10
259.751
20
-89.6155
11
259.442
21
-89.8723
0
LINE
8
BLACK
6
CONTINUOUS
10
259.442
20
-89.8723
11
259.161
21
-90.1586
0
LINE
8
BLACK
6
CONTINUOUS
10
259.161
20
-90.1586
11
258.91
21
-90.4717
0
LINE
8
BLACK
6
CONTINUOUS
10
258.91
20
-90.4717
11
258.691
21
-90.8084
0
LINE
8
BLACK
6
CONTINUOUS
10
258.691
20
-90.8084
11
258.507
21
-91.1653
0
LINE
8
BLACK
6
CONTINUOUS
10
258.507
20
-91.1653
11
258.36
21
-91.5389
0
LINE
8
BLACK
6
CONTINUOUS
10
258.36
20
-91.5389
11
258.251
21
-91.9253
0
LINE
8
BLACK
6
CONTINUOUS
10
258.251
20
-91.9253
11
258.181
21
-92.3206
0
LINE
8
BLACK
6
CONTINUOUS
10
258.181
20
-92.3206
11
258.152
21
-92.721
0
LINE
8
BLACK
6
CONTINUOUS
10
258.152
20
-92.721
11
258.162
21
-93.1223
0
LINE
8
BLACK
6
CONTINUOUS
10
258.162
20
-93.1223
11
258.213
21
-93.5205
0
LINE
8
BLACK
6
CONTINUOUS
10
258.213
20
-93.5205
11
258.255
21
-93.7167
0
LINE
8
BLACK
6
CONTINUOUS
10
258.255
20
-93.7167
11
258.605
21
-95.2328
0
LINE
8
BLACK
6
CONTINUOUS
10
258.605
20
-95.2328
11
258.635
21
-95.3726
0
LINE
8
BLACK
6
CONTINUOUS
10
258.635
20
-95.3726
11
258.659
21
-95.6573
0
LINE
8
BLACK
6
CONTINUOUS
10
258.659
20
-95.6573
11
258.642
21
-95.9426
0
LINE
8
BLACK
6
CONTINUOUS
10
258.642
20
-95.9426
11
258.585
21
-96.2225
0
LINE
8
BLACK
6
CONTINUOUS
10
258.585
20
-96.2225
11
258.488
21
-96.4915
0
LINE
8
BLACK
6
CONTINUOUS
10
258.488
20
-96.4915
11
258.355
21
-96.7439
0
LINE
8
BLACK
6
CONTINUOUS
10
258.355
20
-96.7439
11
258.186
21
-96.9748
0
LINE
8
BLACK
6
CONTINUOUS
10
258.186
20
-96.9748
11
257.987
21
-97.1794
0
LINE
8
BLACK
6
CONTINUOUS
10
257.987
20
-97.1794
11
257.76
21
-97.3535
0
LINE
8
BLACK
6
CONTINUOUS
10
257.76
20
-97.3535
11
257.511
21
-97.4936
0
LINE
8
BLACK
6
CONTINUOUS
10
257.511
20
-97.4936
11
257.245
21
-97.5968
0
LINE
8
BLACK
6
CONTINUOUS
10
257.245
20
-97.5968
11
257.106
21
-97.6314
0
LINE
8
BLACK
6
CONTINUOUS
10
257.106
20
-97.6314
11
242.443
21
-101.014
0
LINE
8
BLACK
6
CONTINUOUS
10
242.443
20
-101.014
11
242.303
21
-101.044
0
LINE
8
BLACK
6
CONTINUOUS
10
242.303
20
-101.044
11
242.018
21
-101.068
0
LINE
8
BLACK
6
CONTINUOUS
10
242.018
20
-101.068
11
241.733
21
-101.051
0
LINE
8
BLACK
6
CONTINUOUS
10
241.733
20
-101.051
11
241.453
21
-100.994
0
LINE
8
BLACK
6
CONTINUOUS
10
241.453
20
-100.994
11
241.184
21
-100.897
0
LINE
8
BLACK
6
CONTINUOUS
10
241.184
20
-100.897
11
240.931
21
-100.763
0
LINE
8
BLACK
6
CONTINUOUS
10
240.931
20
-100.763
11
240.701
21
-100.595
0
LINE
8
BLACK
6
CONTINUOUS
10
240.701
20
-100.595
11
240.496
21
-100.395
0
LINE
8
BLACK
6
CONTINUOUS
10
240.496
20
-100.395
11
240.322
21
-100.168
0
LINE
8
BLACK
6
CONTINUOUS
10
240.322
20
-100.168
11
240.182
21
-99.9192
0
LINE
8
BLACK
6
CONTINUOUS
10
240.182
20
-99.9192
11
240.079
21
-99.6526
0
LINE
8
BLACK
6
CONTINUOUS
10
240.079
20
-99.6526
11
240.044
21
-99.5139
0
LINE
8
BLACK
6
CONTINUOUS
10
240.044
20
-99.5139
11
239.848
21
-98.6617
0
LINE
8
BLACK
6
CONTINUOUS
10
239.848
20
-98.6617
11
239.801
21
-98.4665
0
LINE
8
BLACK
6
CONTINUOUS
10
239.801
20
-98.4665
11
239.672
21
-98.0861
0
LINE
8
BLACK
6
CONTINUOUS
10
239.672
20
-98.0861
11
239.505
21
-97.7205
0
LINE
8
BLACK
6
CONTINUOUS
10
239.505
20
-97.7205
11
239.303
21
-97.3734
0
LINE
8
BLACK
6
CONTINUOUS
10
239.303
20
-97.3734
11
239.067
21
-97.0483
0
LINE
8
BLACK
6
CONTINUOUS
10
239.067
20
-97.0483
11
238.8
21
-96.7485
0
LINE
8
BLACK
6
CONTINUOUS
10
238.8
20
-96.7485
11
238.504
21
-96.4771
0
LINE
8
BLACK
6
CONTINUOUS
10
238.504
20
-96.4771
11
238.182
21
-96.2366
0
LINE
8
BLACK
6
CONTINUOUS
10
238.182
20
-96.2366
11
237.838
21
-96.0297
0
LINE
8
BLACK
6
CONTINUOUS
10
237.838
20
-96.0297
11
237.475
21
-95.8582
0
LINE
8
BLACK
6
CONTINUOUS
10
237.475
20
-95.8582
11
237.096
21
-95.7241
0
LINE
8
BLACK
6
CONTINUOUS
10
237.096
20
-95.7241
11
236.706
21
-95.6285
0
LINE
8
BLACK
6
CONTINUOUS
10
236.706
20
-95.6285
11
236.308
21
-95.5726
0
LINE
8
BLACK
6
CONTINUOUS
10
236.308
20
-95.5726
11
235.907
21
-95.5568
0
LINE
8
BLACK
6
CONTINUOUS
10
235.907
20
-95.5568
11
235.506
21
-95.5813
0
LINE
8
BLACK
6
CONTINUOUS
10
235.506
20
-95.5813
11
235.109
21
-95.6458
0
LINE
8
BLACK
6
CONTINUOUS
10
235.109
20
-95.6458
11
234.915
21
-95.6955
0
LINE
8
BLACK
6
CONTINUOUS
10
234.915
20
-95.6955
11
222.247
21
-99.0905
0
LINE
8
BLACK
6
CONTINUOUS
10
222.247
20
-99.0905
11
222.058
21
-99.1436
0
LINE
8
BLACK
6
CONTINUOUS
10
222.058
20
-99.1436
11
221.691
21
-99.2819
0
LINE
8
BLACK
6
CONTINUOUS
10
221.691
20
-99.2819
11
221.339
21
-99.4555
0
LINE
8
BLACK
6
CONTINUOUS
10
221.339
20
-99.4555
11
221.006
21
-99.6628
0
LINE
8
BLACK
6
CONTINUOUS
10
221.006
20
-99.6628
11
220.694
21
-99.9017
0
LINE
8
BLACK
6
CONTINUOUS
10
220.694
20
-99.9017
11
220.408
21
-100.17
0
LINE
8
BLACK
6
CONTINUOUS
10
220.408
20
-100.17
11
220.149
21
-100.465
0
LINE
8
BLACK
6
CONTINUOUS
10
220.149
20
-100.465
11
219.92
21
-100.784
0
LINE
8
BLACK
6
CONTINUOUS
10
219.92
20
-100.784
11
219.723
21
-101.124
0
LINE
8
BLACK
6
CONTINUOUS
10
219.723
20
-101.124
11
219.561
21
-101.482
0
LINE
8
BLACK
6
CONTINUOUS
10
219.561
20
-101.482
11
219.435
21
-101.853
0
LINE
8
BLACK
6
CONTINUOUS
10
219.435
20
-101.853
11
219.346
21
-102.236
0
LINE
8
BLACK
6
CONTINUOUS
10
219.346
20
-102.236
11
219.294
21
-102.625
0
LINE
8
BLACK
6
CONTINUOUS
10
219.294
20
-102.625
11
219.281
21
-103.017
0
LINE
8
BLACK
6
CONTINUOUS
10
219.281
20
-103.017
11
219.307
21
-103.409
0
LINE
8
BLACK
6
CONTINUOUS
10
219.307
20
-103.409
11
219.37
21
-103.796
0
LINE
8
BLACK
6
CONTINUOUS
10
219.37
20
-103.796
11
219.418
21
-103.986
0
LINE
8
BLACK
6
CONTINUOUS
10
219.418
20
-103.986
11
219.511
21
-104.332
0
LINE
8
BLACK
6
CONTINUOUS
10
219.511
20
-104.332
11
219.545
21
-104.47
0
LINE
8
BLACK
6
CONTINUOUS
10
219.545
20
-104.47
11
219.579
21
-104.754
0
LINE
8
BLACK
6
CONTINUOUS
10
219.579
20
-104.754
11
219.572
21
-105.039
0
LINE
8
BLACK
6
CONTINUOUS
10
219.572
20
-105.039
11
219.524
21
-105.321
0
LINE
8
BLACK
6
CONTINUOUS
10
219.524
20
-105.321
11
219.437
21
-105.593
0
LINE
8
BLACK
6
CONTINUOUS
10
219.437
20
-105.593
11
219.313
21
-105.849
0
LINE
8
BLACK
6
CONTINUOUS
10
219.313
20
-105.849
11
219.152
21
-106.086
0
LINE
8
BLACK
6
CONTINUOUS
10
219.152
20
-106.086
11
218.96
21
-106.297
0
LINE
8
BLACK
6
CONTINUOUS
10
218.96
20
-106.297
11
218.74
21
-106.479
0
LINE
8
BLACK
6
CONTINUOUS
10
218.74
20
-106.479
11
218.497
21
-106.628
0
LINE
8
BLACK
6
CONTINUOUS
10
218.497
20
-106.628
11
218.234
21
-106.74
0
LINE
8
BLACK
6
CONTINUOUS
10
218.234
20
-106.74
11
218.097
21
-106.78
0
LINE
8
BLACK
6
CONTINUOUS
10
218.097
20
-106.78
11
216.384
21
-107.239
0
LINE
8
BLACK
6
CONTINUOUS
10
216.384
20
-107.239
11
210.741
21
-108.75
0
LINE
8
BLACK
6
CONTINUOUS
10
210.741
20
-108.75
11
210.433
21
-108.835
0
LINE
8
BLACK
6
CONTINUOUS
10
210.433
20
-108.835
11
209.827
21
-109.04
0
LINE
8
BLACK
6
CONTINUOUS
10
209.827
20
-109.04
11
209.235
21
-109.283
0
LINE
8
BLACK
6
CONTINUOUS
10
209.235
20
-109.283
11
208.66
21
-109.563
0
LINE
8
BLACK
6
CONTINUOUS
10
208.66
20
-109.563
11
208.104
21
-109.879
0
LINE
8
BLACK
6
CONTINUOUS
10
208.104
20
-109.879
11
207.569
21
-110.231
0
LINE
8
BLACK
6
CONTINUOUS
10
207.569
20
-110.231
11
207.058
21
-110.616
0
LINE
8
BLACK
6
CONTINUOUS
10
207.058
20
-110.616
11
206.573
21
-111.032
0
LINE
8
BLACK
6
CONTINUOUS
10
206.573
20
-111.032
11
206.115
21
-111.479
0
LINE
8
BLACK
6
CONTINUOUS
10
206.115
20
-111.479
11
205.687
21
-111.955
0
LINE
8
BLACK
6
CONTINUOUS
10
205.687
20
-111.955
11
205.29
21
-112.456
0
LINE
8
BLACK
6
CONTINUOUS
10
205.29
20
-112.456
11
204.925
21
-112.982
0
LINE
8
BLACK
6
CONTINUOUS
10
204.925
20
-112.982
11
204.596
21
-113.53
0
LINE
8
BLACK
6
CONTINUOUS
10
204.596
20
-113.53
11
204.302
21
-114.099
0
LINE
8
BLACK
6
CONTINUOUS
10
204.302
20
-114.099
11
204.044
21
-114.685
0
LINE
8
BLACK
6
CONTINUOUS
10
204.044
20
-114.685
11
203.825
21
-115.286
0
LINE
8
BLACK
6
CONTINUOUS
10
203.825
20
-115.286
11
203.645
21
-115.899
0
LINE
8
BLACK
6
CONTINUOUS
10
203.645
20
-115.899
11
203.504
21
-116.524
0
LINE
8
BLACK
6
CONTINUOUS
10
203.504
20
-116.524
11
203.404
21
-117.155
0
LINE
8
BLACK
6
CONTINUOUS
10
203.404
20
-117.155
11
203.344
21
-117.792
0
LINE
8
BLACK
6
CONTINUOUS
10
203.344
20
-117.792
11
203.325
21
-118.432
0
LINE
8
BLACK
6
CONTINUOUS
10
203.325
20
-118.432
11
203.347
21
-119.071
0
LINE
8
BLACK
6
CONTINUOUS
10
203.347
20
-119.071
11
203.41
21
-119.708
0
LINE
8
BLACK
6
CONTINUOUS
10
203.41
20
-119.708
11
203.513
21
-120.339
0
LINE
8
BLACK
6
CONTINUOUS
10
203.513
20
-120.339
11
203.656
21
-120.963
0
LINE
8
BLACK
6
CONTINUOUS
10
203.656
20
-120.963
11
203.839
21
-121.576
0
LINE
8
BLACK
6
CONTINUOUS
10
203.839
20
-121.576
11
204.061
21
-122.176
0
LINE
8
BLACK
6
CONTINUOUS
10
204.061
20
-122.176
11
204.189
21
-122.47
0
LINE
8
BLACK
6
CONTINUOUS
10
204.189
20
-122.47
11
206.561
21
-127.809
0
LINE
8
BLACK
6
CONTINUOUS
10
206.561
20
-127.809
11
207.149
21
-129.136
0
LINE
8
BLACK
6
CONTINUOUS
10
207.149
20
-129.136
11
207.205
21
-129.267
0
LINE
8
BLACK
6
CONTINUOUS
10
207.205
20
-129.267
11
207.282
21
-129.542
0
LINE
8
BLACK
6
CONTINUOUS
10
207.282
20
-129.542
11
207.32
21
-129.825
0
LINE
8
BLACK
6
CONTINUOUS
10
207.32
20
-129.825
11
207.317
21
-130.11
0
LINE
8
BLACK
6
CONTINUOUS
10
207.317
20
-130.11
11
207.274
21
-130.392
0
LINE
8
BLACK
6
CONTINUOUS
10
207.274
20
-130.392
11
207.191
21
-130.665
0
LINE
8
BLACK
6
CONTINUOUS
10
207.191
20
-130.665
11
207.07
21
-130.923
0
LINE
8
BLACK
6
CONTINUOUS
10
207.07
20
-130.923
11
206.913
21
-131.162
0
LINE
8
BLACK
6
CONTINUOUS
10
206.913
20
-131.162
11
206.725
21
-131.376
0
LINE
8
BLACK
6
CONTINUOUS
10
206.725
20
-131.376
11
206.507
21
-131.561
0
LINE
8
BLACK
6
CONTINUOUS
10
206.507
20
-131.561
11
206.266
21
-131.713
0
LINE
8
BLACK
6
CONTINUOUS
10
206.266
20
-131.713
11
206.137
21
-131.773
0
LINE
8
BLACK
6
CONTINUOUS
10
206.137
20
-131.773
11
192.231
21
-137.983
0
LINE
8
BLACK
6
CONTINUOUS
10
192.231
20
-137.983
11
191.429
21
-138.345
0
LINE
8
BLACK
6
CONTINUOUS
10
191.429
20
-138.345
11
189.843
21
-139.11
0
LINE
8
BLACK
6
CONTINUOUS
10
189.843
20
-139.11
11
188.28
21
-139.921
0
LINE
8
BLACK
6
CONTINUOUS
10
188.28
20
-139.921
11
187.509
21
-140.347
0
LINE
8
BLACK
6
CONTINUOUS
10
187.509
20
-140.347
11
172.259
21
-148.838
0
LINE
8
BLACK
6
CONTINUOUS
10
172.259
20
-148.838
11
171.623
21
-149.157
0
LINE
8
BLACK
6
CONTINUOUS
10
171.623
20
-149.157
11
170.337
21
-149.763
0
LINE
8
BLACK
6
CONTINUOUS
10
170.337
20
-149.763
11
169.036
21
-150.334
0
LINE
8
BLACK
6
CONTINUOUS
10
169.036
20
-150.334
11
167.718
21
-150.869
0
LINE
8
BLACK
6
CONTINUOUS
10
167.718
20
-150.869
11
166.387
21
-151.368
0
LINE
8
BLACK
6
CONTINUOUS
10
166.387
20
-151.368
11
165.043
21
-151.829
0
LINE
8
BLACK
6
CONTINUOUS
10
165.043
20
-151.829
11
163.686
21
-152.254
0
LINE
8
BLACK
6
CONTINUOUS
10
163.686
20
-152.254
11
162.318
21
-152.641
0
LINE
8
BLACK
6
CONTINUOUS
10
162.318
20
-152.641
11
160.94
21
-152.991
0
LINE
8
BLACK
6
CONTINUOUS
10
160.94
20
-152.991
11
159.553
21
-153.303
0
LINE
8
BLACK
6
CONTINUOUS
10
159.553
20
-153.303
11
158.158
21
-153.576
0
LINE
8
BLACK
6
CONTINUOUS
10
158.158
20
-153.576
11
156.756
21
-153.811
0
LINE
8
BLACK
6
CONTINUOUS
10
156.756
20
-153.811
11
155.348
21
-154.008
0
LINE
8
BLACK
6
CONTINUOUS
10
155.348
20
-154.008
11
153.935
21
-154.165
0
LINE
8
BLACK
6
CONTINUOUS
10
153.935
20
-154.165
11
152.519
21
-154.284
0
LINE
8
BLACK
6
CONTINUOUS
10
152.519
20
-154.284
11
151.099
21
-154.364
0
LINE
8
BLACK
6
CONTINUOUS
10
151.099
20
-154.364
11
149.678
21
-154.405
0
LINE
8
BLACK
6
CONTINUOUS
10
149.678
20
-154.405
11
148.257
21
-154.407
0
LINE
8
BLACK
6
CONTINUOUS
10
148.257
20
-154.407
11
146.836
21
-154.37
0
LINE
8
BLACK
6
CONTINUOUS
10
146.836
20
-154.37
11
145.416
21
-154.294
0
LINE
8
BLACK
6
CONTINUOUS
10
145.416
20
-154.294
11
143.999
21
-154.179
0
LINE
8
BLACK
6
CONTINUOUS
10
143.999
20
-154.179
11
142.586
21
-154.025
0
LINE
8
BLACK
6
CONTINUOUS
10
142.586
20
-154.025
11
141.177
21
-153.832
0
LINE
8
BLACK
6
CONTINUOUS
10
141.177
20
-153.832
11
139.775
21
-153.6
0
LINE
8
BLACK
6
CONTINUOUS
10
139.775
20
-153.6
11
138.379
21
-153.331
0
LINE
8
BLACK
6
CONTINUOUS
10
138.379
20
-153.331
11
136.991
21
-153.023
0
LINE
8
BLACK
6
CONTINUOUS
10
136.991
20
-153.023
11
135.612
21
-152.677
0
LINE
8
BLACK
6
CONTINUOUS
10
135.612
20
-152.677
11
134.243
21
-152.293
0
LINE
8
BLACK
6
CONTINUOUS
10
134.243
20
-152.293
11
132.886
21
-151.872
0
LINE
8
BLACK
6
CONTINUOUS
10
132.886
20
-151.872
11
131.54
21
-151.413
0
LINE
8
BLACK
6
CONTINUOUS
10
131.54
20
-151.413
11
130.207
21
-150.918
0
LINE
8
BLACK
6
CONTINUOUS
10
130.207
20
-150.918
11
128.889
21
-150.387
0
LINE
8
BLACK
6
CONTINUOUS
10
128.889
20
-150.387
11
127.585
21
-149.819
0
LINE
8
BLACK
6
CONTINUOUS
10
127.585
20
-149.819
11
126.298
21
-149.216
0
LINE
8
BLACK
6
CONTINUOUS
10
126.298
20
-149.216
11
125.662
21
-148.899
0
LINE
8
BLACK
6
CONTINUOUS
10
125.662
20
-148.899
11
110.218
21
-140.307
0
LINE
8
BLACK
6
CONTINUOUS
10
110.218
20
-140.307
11
109.446
21
-139.882
0
LINE
8
BLACK
6
CONTINUOUS
10
109.446
20
-139.882
11
107.88
21
-139.07
0
LINE
8
BLACK
6
CONTINUOUS
10
107.88
20
-139.07
11
106.292
21
-138.305
0
LINE
8
BLACK
6
CONTINUOUS
10
106.292
20
-138.305
11
105.488
21
-137.943
0
LINE
8
BLACK
6
CONTINUOUS
10
105.488
20
-137.943
11
91.7708
21
-131.825
0
LINE
8
BLACK
6
CONTINUOUS
10
91.7708
20
-131.825
11
91.6414
21
-131.764
0
LINE
8
BLACK
6
CONTINUOUS
10
91.6414
20
-131.764
11
91.3997
21
-131.612
0
LINE
8
BLACK
6
CONTINUOUS
10
91.3997
20
-131.612
11
91.1822
21
-131.427
0
LINE
8
BLACK
6
CONTINUOUS
10
91.1822
20
-131.427
11
90.9932
21
-131.213
0
LINE
8
BLACK
6
CONTINUOUS
10
90.9932
20
-131.213
11
90.8366
21
-130.974
0
LINE
8
BLACK
6
CONTINUOUS
10
90.8366
20
-130.974
11
90.7156
21
-130.715
0
LINE
8
BLACK
6
CONTINUOUS
10
90.7156
20
-130.715
11
90.6326
21
-130.442
0
LINE
8
BLACK
6
CONTINUOUS
10
90.6326
20
-130.442
11
90.5893
21
-130.16
0
LINE
8
BLACK
6
CONTINUOUS
10
90.5893
20
-130.16
11
90.5867
21
-129.874
0
LINE
8
BLACK
6
CONTINUOUS
10
90.5867
20
-129.874
11
90.6247
21
-129.591
0
LINE
8
BLACK
6
CONTINUOUS
10
90.6247
20
-129.591
11
90.7026
21
-129.316
0
LINE
8
BLACK
6
CONTINUOUS
10
90.7026
20
-129.316
11
90.7584
21
-129.185
0
LINE
8
BLACK
6
CONTINUOUS
10
90.7584
20
-129.185
11
91.3801
21
-127.789
0
LINE
8
BLACK
6
CONTINUOUS
10
91.3801
20
-127.789
11
93.7609
21
-122.437
0
LINE
8
BLACK
6
CONTINUOUS
10
93.7609
20
-122.437
11
93.8887
21
-122.144
0
LINE
8
BLACK
6
CONTINUOUS
10
93.8887
20
-122.144
11
94.1108
21
-121.544
0
LINE
8
BLACK
6
CONTINUOUS
10
94.1108
20
-121.544
11
94.2942
21
-120.931
0
LINE
8
BLACK
6
CONTINUOUS
10
94.2942
20
-120.931
11
94.4379
21
-120.307
0
LINE
8
BLACK
6
CONTINUOUS
10
94.4379
20
-120.307
11
94.5415
21
-119.676
0
LINE
8
BLACK
6
CONTINUOUS
10
94.5415
20
-119.676
11
94.6046
21
-119.039
0
LINE
8
BLACK
6
CONTINUOUS
10
94.6046
20
-119.039
11
94.6268
21
-118.4
0
LINE
8
BLACK
6
CONTINUOUS
10
94.6268
20
-118.4
11
94.6081
21
-117.76
0
LINE
8
BLACK
6
CONTINUOUS
10
94.6081
20
-117.76
11
94.5485
21
-117.123
0
LINE
8
BLACK
6
CONTINUOUS
10
94.5485
20
-117.123
11
94.4483
21
-116.491
0
LINE
8
BLACK
6
CONTINUOUS
10
94.4483
20
-116.491
11
94.3079
21
-115.867
0
LINE
8
BLACK
6
CONTINUOUS
10
94.3079
20
-115.867
11
94.1279
21
-115.253
0
LINE
8
BLACK
6
CONTINUOUS
10
94.1279
20
-115.253
11
93.909
21
-114.652
0
LINE
8
BLACK
6
CONTINUOUS
10
93.909
20
-114.652
11
93.6522
21
-114.066
0
LINE
8
BLACK
6
CONTINUOUS
10
93.6522
20
-114.066
11
93.3584
21
-113.497
0
LINE
8
BLACK
6
CONTINUOUS
10
93.3584
20
-113.497
11
93.0288
21
-112.949
0
LINE
8
BLACK
6
CONTINUOUS
10
93.0288
20
-112.949
11
92.6649
21
-112.423
0
LINE
8
BLACK
6
CONTINUOUS
10
92.6649
20
-112.423
11
92.268
21
-111.921
0
LINE
8
BLACK
6
CONTINUOUS
10
92.268
20
-111.921
11
91.8399
21
-111.445
0
LINE
8
BLACK
6
CONTINUOUS
10
91.8399
20
-111.445
11
91.3823
21
-110.998
0
LINE
8
BLACK
6
CONTINUOUS
10
91.3823
20
-110.998
11
90.897
21
-110.581
0
LINE
8
BLACK
6
CONTINUOUS
10
90.897
20
-110.581
11
90.386
21
-110.196
0
LINE
8
BLACK
6
CONTINUOUS
10
90.386
20
-110.196
11
89.8515
21
-109.844
0
LINE
8
BLACK
6
CONTINUOUS
10
89.8515
20
-109.844
11
89.2955
21
-109.528
0
LINE
8
BLACK
6
CONTINUOUS
10
89.2955
20
-109.528
11
88.7205
21
-109.247
0
LINE
8
BLACK
6
CONTINUOUS
10
88.7205
20
-109.247
11
88.1287
21
-109.004
0
LINE
8
BLACK
6
CONTINUOUS
10
88.1287
20
-109.004
11
87.5226
21
-108.799
0
LINE
8
BLACK
6
CONTINUOUS
10
87.5226
20
-108.799
11
87.2142
21
-108.714
0
LINE
8
BLACK
6
CONTINUOUS
10
87.2142
20
-108.714
11
81.5632
21
-107.198
0
LINE
8
BLACK
6
CONTINUOUS
10
81.5632
20
-107.198
11
79.9994
21
-106.779
0
LINE
8
BLACK
6
CONTINUOUS
10
79.9994
20
-106.779
11
79.8622
21
-106.74
0
LINE
8
BLACK
6
CONTINUOUS
10
79.8622
20
-106.74
11
79.5999
21
-106.628
0
LINE
8
BLACK
6
CONTINUOUS
10
79.5999
20
-106.628
11
79.3561
21
-106.48
0
LINE
8
BLACK
6
CONTINUOUS
10
79.3561
20
-106.48
11
79.1359
21
-106.299
0
LINE
8
BLACK
6
CONTINUOUS
10
79.1359
20
-106.299
11
78.9437
21
-106.088
0
LINE
8
BLACK
6
CONTINUOUS
10
78.9437
20
-106.088
11
78.7835
21
-105.852
0
LINE
8
BLACK
6
CONTINUOUS
10
78.7835
20
-105.852
11
78.6586
21
-105.596
0
LINE
8
BLACK
6
CONTINUOUS
10
78.6586
20
-105.596
11
78.5714
21
-105.324
0
LINE
8
BLACK
6
CONTINUOUS
10
78.5714
20
-105.324
11
78.5238
21
-105.043
0
LINE
8
BLACK
6
CONTINUOUS
10
78.5238
20
-105.043
11
78.5167
21
-104.758
0
LINE
8
BLACK
6
CONTINUOUS
10
78.5167
20
-104.758
11
78.5503
21
-104.475
0
LINE
8
BLACK
6
CONTINUOUS
10
78.5503
20
-104.475
11
78.5848
21
-104.337
0
LINE
8
BLACK
6
CONTINUOUS
10
78.5848
20
-104.337
11
78.677
21
-103.991
0
LINE
8
BLACK
6
CONTINUOUS
10
78.677
20
-103.991
11
78.7253
21
-103.801
0
LINE
8
BLACK
6
CONTINUOUS
10
78.7253
20
-103.801
11
78.789
21
-103.414
0
LINE
8
BLACK
6
CONTINUOUS
10
78.789
20
-103.414
11
78.8144
21
-103.022
0
LINE
8
BLACK
6
CONTINUOUS
10
78.8144
20
-103.022
11
78.8013
21
-102.63
0
LINE
8
BLACK
6
CONTINUOUS
10
78.8013
20
-102.63
11
78.7499
21
-102.24
0
LINE
8
BLACK
6
CONTINUOUS
10
78.7499
20
-102.24
11
78.6605
21
-101.858
0
LINE
8
BLACK
6
CONTINUOUS
10
78.6605
20
-101.858
11
78.5342
21
-101.486
0
LINE
8
BLACK
6
CONTINUOUS
10
78.5342
20
-101.486
11
78.372
21
-101.129
0
LINE
8
BLACK
6
CONTINUOUS
10
78.372
20
-101.129
11
78.1756
21
-100.789
0
LINE
8
BLACK
6
CONTINUOUS
10
78.1756
20
-100.789
11
77.9468
21
-100.47
0
LINE
8
BLACK
6
CONTINUOUS
10
77.9468
20
-100.47
11
77.6879
21
-100.175
0
LINE
8
BLACK
6
CONTINUOUS
10
77.6879
20
-100.175
11
77.4014
21
-99.9067
0
LINE
8
BLACK
6
CONTINUOUS
10
77.4014
20
-99.9067
11
77.0899
21
-99.6677
0
LINE
8
BLACK
6
CONTINUOUS
10
77.0899
20
-99.6677
11
76.7565
21
-99.4605
0
LINE
8
BLACK
6
CONTINUOUS
10
76.7565
20
-99.4605
11
76.4044
21
-99.2868
0
LINE
8
BLACK
6
CONTINUOUS
10
76.4044
20
-99.2868
11
76.037
21
-99.1486
0
LINE
8
BLACK
6
CONTINUOUS
10
76.037
20
-99.1486
11
75.848
21
-99.0954
0
LINE
8
BLACK
6
CONTINUOUS
10
75.848
20
-99.0954
11
63.4469
21
-95.7686
0
LINE
8
BLACK
6
CONTINUOUS
10
63.4469
20
-95.7686
11
63.1791
21
-95.6971
0
LINE
8
BLACK
6
CONTINUOUS
10
63.1791
20
-95.6971
11
62.9847
21
-95.6477
0
LINE
8
BLACK
6
CONTINUOUS
10
62.9847
20
-95.6477
11
62.5886
21
-95.5835
0
LINE
8
BLACK
6
CONTINUOUS
10
62.5886
20
-95.5835
11
62.1882
21
-95.5593
0
LINE
8
BLACK
6
CONTINUOUS
10
62.1882
20
-95.5593
11
61.7873
21
-95.5753
0
LINE
8
BLACK
6
CONTINUOUS
10
61.7873
20
-95.5753
11
61.3901
21
-95.6314
0
LINE
8
BLACK
6
CONTINUOUS
10
61.3901
20
-95.6314
11
61.0004
21
-95.7269
0
LINE
8
BLACK
6
CONTINUOUS
10
61.0004
20
-95.7269
11
60.6223
21
-95.861
0
LINE
8
BLACK
6
CONTINUOUS
10
60.6223
20
-95.861
11
60.2595
21
-96.0322
0
LINE
8
BLACK
6
CONTINUOUS
10
60.2595
20
-96.0322
11
59.9157
21
-96.2389
0
LINE
8
BLACK
6
CONTINUOUS
10
59.9157
20
-96.2389
11
59.5942
21
-96.479
0
LINE
8
BLACK
6
CONTINUOUS
10
59.5942
20
-96.479
11
59.2985
21
-96.7501
0
LINE
8
BLACK
6
CONTINUOUS
10
59.2985
20
-96.7501
11
59.0313
21
-97.0494
0
LINE
8
BLACK
6
CONTINUOUS
10
59.0313
20
-97.0494
11
58.7955
21
-97.3739
0
LINE
8
BLACK
6
CONTINUOUS
10
58.7955
20
-97.3739
11
58.5933
21
-97.7204
0
LINE
8
BLACK
6
CONTINUOUS
10
58.5933
20
-97.7204
11
58.4268
21
-98.0854
0
LINE
8
BLACK
6
CONTINUOUS
10
58.4268
20
-98.0854
11
58.2977
21
-98.4653
0
LINE
8
BLACK
6
CONTINUOUS
10
58.2977
20
-98.4653
11
58.2501
21
-98.6602
0
LINE
8
BLACK
6
CONTINUOUS
10
58.2501
20
-98.6602
11
58.0514
21
-99.519
0
LINE
8
BLACK
6
CONTINUOUS
10
58.0514
20
-99.519
11
58.0168
21
-99.6576
0
LINE
8
BLACK
6
CONTINUOUS
10
58.0168
20
-99.6576
11
57.9134
21
-99.9238
0
LINE
8
BLACK
6
CONTINUOUS
10
57.9134
20
-99.9238
11
57.7733
21
-100.173
0
LINE
8
BLACK
6
CONTINUOUS
10
57.7733
20
-100.173
11
57.5991
21
-100.399
0
LINE
8
BLACK
6
CONTINUOUS
10
57.5991
20
-100.399
11
57.3945
21
-100.598
0
LINE
8
BLACK
6
CONTINUOUS
10
57.3945
20
-100.598
11
57.1637
21
-100.767
0
LINE
8
BLACK
6
CONTINUOUS
10
57.1637
20
-100.767
11
56.9112
21
-100.9
0
LINE
8
BLACK
6
CONTINUOUS
10
56.9112
20
-100.9
11
56.6423
21
-100.997
0
LINE
8
BLACK
6
CONTINUOUS
10
56.6423
20
-100.997
11
56.3625
21
-101.054
0
LINE
8
BLACK
6
CONTINUOUS
10
56.3625
20
-101.054
11
56.0773
21
-101.071
0
LINE
8
BLACK
6
CONTINUOUS
10
56.0773
20
-101.071
11
55.7927
21
-101.047
0
LINE
8
BLACK
6
CONTINUOUS
10
55.7927
20
-101.047
11
55.653
21
-101.017
0
LINE
8
BLACK
6
CONTINUOUS
10
55.653
20
-101.017
11
40.9891
21
-97.6313
0
LINE
8
BLACK
6
CONTINUOUS
10
40.9891
20
-97.6313
11
40.8504
21
-97.5968
0
LINE
8
BLACK
6
CONTINUOUS
10
40.8504
20
-97.5968
11
40.584
21
-97.4936
0
LINE
8
BLACK
6
CONTINUOUS
10
40.584
20
-97.4936
11
40.3349
21
-97.3535
0
LINE
8
BLACK
6
CONTINUOUS
10
40.3349
20
-97.3535
11
40.1084
21
-97.1794
0
LINE
8
BLACK
6
CONTINUOUS
10
40.1084
20
-97.1794
11
39.9089
21
-96.9748
0
LINE
8
BLACK
6
CONTINUOUS
10
39.9089
20
-96.9748
11
39.7406
21
-96.7439
0
LINE
8
BLACK
6
CONTINUOUS
10
39.7406
20
-96.7439
11
39.6068
21
-96.4914
0
LINE
8
BLACK
6
CONTINUOUS
10
39.6068
20
-96.4914
11
39.5104
21
-96.2224
0
LINE
8
BLACK
6
CONTINUOUS
10
39.5104
20
-96.2224
11
39.4532
21
-95.9425
0
LINE
8
BLACK
6
CONTINUOUS
10
39.4532
20
-95.9425
11
39.4364
21
-95.6572
0
LINE
8
BLACK
6
CONTINUOUS
10
39.4364
20
-95.6572
11
39.4604
21
-95.3725
0
LINE
8
BLACK
6
CONTINUOUS
10
39.4604
20
-95.3725
11
39.4903
21
-95.2328
0
LINE
8
BLACK
6
CONTINUOUS
10
39.4903
20
-95.2328
11
39.8395
21
-93.7198
0
LINE
8
BLACK
6
CONTINUOUS
10
39.8395
20
-93.7198
11
39.8822
21
-93.5238
0
LINE
8
BLACK
6
CONTINUOUS
10
39.8822
20
-93.5238
11
39.9329
21
-93.1256
0
LINE
8
BLACK
6
CONTINUOUS
10
39.9329
20
-93.1256
11
39.9434
21
-92.7244
0
LINE
8
BLACK
6
CONTINUOUS
10
39.9434
20
-92.7244
11
39.9138
21
-92.3242
0
LINE
8
BLACK
6
CONTINUOUS
10
39.9138
20
-92.3242
11
39.8441
21
-91.9289
0
LINE
8
BLACK
6
CONTINUOUS
10
39.8441
20
-91.9289
11
39.7353
21
-91.5426
0
LINE
8
BLACK
6
CONTINUOUS
10
39.7353
20
-91.5426
11
39.5883
21
-91.1692
0
LINE
8
BLACK
6
CONTINUOUS
10
39.5883
20
-91.1692
11
39.4046
21
-90.8123
0
LINE
8
BLACK
6
CONTINUOUS
10
39.4046
20
-90.8123
11
39.1862
21
-90.4757
0
LINE
8
BLACK
6
CONTINUOUS
10
39.1862
20
-90.4757
11
38.9351
21
-90.1626
0
LINE
8
BLACK
6
CONTINUOUS
10
38.9351
20
-90.1626
11
38.6539
21
-89.8762
0
LINE
8
BLACK
6
CONTINUOUS
10
38.6539
20
-89.8762
11
38.3454
21
-89.6194
0
LINE
8
BLACK
6
CONTINUOUS
10
38.3454
20
-89.6194
11
38.0128
21
-89.3949
0
LINE
8
BLACK
6
CONTINUOUS
10
38.0128
20
-89.3949
11
37.6594
21
-89.2047
0
LINE
8
BLACK
6
CONTINUOUS
10
37.6594
20
-89.2047
11
37.2887
21
-89.0509
0
LINE
8
BLACK
6
CONTINUOUS
10
37.2887
20
-89.0509
11
36.9045
21
-88.935
0
LINE
8
BLACK
6
CONTINUOUS
10
36.9045
20
-88.935
11
36.708
21
-88.8942
0
LINE
8
BLACK
6
CONTINUOUS
10
36.708
20
-88.8942
11
22.8515
21
-86.1906
0
LINE
8
BLACK
6
CONTINUOUS
10
22.8515
20
-86.1906
11
22.7118
21
-86.1608
0
LINE
8
BLACK
6
CONTINUOUS
10
22.7118
20
-86.1608
11
22.4422
21
-86.0668
0
LINE
8
BLACK
6
CONTINUOUS
10
22.4422
20
-86.0668
11
22.1886
21
-85.9354
0
LINE
8
BLACK
6
CONTINUOUS
10
22.1886
20
-85.9354
11
21.9564
21
-85.7692
0
LINE
8
BLACK
6
CONTINUOUS
10
21.9564
20
-85.7692
11
21.7501
21
-85.5718
0
LINE
8
BLACK
6
CONTINUOUS
10
21.7501
20
-85.5718
11
21.574
21
-85.3469
0
LINE
8
BLACK
6
CONTINUOUS
10
21.574
20
-85.3469
11
21.4317
21
-85.0994
0
LINE
8
BLACK
6
CONTINUOUS
10
21.4317
20
-85.0994
11
21.326
21
-84.8341
0
LINE
8
BLACK
6
CONTINUOUS
10
21.326
20
-84.8341
11
21.2591
21
-84.5564
0
LINE
8
BLACK
6
CONTINUOUS
10
21.2591
20
-84.5564
11
21.2325
21
-84.2721
0
LINE
8
BLACK
6
CONTINUOUS
10
21.2325
20
-84.2721
11
21.2465
21
-83.9869
0
LINE
8
BLACK
6
CONTINUOUS
10
21.2465
20
-83.9869
11
21.2712
21
-83.8462
0
LINE
8
BLACK
6
CONTINUOUS
10
21.2712
20
-83.8462
11
27.9954
21
-49.2326
0
LINE
8
BLACK
6
CONTINUOUS
10
27.9954
20
-49.2326
11
28.025
21
-49.0928
0
LINE
8
BLACK
6
CONTINUOUS
10
28.025
20
-49.0928
11
28.1188
21
-48.8229
0
LINE
8
BLACK
6
CONTINUOUS
10
28.1188
20
-48.8229
11
28.2502
21
-48.5691
0
LINE
8
BLACK
6
CONTINUOUS
10
28.2502
20
-48.5691
11
28.4163
21
-48.3366
0
LINE
8
BLACK
6
CONTINUOUS
10
28.4163
20
-48.3366
11
28.6138
21
-48.1301
0
LINE
8
BLACK
6
CONTINUOUS
10
28.6138
20
-48.1301
11
28.8386
21
-47.9538
0
LINE
8
BLACK
6
CONTINUOUS
10
28.8386
20
-47.9538
11
29.0863
21
-47.8113
0
LINE
8
BLACK
6
CONTINUOUS
10
29.0863
20
-47.8113
11
29.3518
21
-47.7055
0
LINE
8
BLACK
6
CONTINUOUS
10
29.3518
20
-47.7055
11
29.6296
21
-47.6385
0
LINE
8
BLACK
6
CONTINUOUS
10
29.6296
20
-47.6385
11
29.9141
21
-47.6118
0
LINE
8
BLACK
6
CONTINUOUS
10
29.9141
20
-47.6118
11
30.1995
21
-47.6259
0
LINE
8
BLACK
6
CONTINUOUS
10
30.1995
20
-47.6259
11
30.3402
21
-47.6507
0
LINE
8
BLACK
6
CONTINUOUS
10
30.3402
20
-47.6507
11
45.8226
21
-50.6595
0
LINE
8
BLACK
6
CONTINUOUS
10
45.8226
20
-50.6595
11
46.0242
21
-50.696
0
LINE
8
BLACK
6
CONTINUOUS
10
46.0242
20
-50.696
11
46.4323
21
-50.7326
0
LINE
8
BLACK
6
CONTINUOUS
10
46.4323
20
-50.7326
11
46.842
21
-50.7273
0
LINE
8
BLACK
6
CONTINUOUS
10
46.842
20
-50.7273
11
47.249
21
-50.6802
0
LINE
8
BLACK
6
CONTINUOUS
10
47.249
20
-50.6802
11
47.649
21
-50.5917
0
LINE
8
BLACK
6
CONTINUOUS
10
47.649
20
-50.5917
11
48.038
21
-50.4628
0
LINE
8
BLACK
6
CONTINUOUS
10
48.038
20
-50.4628
11
48.4117
21
-50.2948
0
LINE
8
BLACK
6
CONTINUOUS
10
48.4117
20
-50.2948
11
48.7662
21
-50.0894
0
LINE
8
BLACK
6
CONTINUOUS
10
48.7662
20
-50.0894
11
49.0979
21
-49.8489
0
LINE
8
BLACK
6
CONTINUOUS
10
49.0979
20
-49.8489
11
49.4033
21
-49.5757
0
LINE
8
BLACK
6
CONTINUOUS
10
49.4033
20
-49.5757
11
49.6792
21
-49.2728
0
LINE
8
BLACK
6
CONTINUOUS
10
49.6792
20
-49.2728
11
49.9226
21
-48.9432
0
LINE
8
BLACK
6
CONTINUOUS
10
49.9226
20
-48.9432
11
50.1311
21
-48.5905
0
LINE
8
BLACK
6
CONTINUOUS
10
50.1311
20
-48.5905
11
50.3024
21
-48.2183
0
LINE
8
BLACK
6
CONTINUOUS
10
50.3024
20
-48.2183
11
50.4348
21
-47.8305
0
LINE
8
BLACK
6
CONTINUOUS
10
50.4348
20
-47.8305
11
50.4834
21
-47.6315
0
LINE
8
BLACK
6
CONTINUOUS
10
50.4834
20
-47.6315
11
51.9232
21
-41.3862
0
LINE
8
BLACK
6
CONTINUOUS
10
51.9232
20
-41.3862
11
51.9577
21
-41.2475
0
LINE
8
BLACK
6
CONTINUOUS
10
51.9577
20
-41.2475
11
52.0609
21
-40.9809
0
LINE
8
BLACK
6
CONTINUOUS
10
52.0609
20
-40.9809
11
52.201
21
-40.7318
0
LINE
8
BLACK
6
CONTINUOUS
10
52.201
20
-40.7318
11
52.3751
21
-40.5051
0
LINE
8
BLACK
6
CONTINUOUS
10
52.3751
20
-40.5051
11
52.5798
21
-40.3056
0
LINE
8
BLACK
6
CONTINUOUS
10
52.5798
20
-40.3056
11
52.8107
21
-40.1372
0
LINE
8
BLACK
6
CONTINUOUS
10
52.8107
20
-40.1372
11
53.0633
21
-40.0034
0
LINE
8
BLACK
6
CONTINUOUS
10
53.0633
20
-40.0034
11
53.3324
21
-39.9069
0
LINE
8
BLACK
6
CONTINUOUS
10
53.3324
20
-39.9069
11
53.6124
21
-39.8497
0
LINE
8
BLACK
6
CONTINUOUS
10
53.6124
20
-39.8497
11
53.8978
21
-39.833
0
LINE
8
BLACK
6
CONTINUOUS
10
53.8978
20
-39.833
11
54.1826
21
-39.857
0
LINE
8
BLACK
6
CONTINUOUS
10
54.1826
20
-39.857
11
54.3224
21
-39.8868
0
LINE
8
BLACK
6
CONTINUOUS
10
54.3224
20
-39.8868
11
69.9546
21
-43.4991
0
LINE
8
BLACK
6
CONTINUOUS
10
69.9546
20
-43.4991
11
70.1547
21
-43.5427
0
LINE
8
BLACK
6
CONTINUOUS
10
70.1547
20
-43.5427
11
70.5612
21
-43.5937
0
LINE
8
BLACK
6
CONTINUOUS
10
70.5612
20
-43.5937
11
70.9708
21
-43.6028
0
LINE
8
BLACK
6
CONTINUOUS
10
70.9708
20
-43.6028
11
71.3792
21
-43.57
0
LINE
8
BLACK
6
CONTINUOUS
10
71.3792
20
-43.57
11
71.7821
21
-43.4956
0
LINE
8
BLACK
6
CONTINUOUS
10
71.7821
20
-43.4956
11
72.1753
21
-43.3805
0
LINE
8
BLACK
6
CONTINUOUS
10
72.1753
20
-43.3805
11
72.5546
21
-43.2258
0
LINE
8
BLACK
6
CONTINUOUS
10
72.5546
20
-43.2258
11
72.9162
21
-43.0331
0
LINE
8
BLACK
6
CONTINUOUS
10
72.9162
20
-43.0331
11
73.2561
21
-42.8044
0
LINE
8
BLACK
6
CONTINUOUS
10
73.2561
20
-42.8044
11
73.5709
21
-42.5422
0
LINE
8
BLACK
6
CONTINUOUS
10
73.5709
20
-42.5422
11
73.8572
21
-42.2492
0
LINE
8
BLACK
6
CONTINUOUS
10
73.8572
20
-42.2492
11
74.1121
21
-41.9285
0
LINE
8
BLACK
6
CONTINUOUS
10
74.1121
20
-41.9285
11
74.3329
21
-41.5833
0
LINE
8
BLACK
6
CONTINUOUS
10
74.3329
20
-41.5833
11
74.5173
21
-41.2175
0
LINE
8
BLACK
6
CONTINUOUS
10
74.5173
20
-41.2175
11
74.6632
21
-40.8347
0
LINE
8
BLACK
6
CONTINUOUS
10
74.6632
20
-40.8347
11
74.7188
21
-40.6375
0
LINE
8
BLACK
6
CONTINUOUS
10
74.7188
20
-40.6375
11
75.0198
21
-39.5142
0
LINE
8
BLACK
6
CONTINUOUS
10
156.375
20
-135.76
11
156.375
21
-149.36
0
LINE
8
BLACK
6
CONTINUOUS
10
156.675
20
-149.66
11
158.475
21
-149.66
0
LINE
8
BLACK
6
CONTINUOUS
10
158.475
20
-135.46
11
156.675
21
-135.46
0
LINE
8
BLACK
6
CONTINUOUS
10
158.775
20
-149.36
11
158.775
21
-135.76
0
ARC
8
BLACK
10
156.675
20
-135.76
40
0.3
50
90
51
180
0
ARC
8
BLACK
10
156.675
20
-149.36
40
0.3
50
-180
51
-90
0
ARC
8
BLACK
10
158.475
20
-135.76
40
0.3
50
-0
51
90
0
ARC
8
BLACK
10
158.475
20
-149.36
40
0.3
50
-90
51
-0
  0
ENDSEC
  0
EOF
