  0
SECTION
  2
HEADER
  9
$ANGBASE
  50
0.0
  9
$ANGDIR
  70
1
  9
$MEASUREMENT
  70
1
  0
ENDSEC
  0
SECTION
  2
TABLES
  0
TABLE
  2
LTYPE
  70
4
  0
LTYPE
  5
40F
  2
CONTINUOUS
  70
0
  3
Solid line
  72
65
  73
0
  40
0.0
  0
LTYPE
  5
410
  2
DASHDOT
 70
0
  3
Dash Dot ____ _ ____ _
 72
65
 73
4
 40
2.0
 49
1.25
 49
-0.25
 49
0.25
 49
-0.25
  0
LTYPE
  5
411
  2
DASHED
 70
0
  3
Dashed __ __ __ __ __
 72
65
 73
2
 40
0.75
 49
0.5
 49
-0.25
  0
LTYPE
  5
43B
  2
DOTTED
 70
0
  3
Dotted .  .  .  .
 72
65
 73
2
 40
0.2
 49
0.0
 49
-0.2
  0
ENDTAB
  0
TABLE
  2
STYLE
  70
4
  0
STYLE
  2
KICAD
  70
0
  40
0
  41
1
  42
1
  50
0
  71
0
  3
isocp.shx
  0
STYLE
  2
KICADB
  70
0
  40
0
  41
1
  42
1
  50
0
  71
0
  3
isocp.shx
  0
STYLE
  2
KICADI
  70
0
  40
0
  41
1
  42
1
  50
15
  71
0
  3
isocp.shx
  0
STYLE
  2
KICADBI
  70
0
  40
0
  41
1
  42
1
  50
15
  71
0
  3
isocp.shx
  0
ENDTAB
  0
TABLE
  2
LAYER
  70
1
  0
LAYER
  2
BLACK
  70
0
  62
7
  6
CONTINUOUS
  0
ENDTAB
  0
ENDSEC
  0
SECTION
  2
ENTITIES
0
CIRCLE
8
BLACK
10
64.815
20
-75.81
40
1.4
0
CIRCLE
8
BLACK
10
233.285
20
-75.82
40
1.4
0
CIRCLE
8
BLACK
10
148.989
20
-102.349
40
20.2
0
CIRCLE
8
BLACK
10
167.985
20
-83.35
40
1.4
0
CIRCLE
8
BLACK
10
129.985
20
-121.35
40
1.4
0
LINE
8
BLACK
6
CONTINUOUS
10
139.155
20
-71.21
11
158.83
21
-71.21
0
LINE
8
BLACK
6
CONTINUOUS
10
158.83
20
-71.21
11
158.83
21
-97.215
0
LINE
8
BLACK
6
CONTINUOUS
10
158.83
20
-97.215
11
139.155
21
-97.215
0
LINE
8
BLACK
6
CONTINUOUS
10
139.155
20
-97.215
11
139.155
21
-71.21
0
CIRCLE
8
BLACK
10
129.995
20
-83.37
40
1.4
0
CIRCLE
8
BLACK
10
167.995
20
-121.35
40
1.4
0
LINE
8
BLACK
6
CONTINUOUS
10
72.0973
20
-60.1799
11
85.6202
21
-63.8034
0
LINE
8
BLACK
6
CONTINUOUS
10
85.6202
20
-63.8034
11
81.9968
21
-77.3263
0
LINE
8
BLACK
6
CONTINUOUS
10
81.9968
20
-77.3263
11
68.4738
21
-73.7029
0
LINE
8
BLACK
6
CONTINUOUS
10
68.4738
20
-73.7029
11
72.0973
21
-60.1799
0
LINE
8
BLACK
6
CONTINUOUS
10
207.247
20
-44.2984
11
220.77
21
-40.675
0
LINE
8
BLACK
6
CONTINUOUS
10
220.77
20
-40.675
11
224.394
21
-54.1979
0
LINE
8
BLACK
6
CONTINUOUS
10
224.394
20
-54.1979
11
210.871
21
-57.8214
0
LINE
8
BLACK
6
CONTINUOUS
10
210.871
20
-57.8214
11
207.247
21
-44.2984
0
LINE
8
BLACK
6
CONTINUOUS
10
66.8972
20
-79.5867
11
80.4202
21
-83.2102
0
LINE
8
BLACK
6
CONTINUOUS
10
80.4202
20
-83.2102
11
76.7967
21
-96.7331
0
LINE
8
BLACK
6
CONTINUOUS
10
76.7967
20
-96.7331
11
63.2738
21
-93.1097
0
LINE
8
BLACK
6
CONTINUOUS
10
63.2738
20
-93.1097
11
66.8972
21
-79.5867
0
LINE
8
BLACK
6
CONTINUOUS
10
212.474
20
-63.8034
11
225.997
21
-60.1799
0
LINE
8
BLACK
6
CONTINUOUS
10
225.997
20
-60.1799
11
229.62
21
-73.7029
0
LINE
8
BLACK
6
CONTINUOUS
10
229.62
20
-73.7029
11
216.097
21
-77.3263
0
LINE
8
BLACK
6
CONTINUOUS
10
216.097
20
-77.3263
11
212.474
21
-63.8034
0
LINE
8
BLACK
6
CONTINUOUS
10
95.2799
20
-51.7791
11
108.803
21
-55.4026
0
LINE
8
BLACK
6
CONTINUOUS
10
108.803
20
-55.4026
11
105.179
21
-68.9256
0
LINE
8
BLACK
6
CONTINUOUS
10
105.179
20
-68.9256
11
91.6564
21
-65.3021
0
LINE
8
BLACK
6
CONTINUOUS
10
91.6564
20
-65.3021
11
95.2799
21
-51.7791
0
LINE
8
BLACK
6
CONTINUOUS
10
112.101
20
-67.5071
11
125.624
21
-71.1305
0
LINE
8
BLACK
6
CONTINUOUS
10
125.624
20
-71.1305
11
122.001
21
-84.6535
0
LINE
8
BLACK
6
CONTINUOUS
10
122.001
20
-84.6535
11
108.478
21
-81.03
0
LINE
8
BLACK
6
CONTINUOUS
10
108.478
20
-81.03
11
112.101
21
-67.5071
0
LINE
8
BLACK
6
CONTINUOUS
10
230.189
20
-45.6136
11
243.83
21
-42.4643
0
LINE
8
BLACK
6
CONTINUOUS
10
243.83
20
-42.4643
11
246.98
21
-56.1055
0
LINE
8
BLACK
6
CONTINUOUS
10
246.98
20
-56.1055
11
233.338
21
-59.2548
0
LINE
8
BLACK
6
CONTINUOUS
10
233.338
20
-59.2548
11
230.189
21
-45.6136
0
LINE
8
BLACK
6
CONTINUOUS
10
257.836
20
-72.7498
11
271.579
21
-70.0785
0
LINE
8
BLACK
6
CONTINUOUS
10
271.579
20
-70.0785
11
274.25
21
-83.8212
0
LINE
8
BLACK
6
CONTINUOUS
10
274.25
20
-83.8212
11
260.507
21
-86.4926
0
LINE
8
BLACK
6
CONTINUOUS
10
260.507
20
-86.4926
11
257.836
21
-72.7498
0
LINE
8
BLACK
6
CONTINUOUS
10
177.662
20
-90.5128
11
191.185
21
-86.8893
0
LINE
8
BLACK
6
CONTINUOUS
10
191.185
20
-86.8893
11
194.808
21
-100.412
0
LINE
8
BLACK
6
CONTINUOUS
10
194.808
20
-100.412
11
181.285
21
-104.036
0
LINE
8
BLACK
6
CONTINUOUS
10
181.285
20
-104.036
11
177.662
21
-90.5128
0
LINE
8
BLACK
6
CONTINUOUS
10
189.291
20
-55.4026
11
202.814
21
-51.7791
0
LINE
8
BLACK
6
CONTINUOUS
10
202.814
20
-51.7791
11
206.438
21
-65.3021
0
LINE
8
BLACK
6
CONTINUOUS
10
206.438
20
-65.3021
11
192.915
21
-68.9256
0
LINE
8
BLACK
6
CONTINUOUS
10
192.915
20
-68.9256
11
189.291
21
-55.4026
0
LINE
8
BLACK
6
CONTINUOUS
10
77.3226
20
-40.675
11
90.8456
21
-44.2984
0
LINE
8
BLACK
6
CONTINUOUS
10
90.8456
20
-44.2984
11
87.2221
21
-57.8214
0
LINE
8
BLACK
6
CONTINUOUS
10
87.2221
20
-57.8214
11
73.6991
21
-54.1979
0
LINE
8
BLACK
6
CONTINUOUS
10
73.6991
20
-54.1979
11
77.3226
21
-40.675
0
LINE
8
BLACK
6
CONTINUOUS
10
234.722
20
-65.2457
11
248.363
21
-62.0963
0
LINE
8
BLACK
6
CONTINUOUS
10
248.363
20
-62.0963
11
251.512
21
-75.7375
0
LINE
8
BLACK
6
CONTINUOUS
10
251.512
20
-75.7375
11
237.871
21
-78.8868
0
LINE
8
BLACK
6
CONTINUOUS
10
237.871
20
-78.8868
11
234.722
21
-65.2457
0
LINE
8
BLACK
6
CONTINUOUS
10
194.529
20
-74.9491
11
208.052
21
-71.3256
0
LINE
8
BLACK
6
CONTINUOUS
10
208.052
20
-71.3256
11
211.675
21
-84.8486
0
LINE
8
BLACK
6
CONTINUOUS
10
211.675
20
-84.8486
11
198.152
21
-88.4721
0
LINE
8
BLACK
6
CONTINUOUS
10
198.152
20
-88.4721
11
194.529
21
-74.9491
0
LINE
8
BLACK
6
CONTINUOUS
10
199.788
20
-94.5767
11
213.311
21
-90.9532
0
LINE
8
BLACK
6
CONTINUOUS
10
213.311
20
-90.9532
11
216.934
21
-104.476
0
LINE
8
BLACK
6
CONTINUOUS
10
216.934
20
-104.476
11
203.411
21
-108.1
0
LINE
8
BLACK
6
CONTINUOUS
10
203.411
20
-108.1
11
199.788
21
-94.5767
0
LINE
8
BLACK
6
CONTINUOUS
10
106.909
20
-86.8893
11
120.432
21
-90.5128
0
LINE
8
BLACK
6
CONTINUOUS
10
120.432
20
-90.5128
11
116.808
21
-104.036
0
LINE
8
BLACK
6
CONTINUOUS
10
116.808
20
-104.036
11
103.285
21
-100.412
0
LINE
8
BLACK
6
CONTINUOUS
10
103.285
20
-100.412
11
106.909
21
-86.8893
0
LINE
8
BLACK
6
CONTINUOUS
10
45.2174
20
-81.6481
11
58.8585
21
-84.7974
0
LINE
8
BLACK
6
CONTINUOUS
10
58.8585
20
-84.7974
11
55.7092
21
-98.4385
0
LINE
8
BLACK
6
CONTINUOUS
10
55.7092
20
-98.4385
11
42.0681
21
-95.2892
0
LINE
8
BLACK
6
CONTINUOUS
10
42.0681
20
-95.2892
11
45.2174
21
-81.6481
0
LINE
8
BLACK
6
CONTINUOUS
10
49.7312
20
-62.0963
11
63.3724
21
-65.2457
0
LINE
8
BLACK
6
CONTINUOUS
10
63.3724
20
-65.2457
11
60.2231
21
-78.8868
0
LINE
8
BLACK
6
CONTINUOUS
10
60.2231
20
-78.8868
11
46.5819
21
-75.7375
0
LINE
8
BLACK
6
CONTINUOUS
10
46.5819
20
-75.7375
11
49.7312
21
-62.0963
0
LINE
8
BLACK
6
CONTINUOUS
10
217.674
20
-83.2102
11
231.197
21
-79.5867
0
LINE
8
BLACK
6
CONTINUOUS
10
231.197
20
-79.5867
11
234.82
21
-93.1097
0
LINE
8
BLACK
6
CONTINUOUS
10
234.82
20
-93.1097
11
221.297
21
-96.7331
0
LINE
8
BLACK
6
CONTINUOUS
10
221.297
20
-96.7331
11
217.674
21
-83.2102
0
LINE
8
BLACK
6
CONTINUOUS
10
26.5153
20
-70.0785
11
40.2581
21
-72.7498
0
LINE
8
BLACK
6
CONTINUOUS
10
40.2581
20
-72.7498
11
37.5868
21
-86.4926
0
LINE
8
BLACK
6
CONTINUOUS
10
37.5868
20
-86.4926
11
23.844
21
-83.8212
0
LINE
8
BLACK
6
CONTINUOUS
10
23.844
20
-83.8212
11
26.5153
21
-70.0785
0
LINE
8
BLACK
6
CONTINUOUS
10
239.235
20
-84.7974
11
252.877
21
-81.6481
0
LINE
8
BLACK
6
CONTINUOUS
10
252.877
20
-81.6481
11
256.026
21
-95.2892
0
LINE
8
BLACK
6
CONTINUOUS
10
256.026
20
-95.2892
11
242.385
21
-98.4385
0
LINE
8
BLACK
6
CONTINUOUS
10
242.385
20
-98.4385
11
239.235
21
-84.7974
0
LINE
8
BLACK
6
CONTINUOUS
10
253.977
20
-52.9003
11
267.72
21
-50.229
0
LINE
8
BLACK
6
CONTINUOUS
10
267.72
20
-50.229
11
270.392
21
-63.9717
0
LINE
8
BLACK
6
CONTINUOUS
10
270.392
20
-63.9717
11
256.649
21
-66.6431
0
LINE
8
BLACK
6
CONTINUOUS
10
256.649
20
-66.6431
11
253.977
21
-52.9003
0
LINE
8
BLACK
6
CONTINUOUS
10
30.3737
20
-50.2289
11
44.1165
21
-52.9003
0
LINE
8
BLACK
6
CONTINUOUS
10
44.1165
20
-52.9003
11
41.4451
21
-66.6431
0
LINE
8
BLACK
6
CONTINUOUS
10
41.4451
20
-66.6431
11
27.7024
21
-63.9717
0
LINE
8
BLACK
6
CONTINUOUS
10
27.7024
20
-63.9717
11
30.3737
21
-50.2289
0
LINE
8
BLACK
6
CONTINUOUS
10
172.468
20
-71.1305
11
185.991
21
-67.5071
0
LINE
8
BLACK
6
CONTINUOUS
10
185.991
20
-67.5071
11
189.614
21
-81.03
0
LINE
8
BLACK
6
CONTINUOUS
10
189.614
20
-81.03
11
176.091
21
-84.6535
0
LINE
8
BLACK
6
CONTINUOUS
10
176.091
20
-84.6535
11
172.468
21
-71.1305
0
LINE
8
BLACK
6
CONTINUOUS
10
84.7832
20
-90.9532
11
98.3062
21
-94.5767
0
LINE
8
BLACK
6
CONTINUOUS
10
98.3062
20
-94.5767
11
94.6827
21
-108.1
0
LINE
8
BLACK
6
CONTINUOUS
10
94.6827
20
-108.1
11
81.1598
21
-104.476
0
LINE
8
BLACK
6
CONTINUOUS
10
81.1598
20
-104.476
11
84.7832
21
-90.9532
0
LINE
8
BLACK
6
CONTINUOUS
10
106.065
20
-135.432
11
93.275
21
-129.737
0
LINE
8
BLACK
6
CONTINUOUS
10
93.275
20
-129.737
11
98.9693
21
-116.948
0
LINE
8
BLACK
6
CONTINUOUS
10
98.9693
20
-116.948
11
111.759
21
-122.642
0
LINE
8
BLACK
6
CONTINUOUS
10
111.759
20
-122.642
11
106.065
21
-135.432
0
LINE
8
BLACK
6
CONTINUOUS
10
90.0424
20
-71.3256
11
103.565
21
-74.9491
0
LINE
8
BLACK
6
CONTINUOUS
10
103.565
20
-74.9491
11
99.9419
21
-88.4721
0
LINE
8
BLACK
6
CONTINUOUS
10
99.9419
20
-88.4721
11
86.419
21
-84.8486
0
LINE
8
BLACK
6
CONTINUOUS
10
86.419
20
-84.8486
11
90.0424
21
-71.3256
0
LINE
8
BLACK
6
CONTINUOUS
10
204.644
20
-129.677
11
191.854
21
-135.371
0
LINE
8
BLACK
6
CONTINUOUS
10
191.854
20
-135.371
11
186.16
21
-122.582
0
LINE
8
BLACK
6
CONTINUOUS
10
186.16
20
-122.582
11
198.95
21
-116.887
0
LINE
8
BLACK
6
CONTINUOUS
10
198.95
20
-116.887
11
204.644
21
-129.677
0
LINE
8
BLACK
6
CONTINUOUS
10
124.678
20
-145.467
11
112.433
21
-138.68
0
LINE
8
BLACK
6
CONTINUOUS
10
112.433
20
-138.68
11
119.221
21
-126.435
0
LINE
8
BLACK
6
CONTINUOUS
10
119.221
20
-126.435
11
131.465
21
-133.222
0
LINE
8
BLACK
6
CONTINUOUS
10
131.465
20
-133.222
11
124.678
21
-145.467
0
LINE
8
BLACK
6
CONTINUOUS
10
54.2637
20
-42.4643
11
67.9048
21
-45.6136
0
LINE
8
BLACK
6
CONTINUOUS
10
67.9048
20
-45.6136
11
64.7555
21
-59.2548
0
LINE
8
BLACK
6
CONTINUOUS
10
64.7555
20
-59.2548
11
51.1143
21
-56.1055
0
LINE
8
BLACK
6
CONTINUOUS
10
51.1143
20
-56.1055
11
54.2637
21
-42.4643
0
LINE
8
BLACK
6
CONTINUOUS
10
185.486
20
-138.619
11
173.241
21
-145.407
0
LINE
8
BLACK
6
CONTINUOUS
10
173.241
20
-145.407
11
166.454
21
-133.162
0
LINE
8
BLACK
6
CONTINUOUS
10
166.454
20
-133.162
11
178.698
21
-126.375
0
LINE
8
BLACK
6
CONTINUOUS
10
178.698
20
-126.375
11
185.486
21
-138.619
  0
ENDSEC
  0
EOF
