G04 #@! TF.GenerationSoftware,KiCad,Pcbnew,7.0.2-0*
G04 #@! TF.CreationDate,2023-09-16T10:11:01+01:00*
G04 #@! TF.ProjectId,buteo-mx,62757465-6f2d-46d7-982e-6b696361645f,0.0.1*
G04 #@! TF.SameCoordinates,Original*
G04 #@! TF.FileFunction,Soldermask,Top*
G04 #@! TF.FilePolarity,Negative*
%FSLAX46Y46*%
G04 Gerber Fmt 4.6, Leading zero omitted, Abs format (unit mm)*
G04 Created by KiCad (PCBNEW 7.0.2-0) date 2023-09-16 10:11:01*
%MOMM*%
%LPD*%
G01*
G04 APERTURE LIST*
G04 Aperture macros list*
%AMRoundRect*
0 Rectangle with rounded corners*
0 $1 Rounding radius*
0 $2 $3 $4 $5 $6 $7 $8 $9 X,Y pos of 4 corners*
0 Add a 4 corners polygon primitive as box body*
4,1,4,$2,$3,$4,$5,$6,$7,$8,$9,$2,$3,0*
0 Add four circle primitives for the rounded corners*
1,1,$1+$1,$2,$3*
1,1,$1+$1,$4,$5*
1,1,$1+$1,$6,$7*
1,1,$1+$1,$8,$9*
0 Add four rect primitives between the rounded corners*
20,1,$1+$1,$2,$3,$4,$5,0*
20,1,$1+$1,$4,$5,$6,$7,0*
20,1,$1+$1,$6,$7,$8,$9,0*
20,1,$1+$1,$8,$9,$2,$3,0*%
G04 Aperture macros list end*
%ADD10O,2.500000X1.500000*%
%ADD11O,1.500000X2.500000*%
%ADD12C,1.900000*%
%ADD13C,3.450000*%
%ADD14C,2.200000*%
%ADD15RoundRect,0.250001X-0.591239X-0.504941X0.310051X-0.713020X0.591239X0.504941X-0.310051X0.713020X0*%
%ADD16C,2.600000*%
%ADD17C,3.500000*%
%ADD18RoundRect,0.250001X-0.334746X-0.701765X0.573257X-0.525267X0.334746X0.701765X-0.573257X0.525267X0*%
%ADD19RoundRect,0.250001X-0.608501X-0.483999X0.284978X-0.723406X0.608501X0.483999X-0.284978X0.723406X0*%
%ADD20RoundRect,0.250001X-0.573257X-0.525267X0.334746X-0.701765X0.573257X0.525267X-0.334746X0.701765X0*%
%ADD21RoundRect,0.250001X-0.624999X0.462499X-0.624999X-0.462499X0.624999X-0.462499X0.624999X0.462499X0*%
%ADD22RoundRect,0.250000X-0.625000X0.400000X-0.625000X-0.400000X0.625000X-0.400000X0.625000X0.400000X0*%
%ADD23RoundRect,0.250001X-0.284978X-0.723406X0.608501X-0.483999X0.284978X0.723406X-0.608501X0.483999X0*%
%ADD24RoundRect,0.250001X0.676724X0.382850X-0.168304X0.759080X-0.676724X-0.382850X0.168304X-0.759080X0*%
%ADD25RoundRect,0.250001X-0.310051X-0.713020X0.591239X-0.504941X0.310051X0.713020X-0.591239X0.504941X0*%
%ADD26RoundRect,0.250001X0.707516X0.322412X-0.101505X0.770860X-0.707516X-0.322412X0.101505X-0.770860X0*%
%ADD27R,1.700000X1.700000*%
%ADD28O,1.700000X1.700000*%
%ADD29RoundRect,0.250001X0.101505X0.770860X-0.707516X0.322412X-0.101505X-0.770860X0.707516X-0.322412X0*%
%ADD30RoundRect,0.250001X0.168304X0.759080X-0.676724X0.382850X-0.168304X-0.759080X0.676724X-0.382850X0*%
%ADD31R,1.300000X0.300000*%
%ADD32R,2.200000X1.800000*%
%ADD33C,1.500000*%
%ADD34C,1.600000*%
G04 APERTURE END LIST*
D10*
X140869279Y-74717501D03*
X140869279Y-77257501D03*
X140869279Y-79797501D03*
X140869279Y-82337501D03*
X140869279Y-84877501D03*
X140869279Y-87417501D03*
X140869279Y-89957501D03*
X140869279Y-92497501D03*
X140869279Y-95037501D03*
D11*
X143909279Y-95537501D03*
X146449279Y-95537501D03*
X148989279Y-95537501D03*
X151529279Y-95537501D03*
X154069279Y-95537501D03*
D10*
X157109279Y-95037501D03*
X157109279Y-92497501D03*
X157109279Y-89957501D03*
X157109279Y-87417501D03*
X157109279Y-84877501D03*
X157109279Y-82337501D03*
X157109279Y-79797501D03*
X157109279Y-77257501D03*
X157109279Y-74717501D03*
D12*
X71734432Y-67329607D03*
D13*
X77047024Y-68753112D03*
D12*
X82359616Y-70176617D03*
D14*
X78574056Y-63054150D03*
X82860166Y-66376689D03*
D12*
X210507989Y-50671676D03*
D13*
X215820581Y-49248171D03*
D12*
X221133173Y-47824666D03*
D14*
X214293549Y-43549209D03*
X219666698Y-44283558D03*
D15*
X48052034Y-94025291D03*
X50950784Y-94694521D03*
D16*
X129995000Y-83370000D03*
D17*
X129995000Y-83370000D03*
D12*
X66534399Y-86736410D03*
D13*
X71846991Y-88159915D03*
D12*
X77159583Y-89583420D03*
D14*
X73374023Y-82460953D03*
X77660133Y-85783492D03*
D12*
X215734326Y-70176617D03*
D13*
X221046918Y-68753112D03*
D12*
X226359510Y-67329607D03*
D14*
X219519886Y-63054150D03*
X224893035Y-63788499D03*
D16*
X129985000Y-121340000D03*
D17*
X129985000Y-121340000D03*
D18*
X265444633Y-82908476D03*
X268364973Y-82340820D03*
D12*
X94917033Y-58928858D03*
D13*
X100229625Y-60352363D03*
D12*
X105542217Y-61775868D03*
D14*
X101756657Y-54653401D03*
X106042767Y-57975940D03*
D19*
X109295453Y-99355980D03*
X112169083Y-100125966D03*
D12*
X111738568Y-74656767D03*
D13*
X117051160Y-76080272D03*
D12*
X122363752Y-77503777D03*
D14*
X118578192Y-70381310D03*
X122864302Y-73703849D03*
D12*
X233225321Y-52096770D03*
D13*
X238584356Y-50859539D03*
D12*
X243943391Y-49622308D03*
D14*
X237257145Y-45110756D03*
X242601392Y-46032177D03*
D20*
X29767092Y-82346709D03*
X32687432Y-82914365D03*
D19*
X114464630Y-79973681D03*
X117338260Y-80743667D03*
D21*
X157064581Y-113287501D03*
X157064581Y-116262501D03*
D15*
X57088786Y-54869987D03*
X59987536Y-55539217D03*
D12*
X260643932Y-79334958D03*
D13*
X266042882Y-78285509D03*
D12*
X271441832Y-77236060D03*
D14*
X264917109Y-72493909D03*
X270225944Y-73601281D03*
D22*
X152416382Y-110499987D03*
X152416382Y-113599987D03*
D12*
X180922654Y-96886044D03*
D13*
X186235246Y-95462539D03*
D12*
X191547838Y-94039034D03*
D14*
X184708214Y-89763577D03*
X190081363Y-90497926D03*
D12*
X192551723Y-61775868D03*
D13*
X197864315Y-60352363D03*
D12*
X203176907Y-58928858D03*
D14*
X196337283Y-54653401D03*
X201710432Y-55387750D03*
D23*
X180742624Y-80730253D03*
X183616254Y-79960267D03*
X220748771Y-73406610D03*
X223622401Y-72636624D03*
D19*
X69277717Y-92060022D03*
X72151347Y-92830008D03*
D15*
X52550421Y-74473340D03*
X55449171Y-75142570D03*
D24*
X105674944Y-122756789D03*
X102957146Y-121546747D03*
D20*
X33599981Y-62477348D03*
X36520321Y-63045004D03*
D16*
X167985000Y-83360000D03*
D17*
X167985000Y-83360000D03*
D23*
X202816386Y-84557822D03*
X205690016Y-83787836D03*
D12*
X76959770Y-47824671D03*
D13*
X82272362Y-49248176D03*
D12*
X87584954Y-50671681D03*
D14*
X83799394Y-43549214D03*
X88085504Y-46871753D03*
D16*
X233285000Y-75820000D03*
D17*
X233285000Y-75820000D03*
D12*
X237757738Y-71728824D03*
D13*
X243116773Y-70491593D03*
D12*
X248475808Y-69254362D03*
D14*
X241789562Y-64742810D03*
X247133809Y-65664231D03*
D19*
X74470146Y-72652631D03*
X77343776Y-73422617D03*
D23*
X225934303Y-92836559D03*
X228807933Y-92066573D03*
D25*
X242655795Y-75143942D03*
X245554545Y-74474712D03*
D12*
X197789187Y-81322345D03*
D13*
X203101779Y-79898840D03*
D12*
X208414371Y-78475335D03*
D14*
X201574747Y-74199878D03*
X206947896Y-74934227D03*
D12*
X203048390Y-100949954D03*
D13*
X208360982Y-99526449D03*
D12*
X213673574Y-98102944D03*
D14*
X206833950Y-93827487D03*
X212207099Y-94561836D03*
D12*
X106546105Y-94039028D03*
D13*
X111858697Y-95462533D03*
D12*
X117171289Y-96886038D03*
D14*
X113385729Y-89763571D03*
X117671839Y-93086110D03*
D12*
X45104267Y-88806071D03*
D13*
X50463302Y-90043302D03*
D12*
X55822337Y-91280533D03*
D14*
X51790513Y-84294519D03*
X56189966Y-87465451D03*
D19*
X79665899Y-53132517D03*
X82539529Y-53902503D03*
D12*
X49618135Y-69254361D03*
D13*
X54977170Y-70491592D03*
D12*
X60336205Y-71728823D03*
D14*
X56304381Y-64742809D03*
X60703834Y-67913741D03*
D12*
X220934360Y-89583420D03*
D13*
X226246952Y-88159915D03*
D12*
X231559544Y-86736410D03*
D14*
X224719920Y-82460953D03*
X230093069Y-83195302D03*
D23*
X185940712Y-100126041D03*
X188814342Y-99356055D03*
D16*
X64815000Y-75810000D03*
D17*
X64815000Y-75810000D03*
D12*
X26652108Y-77236057D03*
D13*
X32051058Y-78285506D03*
D12*
X37450008Y-79334955D03*
D14*
X33176831Y-72493906D03*
X37684268Y-75509368D03*
D12*
X242271607Y-91280533D03*
D13*
X247630642Y-90043302D03*
D12*
X252989677Y-88806071D03*
D14*
X246303431Y-84294519D03*
X251647678Y-85215940D03*
D26*
X125395402Y-132798598D03*
X122793408Y-131356290D03*
D23*
X215523214Y-53904567D03*
X218396844Y-53134581D03*
D12*
X256785581Y-59485456D03*
D13*
X262184531Y-58436007D03*
D12*
X267583481Y-57386558D03*
D14*
X261058758Y-52644407D03*
X266367593Y-53751779D03*
D19*
X87163167Y-103405713D03*
X90036797Y-104175699D03*
D12*
X30510464Y-57386553D03*
D13*
X35909414Y-58436002D03*
D12*
X41308364Y-59485451D03*
D14*
X37035187Y-52644402D03*
X41542624Y-55659864D03*
D22*
X152390980Y-115833987D03*
X152390980Y-118933987D03*
D12*
X175728186Y-77503777D03*
D13*
X181040778Y-76080272D03*
D12*
X186353370Y-74656767D03*
D14*
X179513746Y-70381310D03*
X184886895Y-71115659D03*
D12*
X84420374Y-98102948D03*
D13*
X89732966Y-99526453D03*
D12*
X95045558Y-100949958D03*
D14*
X91259998Y-93827491D03*
X95546108Y-97150030D03*
D18*
X261576548Y-63063406D03*
X264496888Y-62495750D03*
D23*
X197565816Y-65010720D03*
X200439446Y-64240734D03*
D27*
X146498182Y-118958186D03*
D28*
X146498182Y-116418186D03*
X146498182Y-113878186D03*
X146498182Y-111338186D03*
D29*
X175133733Y-131306085D03*
X172531739Y-132748393D03*
D30*
X194956544Y-121479434D03*
X192238746Y-122689476D03*
D12*
X107541492Y-128426882D03*
D13*
X102516992Y-126189830D03*
D12*
X97492492Y-123952778D03*
D14*
X100117246Y-131579748D03*
X96403665Y-127627620D03*
D25*
X238160552Y-55508331D03*
X241059302Y-54839101D03*
D31*
X166435000Y-100985000D03*
X166435000Y-101485000D03*
X166435000Y-101985000D03*
X166435000Y-102485000D03*
X166435000Y-102985000D03*
X166435000Y-103485000D03*
X166435000Y-103985000D03*
X166435000Y-104485000D03*
X166435000Y-104985000D03*
X166435000Y-105485000D03*
X166435000Y-105985000D03*
X166435000Y-106485000D03*
D32*
X163185000Y-99085000D03*
X163185000Y-108385000D03*
D19*
X97672594Y-64251608D03*
X100546224Y-65021594D03*
D23*
X208072999Y-104175777D03*
X210946629Y-103405791D03*
D25*
X247178629Y-94689339D03*
X250077379Y-94020109D03*
D12*
X89679574Y-78475333D03*
D13*
X94992166Y-79898838D03*
D12*
X100304758Y-81322343D03*
D14*
X96519198Y-74199876D03*
X100805308Y-77522415D03*
D12*
X200426470Y-123892255D03*
D13*
X195401970Y-126129307D03*
D12*
X190377470Y-128366359D03*
D14*
X197801716Y-131519225D03*
X192379842Y-131634463D03*
D16*
X167995000Y-121350000D03*
D17*
X167995000Y-121350000D03*
D12*
X126759824Y-138617594D03*
D13*
X121949416Y-135951141D03*
D12*
X117139008Y-133284688D03*
D14*
X119089039Y-141111397D03*
X115734041Y-136850648D03*
D12*
X54150549Y-49622312D03*
D13*
X59509584Y-50859543D03*
D12*
X64868619Y-52096774D03*
D14*
X60836795Y-45110760D03*
X65236248Y-48281692D03*
D19*
X92427024Y-83789699D03*
X95300654Y-84559685D03*
D12*
X180779956Y-133224175D03*
D13*
X175969548Y-135890628D03*
D12*
X171159140Y-138557081D03*
D14*
X178829925Y-141050884D03*
X173438726Y-141638231D03*
D33*
X143350000Y-148360000D03*
D34*
X143350000Y-138250000D03*
X143350000Y-140790000D03*
X143350000Y-143330000D03*
X143350000Y-145870000D03*
X142125000Y-135860000D03*
X143975000Y-135860000D03*
M02*
