M48
; DRILL file {KiCad 7.0.2-0} date 2023 September 16, Saturday 10:11:07
; FORMAT={-:-/ absolute / metric / decimal}
; #@! TF.CreationDate,2023-09-16T10:11:07+01:00
; #@! TF.GenerationSoftware,Kicad,Pcbnew,7.0.2-0
; #@! TF.FileFunction,NonPlated,1,2,NPTH
FMAT,2
METRIC
; #@! TA.AperFunction,NonPlated,NPTH,ComponentDrill
T1C1.500
; #@! TA.AperFunction,NonPlated,NPTH,ComponentDrill
T2C1.900
; #@! TA.AperFunction,NonPlated,NPTH,ComponentDrill
T3C3.450
%
G90
G05
T1
X143.35Y-148.36
T2
X26.652Y-77.236
X30.51Y-57.387
X37.45Y-79.335
X41.308Y-59.485
X45.104Y-88.806
X49.618Y-69.254
X54.151Y-49.622
X55.822Y-91.281
X60.336Y-71.729
X64.869Y-52.097
X66.534Y-86.736
X71.734Y-67.33
X76.96Y-47.825
X77.16Y-89.583
X82.36Y-70.177
X84.42Y-98.103
X87.585Y-50.672
X89.68Y-78.475
X94.917Y-58.929
X95.046Y-100.95
X97.492Y-123.953
X100.305Y-81.322
X105.542Y-61.776
X106.546Y-94.039
X107.541Y-128.427
X111.739Y-74.657
X117.139Y-133.285
X117.171Y-96.886
X122.364Y-77.504
X126.76Y-138.618
X171.159Y-138.557
X175.728Y-77.504
X180.78Y-133.224
X180.923Y-96.886
X186.353Y-74.657
X190.377Y-128.366
X191.548Y-94.039
X192.552Y-61.776
X197.789Y-81.322
X200.426Y-123.892
X203.048Y-100.95
X203.177Y-58.929
X208.414Y-78.475
X210.508Y-50.672
X213.674Y-98.103
X215.734Y-70.177
X220.934Y-89.583
X221.133Y-47.825
X226.36Y-67.33
X231.56Y-86.736
X233.225Y-52.097
X237.758Y-71.729
X242.272Y-91.281
X243.943Y-49.622
X248.476Y-69.254
X252.99Y-88.806
X256.786Y-59.485
X260.644Y-79.335
X267.583Y-57.387
X271.442Y-77.236
T3
X32.051Y-78.286
X35.909Y-58.436
X50.463Y-90.043
X54.977Y-70.492
X59.51Y-50.86
X71.847Y-88.16
X77.047Y-68.753
X82.272Y-49.248
X89.733Y-99.526
X94.992Y-79.899
X100.23Y-60.352
X102.517Y-126.19
X111.859Y-95.463
X117.051Y-76.08
X121.949Y-135.951
X175.97Y-135.891
X181.041Y-76.08
X186.235Y-95.463
X195.402Y-126.129
X197.864Y-60.352
X203.102Y-79.899
X208.361Y-99.526
X215.821Y-49.248
X221.047Y-68.753
X226.247Y-88.16
X238.584Y-50.86
X243.117Y-70.492
X247.631Y-90.043
X262.185Y-58.436
X266.043Y-78.286
T0
M30
