G04 #@! TF.GenerationSoftware,KiCad,Pcbnew,7.0.2-0*
G04 #@! TF.CreationDate,2023-09-16T16:42:04+01:00*
G04 #@! TF.ProjectId,buteo-mx,62757465-6f2d-46d7-982e-6b696361645f,0.0.1*
G04 #@! TF.SameCoordinates,Original*
G04 #@! TF.FileFunction,Other,User*
%FSLAX46Y46*%
G04 Gerber Fmt 4.6, Leading zero omitted, Abs format (unit mm)*
G04 Created by KiCad (PCBNEW 7.0.2-0) date 2023-09-16 16:42:04*
%MOMM*%
%LPD*%
G01*
G04 APERTURE LIST*
%ADD10C,0.150000*%
%ADD11C,0.200000*%
%ADD12C,0.120000*%
G04 APERTURE END LIST*
D10*
X66215000Y-75810000D02*
G75*
G03*
X66215000Y-75810000I-1400000J0D01*
G01*
X234685000Y-75820000D02*
G75*
G03*
X234685000Y-75820000I-1400000J0D01*
G01*
D11*
X169189279Y-102349035D02*
G75*
G03*
X169189279Y-102349035I-20200000J0D01*
G01*
D10*
X169385001Y-83350001D02*
G75*
G03*
X169385001Y-83350001I-1400001J0D01*
G01*
X131385001Y-121349999D02*
G75*
G03*
X131385001Y-121349999I-1400001J0D01*
G01*
X139155000Y-71210000D02*
X158830000Y-71210000D01*
X158830000Y-97215000D01*
X139155000Y-97215000D01*
X139155000Y-71210000D01*
X131395000Y-83370000D02*
G75*
G03*
X131395000Y-83370000I-1400000J0D01*
G01*
X169395000Y-121350000D02*
G75*
G03*
X169395000Y-121350000I-1400000J0D01*
G01*
D12*
X72097277Y-60179898D02*
X85620238Y-63803365D01*
X85620238Y-63803365D02*
X81996771Y-77326326D01*
X81996771Y-77326326D02*
X68473810Y-73702859D01*
X68473810Y-73702859D02*
X72097277Y-60179898D01*
X207247367Y-44298424D02*
X220770328Y-40674957D01*
X220770328Y-40674957D02*
X224393795Y-54197918D01*
X224393795Y-54197918D02*
X210870834Y-57821385D01*
X210870834Y-57821385D02*
X207247367Y-44298424D01*
X66897244Y-79586701D02*
X80420205Y-83210168D01*
X80420205Y-83210168D02*
X76796738Y-96733129D01*
X76796738Y-96733129D02*
X63273777Y-93109662D01*
X63273777Y-93109662D02*
X66897244Y-79586701D01*
X212473704Y-63803365D02*
X225996665Y-60179898D01*
X225996665Y-60179898D02*
X229620132Y-73702859D01*
X229620132Y-73702859D02*
X216097171Y-77326326D01*
X216097171Y-77326326D02*
X212473704Y-63803365D01*
X95279878Y-51779149D02*
X108802839Y-55402616D01*
X108802839Y-55402616D02*
X105179372Y-68925577D01*
X105179372Y-68925577D02*
X91656411Y-65302110D01*
X91656411Y-65302110D02*
X95279878Y-51779149D01*
X112101413Y-67507058D02*
X125624374Y-71130525D01*
X125624374Y-71130525D02*
X122000907Y-84653486D01*
X122000907Y-84653486D02*
X108477946Y-81030019D01*
X108477946Y-81030019D02*
X112101413Y-67507058D01*
X230189108Y-45613606D02*
X243830289Y-42464291D01*
X243830289Y-42464291D02*
X246979604Y-56105472D01*
X246979604Y-56105472D02*
X233338423Y-59254787D01*
X233338423Y-59254787D02*
X230189108Y-45613606D01*
X257835829Y-72749782D02*
X271578609Y-70078456D01*
X271578609Y-70078456D02*
X274249935Y-83821236D01*
X274249935Y-83821236D02*
X260507155Y-86492562D01*
X260507155Y-86492562D02*
X257835829Y-72749782D01*
X177662032Y-90512792D02*
X191184993Y-86889325D01*
X191184993Y-86889325D02*
X194808460Y-100412286D01*
X194808460Y-100412286D02*
X181285499Y-104035753D01*
X181285499Y-104035753D02*
X177662032Y-90512792D01*
X189291101Y-55402616D02*
X202814062Y-51779149D01*
X202814062Y-51779149D02*
X206437529Y-65302110D01*
X206437529Y-65302110D02*
X192914568Y-68925577D01*
X192914568Y-68925577D02*
X189291101Y-55402616D01*
X77322615Y-40674962D02*
X90845576Y-44298429D01*
X90845576Y-44298429D02*
X87222109Y-57821390D01*
X87222109Y-57821390D02*
X73699148Y-54197923D01*
X73699148Y-54197923D02*
X77322615Y-40674962D01*
X234721525Y-65245660D02*
X248362706Y-62096345D01*
X248362706Y-62096345D02*
X251512021Y-75737526D01*
X251512021Y-75737526D02*
X237870840Y-78886841D01*
X237870840Y-78886841D02*
X234721525Y-65245660D01*
X194528565Y-74949093D02*
X208051526Y-71325626D01*
X208051526Y-71325626D02*
X211674993Y-84848587D01*
X211674993Y-84848587D02*
X198152032Y-88472054D01*
X198152032Y-88472054D02*
X194528565Y-74949093D01*
X199787768Y-94576702D02*
X213310729Y-90953235D01*
X213310729Y-90953235D02*
X216934196Y-104476196D01*
X216934196Y-104476196D02*
X203411235Y-108099663D01*
X203411235Y-108099663D02*
X199787768Y-94576702D01*
X106908950Y-86889319D02*
X120431911Y-90512786D01*
X120431911Y-90512786D02*
X116808444Y-104035747D01*
X116808444Y-104035747D02*
X103285483Y-100412280D01*
X103285483Y-100412280D02*
X106908950Y-86889319D01*
X45217369Y-81648054D02*
X58858550Y-84797369D01*
X58858550Y-84797369D02*
X55709235Y-98438550D01*
X55709235Y-98438550D02*
X42068054Y-95289235D01*
X42068054Y-95289235D02*
X45217369Y-81648054D01*
X49731237Y-62096344D02*
X63372418Y-65245659D01*
X63372418Y-65245659D02*
X60223103Y-78886840D01*
X60223103Y-78886840D02*
X46581922Y-75737525D01*
X46581922Y-75737525D02*
X49731237Y-62096344D01*
X217673738Y-83210168D02*
X231196699Y-79586701D01*
X231196699Y-79586701D02*
X234820166Y-93109662D01*
X234820166Y-93109662D02*
X221297205Y-96733129D01*
X221297205Y-96733129D02*
X217673738Y-83210168D01*
X26515331Y-70078453D02*
X40258111Y-72749779D01*
X40258111Y-72749779D02*
X37586785Y-86492559D01*
X37586785Y-86492559D02*
X23844005Y-83821233D01*
X23844005Y-83821233D02*
X26515331Y-70078453D01*
X239235394Y-84797369D02*
X252876575Y-81648054D01*
X252876575Y-81648054D02*
X256025890Y-95289235D01*
X256025890Y-95289235D02*
X242384709Y-98438550D01*
X242384709Y-98438550D02*
X239235394Y-84797369D01*
X253977478Y-52900280D02*
X267720258Y-50228954D01*
X267720258Y-50228954D02*
X270391584Y-63971734D01*
X270391584Y-63971734D02*
X256648804Y-66643060D01*
X256648804Y-66643060D02*
X253977478Y-52900280D01*
X30373687Y-50228949D02*
X44116467Y-52900275D01*
X44116467Y-52900275D02*
X41445141Y-66643055D01*
X41445141Y-66643055D02*
X27702361Y-63971729D01*
X27702361Y-63971729D02*
X30373687Y-50228949D01*
X172467564Y-71130525D02*
X185990525Y-67507058D01*
X185990525Y-67507058D02*
X189613992Y-81030019D01*
X189613992Y-81030019D02*
X176091031Y-84653486D01*
X176091031Y-84653486D02*
X172467564Y-71130525D01*
X84783219Y-90953239D02*
X98306180Y-94576706D01*
X98306180Y-94576706D02*
X94682713Y-108099667D01*
X94682713Y-108099667D02*
X81159752Y-104476200D01*
X81159752Y-104476200D02*
X84783219Y-90953239D01*
X106064654Y-135431805D02*
X93275017Y-129737492D01*
X93275017Y-129737492D02*
X98969330Y-116947855D01*
X98969330Y-116947855D02*
X111758967Y-122642168D01*
X111758967Y-122642168D02*
X106064654Y-135431805D01*
X90042419Y-71325624D02*
X103565380Y-74949091D01*
X103565380Y-74949091D02*
X99941913Y-88472052D01*
X99941913Y-88472052D02*
X86418952Y-84848585D01*
X86418952Y-84848585D02*
X90042419Y-71325624D01*
X204643945Y-129676969D02*
X191854308Y-135371282D01*
X191854308Y-135371282D02*
X186159995Y-122581645D01*
X186159995Y-122581645D02*
X198949632Y-116887332D01*
X198949632Y-116887332D02*
X204643945Y-129676969D01*
X124678087Y-145467146D02*
X112433411Y-138679812D01*
X112433411Y-138679812D02*
X119220745Y-126435136D01*
X119220745Y-126435136D02*
X131465421Y-133222470D01*
X131465421Y-133222470D02*
X124678087Y-145467146D01*
X54263651Y-42464295D02*
X67904832Y-45613610D01*
X67904832Y-45613610D02*
X64755517Y-59254791D01*
X64755517Y-59254791D02*
X51114336Y-56105476D01*
X51114336Y-56105476D02*
X54263651Y-42464295D01*
X185485553Y-138619299D02*
X173240877Y-145406633D01*
X173240877Y-145406633D02*
X166453543Y-133161957D01*
X166453543Y-133161957D02*
X178698219Y-126374623D01*
X178698219Y-126374623D02*
X185485553Y-138619299D01*
M02*
