G04 #@! TF.GenerationSoftware,KiCad,Pcbnew,7.0.2-0*
G04 #@! TF.CreationDate,2023-09-16T16:42:04+01:00*
G04 #@! TF.ProjectId,buteo-mx,62757465-6f2d-46d7-982e-6b696361645f,0.0.1*
G04 #@! TF.SameCoordinates,Original*
G04 #@! TF.FileFunction,Other,User*
%FSLAX46Y46*%
G04 Gerber Fmt 4.6, Leading zero omitted, Abs format (unit mm)*
G04 Created by KiCad (PCBNEW 7.0.2-0) date 2023-09-16 16:42:04*
%MOMM*%
%LPD*%
G01*
G04 APERTURE LIST*
%ADD10C,0.200000*%
%ADD11C,0.120000*%
G04 APERTURE END LIST*
D10*
X148989281Y-104890005D02*
X148989276Y-99810004D01*
X146449279Y-102350004D02*
X151529279Y-102349996D01*
X169439279Y-102350000D02*
G75*
G03*
X169439279Y-102350000I-20450000J0D01*
G01*
D11*
X69975956Y-56505663D02*
X89294473Y-61682044D01*
X89294473Y-61682044D02*
X84118092Y-81000561D01*
X84118092Y-81000561D02*
X64799575Y-75824180D01*
X64799575Y-75824180D02*
X69975956Y-56505663D01*
X203573132Y-42177103D02*
X222891649Y-37000722D01*
X222891649Y-37000722D02*
X228068030Y-56319239D01*
X228068030Y-56319239D02*
X208749513Y-61495620D01*
X208749513Y-61495620D02*
X203573132Y-42177103D01*
X64775923Y-75912466D02*
X84094440Y-81088847D01*
X84094440Y-81088847D02*
X78918059Y-100407364D01*
X78918059Y-100407364D02*
X59599542Y-95230983D01*
X59599542Y-95230983D02*
X64775923Y-75912466D01*
X208799469Y-61682044D02*
X228117986Y-56505663D01*
X228117986Y-56505663D02*
X233294367Y-75824180D01*
X233294367Y-75824180D02*
X213975850Y-81000561D01*
X213975850Y-81000561D02*
X208799469Y-61682044D01*
X93158557Y-48104914D02*
X112477074Y-53281295D01*
X112477074Y-53281295D02*
X107300693Y-72599812D01*
X107300693Y-72599812D02*
X87982176Y-67423431D01*
X87982176Y-67423431D02*
X93158557Y-48104914D01*
X109980092Y-63832823D02*
X129298609Y-69009204D01*
X129298609Y-69009204D02*
X124122228Y-88327721D01*
X124122228Y-88327721D02*
X104803711Y-83151340D01*
X104803711Y-83151340D02*
X109980092Y-63832823D01*
X226591145Y-43365349D02*
X246078546Y-38866328D01*
X246078546Y-38866328D02*
X250577567Y-58353729D01*
X250577567Y-58353729D02*
X231090166Y-62852750D01*
X231090166Y-62852750D02*
X226591145Y-43365349D01*
X254318520Y-70377327D02*
X273951064Y-66561147D01*
X273951064Y-66561147D02*
X277767244Y-86193691D01*
X277767244Y-86193691D02*
X258134700Y-90009871D01*
X258134700Y-90009871D02*
X254318520Y-70377327D01*
X173987797Y-88391471D02*
X193306314Y-83215090D01*
X193306314Y-83215090D02*
X198482695Y-102533607D01*
X198482695Y-102533607D02*
X179164178Y-107709988D01*
X179164178Y-107709988D02*
X173987797Y-88391471D01*
X185616866Y-53281295D02*
X204935383Y-48104914D01*
X204935383Y-48104914D02*
X210111764Y-67423431D01*
X210111764Y-67423431D02*
X190793247Y-72599812D01*
X190793247Y-72599812D02*
X185616866Y-53281295D01*
X75201294Y-37000727D02*
X94519811Y-42177108D01*
X94519811Y-42177108D02*
X89343430Y-61495625D01*
X89343430Y-61495625D02*
X70024913Y-56319244D01*
X70024913Y-56319244D02*
X75201294Y-37000727D01*
X231123562Y-62997403D02*
X250610963Y-58498382D01*
X250610963Y-58498382D02*
X255109984Y-77985783D01*
X255109984Y-77985783D02*
X235622583Y-82484804D01*
X235622583Y-82484804D02*
X231123562Y-62997403D01*
X190854330Y-72827772D02*
X210172847Y-67651391D01*
X210172847Y-67651391D02*
X215349228Y-86969908D01*
X215349228Y-86969908D02*
X196030711Y-92146289D01*
X196030711Y-92146289D02*
X190854330Y-72827772D01*
X196113533Y-92455381D02*
X215432050Y-87279000D01*
X215432050Y-87279000D02*
X220608431Y-106597517D01*
X220608431Y-106597517D02*
X201289914Y-111773898D01*
X201289914Y-111773898D02*
X196113533Y-92455381D01*
X104787629Y-83215084D02*
X124106146Y-88391465D01*
X124106146Y-88391465D02*
X118929765Y-107709982D01*
X118929765Y-107709982D02*
X99611248Y-102533601D01*
X99611248Y-102533601D02*
X104787629Y-83215084D01*
X42969112Y-78050091D02*
X62456513Y-82549112D01*
X62456513Y-82549112D02*
X57957492Y-102036513D01*
X57957492Y-102036513D02*
X38470091Y-97537492D01*
X38470091Y-97537492D02*
X42969112Y-78050091D01*
X47482980Y-58498381D02*
X66970381Y-62997402D01*
X66970381Y-62997402D02*
X62471360Y-82484803D01*
X62471360Y-82484803D02*
X42983959Y-77985782D01*
X42983959Y-77985782D02*
X47482980Y-58498381D01*
X213999503Y-81088847D02*
X233318020Y-75912466D01*
X233318020Y-75912466D02*
X238494401Y-95230983D01*
X238494401Y-95230983D02*
X219175884Y-100407364D01*
X219175884Y-100407364D02*
X213999503Y-81088847D01*
X24142876Y-66561144D02*
X43775420Y-70377324D01*
X43775420Y-70377324D02*
X39959240Y-90009868D01*
X39959240Y-90009868D02*
X20326696Y-86193688D01*
X20326696Y-86193688D02*
X24142876Y-66561144D01*
X235637431Y-82549112D02*
X255124832Y-78050091D01*
X255124832Y-78050091D02*
X259623853Y-97537492D01*
X259623853Y-97537492D02*
X240136452Y-102036513D01*
X240136452Y-102036513D02*
X235637431Y-82549112D01*
X250460169Y-50527825D02*
X270092713Y-46711645D01*
X270092713Y-46711645D02*
X273908893Y-66344189D01*
X273908893Y-66344189D02*
X254276349Y-70160369D01*
X254276349Y-70160369D02*
X250460169Y-50527825D01*
X28001232Y-46711640D02*
X47633776Y-50527820D01*
X47633776Y-50527820D02*
X43817596Y-70160364D01*
X43817596Y-70160364D02*
X24185052Y-66344184D01*
X24185052Y-66344184D02*
X28001232Y-46711640D01*
X168793329Y-69009204D02*
X188111846Y-63832823D01*
X188111846Y-63832823D02*
X193288227Y-83151340D01*
X193288227Y-83151340D02*
X173969710Y-88327721D01*
X173969710Y-88327721D02*
X168793329Y-69009204D01*
X82661898Y-87279004D02*
X101980415Y-92455385D01*
X101980415Y-92455385D02*
X96804034Y-111773902D01*
X96804034Y-111773902D02*
X77485517Y-106597521D01*
X77485517Y-106597521D02*
X82661898Y-87279004D01*
X107585080Y-139392651D02*
X89314171Y-131257918D01*
X89314171Y-131257918D02*
X97448904Y-112987009D01*
X97448904Y-112987009D02*
X115719813Y-121121742D01*
X115719813Y-121121742D02*
X107585080Y-139392651D01*
X87921098Y-67651389D02*
X107239615Y-72827770D01*
X107239615Y-72827770D02*
X102063234Y-92146287D01*
X102063234Y-92146287D02*
X82744717Y-86969906D01*
X82744717Y-86969906D02*
X87921098Y-67651389D01*
X208604791Y-131197395D02*
X190333882Y-139332128D01*
X190333882Y-139332128D02*
X182199149Y-121061219D01*
X182199149Y-121061219D02*
X200470058Y-112926486D01*
X200470058Y-112926486D02*
X208604791Y-131197395D01*
X125847517Y-149545434D02*
X108355123Y-139849242D01*
X108355123Y-139849242D02*
X118051315Y-122356848D01*
X118051315Y-122356848D02*
X135543709Y-132053040D01*
X135543709Y-132053040D02*
X125847517Y-149545434D01*
X52015394Y-38866332D02*
X71502795Y-43365353D01*
X71502795Y-43365353D02*
X67003774Y-62852754D01*
X67003774Y-62852754D02*
X47516373Y-58353733D01*
X47516373Y-58353733D02*
X52015394Y-38866332D01*
X189563841Y-139788729D02*
X172071447Y-149484921D01*
X172071447Y-149484921D02*
X162375255Y-131992527D01*
X162375255Y-131992527D02*
X179867649Y-122296335D01*
X179867649Y-122296335D02*
X189563841Y-139788729D01*
M02*
