G04 #@! TF.GenerationSoftware,KiCad,Pcbnew,7.0.2-0*
G04 #@! TF.CreationDate,2023-09-16T16:42:04+01:00*
G04 #@! TF.ProjectId,buteo-mx,62757465-6f2d-46d7-982e-6b696361645f,0.0.1*
G04 #@! TF.SameCoordinates,Original*
G04 #@! TF.FileFunction,Profile,NP*
%FSLAX46Y46*%
G04 Gerber Fmt 4.6, Leading zero omitted, Abs format (unit mm)*
G04 Created by KiCad (PCBNEW 7.0.2-0) date 2023-09-16 16:42:04*
%MOMM*%
%LPD*%
G01*
G04 APERTURE LIST*
G04 #@! TA.AperFunction,Profile*
%ADD10C,0.100000*%
G04 #@! TD*
G04 #@! TA.AperFunction,Profile*
%ADD11C,0.050000*%
G04 #@! TD*
G04 APERTURE END LIST*
D10*
X75019848Y-39514221D02*
X75019848Y-39514221D01*
G75*
G02*
X77469264Y-38100190I1931752J-517679D01*
G01*
X92007698Y-41995541D01*
G75*
G02*
X93421874Y-44445293I-517298J-1931659D01*
G01*
X93403616Y-44513396D01*
G75*
G03*
X96229196Y-49412140I3863484J-1035804D01*
G01*
X109962304Y-53102269D01*
G75*
G02*
X111375362Y-55550639I-519104J-1931531D01*
G01*
X110125223Y-60223461D01*
G75*
G03*
X112952849Y-65120622I3864077J-1033839D01*
G01*
X126554736Y-68769774D01*
X141493773Y-72540786D01*
G75*
G02*
X143004275Y-74479963I-489473J-1939214D01*
G01*
X143004270Y-91496080D01*
G75*
G03*
X145004277Y-93496080I2000030J80D01*
G01*
X152942277Y-93496082D01*
G75*
G03*
X154942276Y-91496080I-77J2000082D01*
G01*
X154942275Y-74482970D01*
G75*
G02*
X156456402Y-72542885I2000125J-130D01*
G01*
X171561694Y-68759953D01*
X185140473Y-65120152D01*
G75*
G03*
X187968576Y-60221432I-1035673J3863652D01*
G01*
X186716706Y-55548585D01*
G75*
G02*
X188130483Y-53099298I1931894J517585D01*
G01*
X201863874Y-49415976D01*
G75*
G03*
X204692330Y-44520747I-1036174J3863476D01*
G01*
X204671633Y-44443234D01*
G75*
G02*
X206086445Y-41995462I1932067J516034D01*
G01*
X220625206Y-38100833D01*
G75*
G02*
X223074331Y-39514204I517394J-1932067D01*
G01*
X223373538Y-40628824D01*
G75*
G03*
X228134849Y-43489668I3863362J1037224D01*
G01*
X243775891Y-39885943D01*
G75*
G02*
X246173706Y-41385106I449309J-1948457D01*
G01*
X247615630Y-47632633D01*
G75*
G03*
X252275699Y-50659735I3897670J899733D01*
G01*
X267751688Y-47654405D01*
G75*
G02*
X270096165Y-49235930I381212J-1963395D01*
G01*
X276827782Y-83850240D01*
G75*
G02*
X275246455Y-86195241I-1963182J-381760D01*
G01*
X261389248Y-88890826D01*
G75*
G03*
X258255474Y-93716694I763652J-3926274D01*
G01*
X258605360Y-95232831D01*
G75*
G02*
X257106154Y-97631381I-1949060J-449569D01*
G01*
X242442988Y-101013985D01*
G75*
G02*
X240044409Y-99513893I-449688J1948685D01*
G01*
X239848200Y-98661680D01*
G75*
G03*
X234914668Y-95695488I-3898100J-897520D01*
G01*
X222247459Y-99090485D01*
G75*
G03*
X219418467Y-103986408I1035541J-3863615D01*
G01*
X219510713Y-104331743D01*
G75*
G02*
X218096918Y-106779518I-1932413J-516057D01*
G01*
X216383740Y-107239340D01*
X210741466Y-108749801D01*
G75*
G03*
X204188664Y-122469540I2585934J-9659799D01*
G01*
X206560916Y-127809457D01*
X207149443Y-129136041D01*
G75*
G02*
X206136819Y-131773263I-1828143J-811059D01*
G01*
X192231112Y-137983362D01*
G75*
G03*
X187509206Y-140346558I24468188J-54788938D01*
G01*
X172258612Y-148837988D01*
G75*
G02*
X125661812Y-148899313I-23359232J46191598D01*
G01*
X110217662Y-140307463D01*
G75*
G03*
X105488136Y-137942971I-29169862J-52434037D01*
G01*
X91770766Y-131824992D01*
G75*
G02*
X90758416Y-129184753I814634J1826592D01*
G01*
X91380086Y-127788882D01*
X93760947Y-122436969D01*
G75*
G03*
X87214227Y-108713619I-9136667J4064589D01*
G01*
X81563229Y-107198321D01*
X79999411Y-106778909D01*
G75*
G02*
X78584759Y-104336670I512289J1927609D01*
G01*
X78677005Y-103991335D01*
G75*
G03*
X75848013Y-99095412I-3864515J1032275D01*
G01*
X63446889Y-95768581D01*
X63179107Y-95697082D01*
G75*
G03*
X58250117Y-98660165I-1031867J-3864668D01*
G01*
X58051443Y-99518990D01*
G75*
G02*
X55652972Y-101016969I-1948643J450990D01*
G01*
X40989080Y-97631336D01*
G75*
G02*
X39490253Y-95232754I449720J1948636D01*
G01*
X39839496Y-93719832D01*
G75*
G03*
X36707977Y-88894167I-3897346J899802D01*
G01*
X22851455Y-86190642D01*
G75*
G02*
X21271156Y-83846249I383145J1963042D01*
G01*
X27995360Y-49232598D01*
G75*
G02*
X30340180Y-47650724I1963290J-381392D01*
G01*
X45822586Y-50659455D01*
G75*
G03*
X50483397Y-47631497I763014J3926555D01*
G01*
X51923204Y-41386183D01*
G75*
G02*
X54322379Y-39886834I1948896J-449317D01*
G01*
X69954565Y-43499125D01*
G75*
G03*
X74718753Y-40637478I900535J3897425D01*
G01*
X75019848Y-39514221D01*
D11*
X156375000Y-135760000D02*
X156375000Y-149360000D01*
X156675000Y-149660000D02*
X158475000Y-149660000D01*
X158475000Y-135460000D02*
X156675000Y-135460000D01*
X158775000Y-149360000D02*
X158775000Y-135760000D01*
X156675000Y-135460000D02*
G75*
G03*
X156375000Y-135760000I0J-300000D01*
G01*
X156375000Y-149360000D02*
G75*
G03*
X156675000Y-149660000I300000J0D01*
G01*
X158775000Y-135760000D02*
G75*
G03*
X158475000Y-135460000I-300000J0D01*
G01*
X158475000Y-149660000D02*
G75*
G03*
X158775000Y-149360000I0J300000D01*
G01*
M02*
