  0
SECTION
  2
HEADER
  9
$ANGBASE
  50
0.0
  9
$ANGDIR
  70
1
  9
$MEASUREMENT
  70
1
  0
ENDSEC
  0
SECTION
  2
TABLES
  0
TABLE
  2
LTYPE
  70
4
  0
LTYPE
  5
40F
  2
CONTINUOUS
  70
0
  3
Solid line
  72
65
  73
0
  40
0.0
  0
LTYPE
  5
410
  2
DASHDOT
 70
0
  3
Dash Dot ____ _ ____ _
 72
65
 73
4
 40
2.0
 49
1.25
 49
-0.25
 49
0.25
 49
-0.25
  0
LTYPE
  5
411
  2
DASHED
 70
0
  3
Dashed __ __ __ __ __
 72
65
 73
2
 40
0.75
 49
0.5
 49
-0.25
  0
LTYPE
  5
43B
  2
DOTTED
 70
0
  3
Dotted .  .  .  .
 72
65
 73
2
 40
0.2
 49
0.0
 49
-0.2
  0
ENDTAB
  0
TABLE
  2
STYLE
  70
4
  0
STYLE
  2
KICAD
  70
0
  40
0
  41
1
  42
1
  50
0
  71
0
  3
isocp.shx
  0
STYLE
  2
KICADB
  70
0
  40
0
  41
1
  42
1
  50
0
  71
0
  3
isocp.shx
  0
STYLE
  2
KICADI
  70
0
  40
0
  41
1
  42
1
  50
15
  71
0
  3
isocp.shx
  0
STYLE
  2
KICADBI
  70
0
  40
0
  41
1
  42
1
  50
15
  71
0
  3
isocp.shx
  0
ENDTAB
  0
TABLE
  2
LAYER
  70
1
  0
LAYER
  2
BLACK
  70
0
  62
7
  6
CONTINUOUS
  0
ENDTAB
  0
ENDSEC
  0
SECTION
  2
ENTITIES
0
LINE
8
BLACK
6
CONTINUOUS
10
148.989
20
-104.89
11
148.989
21
-99.81
0
LINE
8
BLACK
6
CONTINUOUS
10
146.449
20
-102.35
11
151.529
21
-102.35
0
CIRCLE
8
BLACK
10
148.989
20
-102.35
40
20.45
0
LINE
8
BLACK
6
CONTINUOUS
10
69.976
20
-56.5057
11
89.2945
21
-61.682
0
LINE
8
BLACK
6
CONTINUOUS
10
89.2945
20
-61.682
11
84.1181
21
-81.0006
0
LINE
8
BLACK
6
CONTINUOUS
10
84.1181
20
-81.0006
11
64.7996
21
-75.8242
0
LINE
8
BLACK
6
CONTINUOUS
10
64.7996
20
-75.8242
11
69.976
21
-56.5057
0
LINE
8
BLACK
6
CONTINUOUS
10
203.573
20
-42.1771
11
222.892
21
-37.0007
0
LINE
8
BLACK
6
CONTINUOUS
10
222.892
20
-37.0007
11
228.068
21
-56.3192
0
LINE
8
BLACK
6
CONTINUOUS
10
228.068
20
-56.3192
11
208.75
21
-61.4956
0
LINE
8
BLACK
6
CONTINUOUS
10
208.75
20
-61.4956
11
203.573
21
-42.1771
0
LINE
8
BLACK
6
CONTINUOUS
10
64.7759
20
-75.9125
11
84.0944
21
-81.0888
0
LINE
8
BLACK
6
CONTINUOUS
10
84.0944
20
-81.0888
11
78.9181
21
-100.407
0
LINE
8
BLACK
6
CONTINUOUS
10
78.9181
20
-100.407
11
59.5995
21
-95.231
0
LINE
8
BLACK
6
CONTINUOUS
10
59.5995
20
-95.231
11
64.7759
21
-75.9125
0
LINE
8
BLACK
6
CONTINUOUS
10
208.799
20
-61.682
11
228.118
21
-56.5057
0
LINE
8
BLACK
6
CONTINUOUS
10
228.118
20
-56.5057
11
233.294
21
-75.8242
0
LINE
8
BLACK
6
CONTINUOUS
10
233.294
20
-75.8242
11
213.976
21
-81.0006
0
LINE
8
BLACK
6
CONTINUOUS
10
213.976
20
-81.0006
11
208.799
21
-61.682
0
LINE
8
BLACK
6
CONTINUOUS
10
93.1586
20
-48.1049
11
112.477
21
-53.2813
0
LINE
8
BLACK
6
CONTINUOUS
10
112.477
20
-53.2813
11
107.301
21
-72.5998
0
LINE
8
BLACK
6
CONTINUOUS
10
107.301
20
-72.5998
11
87.9822
21
-67.4234
0
LINE
8
BLACK
6
CONTINUOUS
10
87.9822
20
-67.4234
11
93.1586
21
-48.1049
0
LINE
8
BLACK
6
CONTINUOUS
10
109.98
20
-63.8328
11
129.299
21
-69.0092
0
LINE
8
BLACK
6
CONTINUOUS
10
129.299
20
-69.0092
11
124.122
21
-88.3277
0
LINE
8
BLACK
6
CONTINUOUS
10
124.122
20
-88.3277
11
104.804
21
-83.1513
0
LINE
8
BLACK
6
CONTINUOUS
10
104.804
20
-83.1513
11
109.98
21
-63.8328
0
LINE
8
BLACK
6
CONTINUOUS
10
226.591
20
-43.3653
11
246.079
21
-38.8663
0
LINE
8
BLACK
6
CONTINUOUS
10
246.079
20
-38.8663
11
250.578
21
-58.3537
0
LINE
8
BLACK
6
CONTINUOUS
10
250.578
20
-58.3537
11
231.09
21
-62.8528
0
LINE
8
BLACK
6
CONTINUOUS
10
231.09
20
-62.8528
11
226.591
21
-43.3653
0
LINE
8
BLACK
6
CONTINUOUS
10
254.319
20
-70.3773
11
273.951
21
-66.5611
0
LINE
8
BLACK
6
CONTINUOUS
10
273.951
20
-66.5611
11
277.767
21
-86.1937
0
LINE
8
BLACK
6
CONTINUOUS
10
277.767
20
-86.1937
11
258.135
21
-90.0099
0
LINE
8
BLACK
6
CONTINUOUS
10
258.135
20
-90.0099
11
254.319
21
-70.3773
0
LINE
8
BLACK
6
CONTINUOUS
10
173.988
20
-88.3915
11
193.306
21
-83.2151
0
LINE
8
BLACK
6
CONTINUOUS
10
193.306
20
-83.2151
11
198.483
21
-102.534
0
LINE
8
BLACK
6
CONTINUOUS
10
198.483
20
-102.534
11
179.164
21
-107.71
0
LINE
8
BLACK
6
CONTINUOUS
10
179.164
20
-107.71
11
173.988
21
-88.3915
0
LINE
8
BLACK
6
CONTINUOUS
10
185.617
20
-53.2813
11
204.935
21
-48.1049
0
LINE
8
BLACK
6
CONTINUOUS
10
204.935
20
-48.1049
11
210.112
21
-67.4234
0
LINE
8
BLACK
6
CONTINUOUS
10
210.112
20
-67.4234
11
190.793
21
-72.5998
0
LINE
8
BLACK
6
CONTINUOUS
10
190.793
20
-72.5998
11
185.617
21
-53.2813
0
LINE
8
BLACK
6
CONTINUOUS
10
75.2013
20
-37.0007
11
94.5198
21
-42.1771
0
LINE
8
BLACK
6
CONTINUOUS
10
94.5198
20
-42.1771
11
89.3434
21
-61.4956
0
LINE
8
BLACK
6
CONTINUOUS
10
89.3434
20
-61.4956
11
70.0249
21
-56.3192
0
LINE
8
BLACK
6
CONTINUOUS
10
70.0249
20
-56.3192
11
75.2013
21
-37.0007
0
LINE
8
BLACK
6
CONTINUOUS
10
231.124
20
-62.9974
11
250.611
21
-58.4984
0
LINE
8
BLACK
6
CONTINUOUS
10
250.611
20
-58.4984
11
255.11
21
-77.9858
0
LINE
8
BLACK
6
CONTINUOUS
10
255.11
20
-77.9858
11
235.623
21
-82.4848
0
LINE
8
BLACK
6
CONTINUOUS
10
235.623
20
-82.4848
11
231.124
21
-62.9974
0
LINE
8
BLACK
6
CONTINUOUS
10
190.854
20
-72.8278
11
210.173
21
-67.6514
0
LINE
8
BLACK
6
CONTINUOUS
10
210.173
20
-67.6514
11
215.349
21
-86.9699
0
LINE
8
BLACK
6
CONTINUOUS
10
215.349
20
-86.9699
11
196.031
21
-92.1463
0
LINE
8
BLACK
6
CONTINUOUS
10
196.031
20
-92.1463
11
190.854
21
-72.8278
0
LINE
8
BLACK
6
CONTINUOUS
10
196.114
20
-92.4554
11
215.432
21
-87.279
0
LINE
8
BLACK
6
CONTINUOUS
10
215.432
20
-87.279
11
220.608
21
-106.598
0
LINE
8
BLACK
6
CONTINUOUS
10
220.608
20
-106.598
11
201.29
21
-111.774
0
LINE
8
BLACK
6
CONTINUOUS
10
201.29
20
-111.774
11
196.114
21
-92.4554
0
LINE
8
BLACK
6
CONTINUOUS
10
104.788
20
-83.2151
11
124.106
21
-88.3915
0
LINE
8
BLACK
6
CONTINUOUS
10
124.106
20
-88.3915
11
118.93
21
-107.71
0
LINE
8
BLACK
6
CONTINUOUS
10
118.93
20
-107.71
11
99.6112
21
-102.534
0
LINE
8
BLACK
6
CONTINUOUS
10
99.6112
20
-102.534
11
104.788
21
-83.2151
0
LINE
8
BLACK
6
CONTINUOUS
10
42.9691
20
-78.0501
11
62.4565
21
-82.5491
0
LINE
8
BLACK
6
CONTINUOUS
10
62.4565
20
-82.5491
11
57.9575
21
-102.037
0
LINE
8
BLACK
6
CONTINUOUS
10
57.9575
20
-102.037
11
38.4701
21
-97.5375
0
LINE
8
BLACK
6
CONTINUOUS
10
38.4701
20
-97.5375
11
42.9691
21
-78.0501
0
LINE
8
BLACK
6
CONTINUOUS
10
47.483
20
-58.4984
11
66.9704
21
-62.9974
0
LINE
8
BLACK
6
CONTINUOUS
10
66.9704
20
-62.9974
11
62.4714
21
-82.4848
0
LINE
8
BLACK
6
CONTINUOUS
10
62.4714
20
-82.4848
11
42.984
21
-77.9858
0
LINE
8
BLACK
6
CONTINUOUS
10
42.984
20
-77.9858
11
47.483
21
-58.4984
0
LINE
8
BLACK
6
CONTINUOUS
10
214
20
-81.0888
11
233.318
21
-75.9125
0
LINE
8
BLACK
6
CONTINUOUS
10
233.318
20
-75.9125
11
238.494
21
-95.231
0
LINE
8
BLACK
6
CONTINUOUS
10
238.494
20
-95.231
11
219.176
21
-100.407
0
LINE
8
BLACK
6
CONTINUOUS
10
219.176
20
-100.407
11
214
21
-81.0888
0
LINE
8
BLACK
6
CONTINUOUS
10
24.1429
20
-66.5611
11
43.7754
21
-70.3773
0
LINE
8
BLACK
6
CONTINUOUS
10
43.7754
20
-70.3773
11
39.9592
21
-90.0099
0
LINE
8
BLACK
6
CONTINUOUS
10
39.9592
20
-90.0099
11
20.3267
21
-86.1937
0
LINE
8
BLACK
6
CONTINUOUS
10
20.3267
20
-86.1937
11
24.1429
21
-66.5611
0
LINE
8
BLACK
6
CONTINUOUS
10
235.637
20
-82.5491
11
255.125
21
-78.0501
0
LINE
8
BLACK
6
CONTINUOUS
10
255.125
20
-78.0501
11
259.624
21
-97.5375
0
LINE
8
BLACK
6
CONTINUOUS
10
259.624
20
-97.5375
11
240.136
21
-102.037
0
LINE
8
BLACK
6
CONTINUOUS
10
240.136
20
-102.037
11
235.637
21
-82.5491
0
LINE
8
BLACK
6
CONTINUOUS
10
250.46
20
-50.5278
11
270.093
21
-46.7116
0
LINE
8
BLACK
6
CONTINUOUS
10
270.093
20
-46.7116
11
273.909
21
-66.3442
0
LINE
8
BLACK
6
CONTINUOUS
10
273.909
20
-66.3442
11
254.276
21
-70.1604
0
LINE
8
BLACK
6
CONTINUOUS
10
254.276
20
-70.1604
11
250.46
21
-50.5278
0
LINE
8
BLACK
6
CONTINUOUS
10
28.0012
20
-46.7116
11
47.6338
21
-50.5278
0
LINE
8
BLACK
6
CONTINUOUS
10
47.6338
20
-50.5278
11
43.8176
21
-70.1604
0
LINE
8
BLACK
6
CONTINUOUS
10
43.8176
20
-70.1604
11
24.1851
21
-66.3442
0
LINE
8
BLACK
6
CONTINUOUS
10
24.1851
20
-66.3442
11
28.0012
21
-46.7116
0
LINE
8
BLACK
6
CONTINUOUS
10
168.793
20
-69.0092
11
188.112
21
-63.8328
0
LINE
8
BLACK
6
CONTINUOUS
10
188.112
20
-63.8328
11
193.288
21
-83.1513
0
LINE
8
BLACK
6
CONTINUOUS
10
193.288
20
-83.1513
11
173.97
21
-88.3277
0
LINE
8
BLACK
6
CONTINUOUS
10
173.97
20
-88.3277
11
168.793
21
-69.0092
0
LINE
8
BLACK
6
CONTINUOUS
10
82.6619
20
-87.279
11
101.98
21
-92.4554
0
LINE
8
BLACK
6
CONTINUOUS
10
101.98
20
-92.4554
11
96.804
21
-111.774
0
LINE
8
BLACK
6
CONTINUOUS
10
96.804
20
-111.774
11
77.4855
21
-106.598
0
LINE
8
BLACK
6
CONTINUOUS
10
77.4855
20
-106.598
11
82.6619
21
-87.279
0
LINE
8
BLACK
6
CONTINUOUS
10
107.585
20
-139.393
11
89.3142
21
-131.258
0
LINE
8
BLACK
6
CONTINUOUS
10
89.3142
20
-131.258
11
97.4489
21
-112.987
0
LINE
8
BLACK
6
CONTINUOUS
10
97.4489
20
-112.987
11
115.72
21
-121.122
0
LINE
8
BLACK
6
CONTINUOUS
10
115.72
20
-121.122
11
107.585
21
-139.393
0
LINE
8
BLACK
6
CONTINUOUS
10
87.9211
20
-67.6514
11
107.24
21
-72.8278
0
LINE
8
BLACK
6
CONTINUOUS
10
107.24
20
-72.8278
11
102.063
21
-92.1463
0
LINE
8
BLACK
6
CONTINUOUS
10
102.063
20
-92.1463
11
82.7447
21
-86.9699
0
LINE
8
BLACK
6
CONTINUOUS
10
82.7447
20
-86.9699
11
87.9211
21
-67.6514
0
LINE
8
BLACK
6
CONTINUOUS
10
208.605
20
-131.197
11
190.334
21
-139.332
0
LINE
8
BLACK
6
CONTINUOUS
10
190.334
20
-139.332
11
182.199
21
-121.061
0
LINE
8
BLACK
6
CONTINUOUS
10
182.199
20
-121.061
11
200.47
21
-112.926
0
LINE
8
BLACK
6
CONTINUOUS
10
200.47
20
-112.926
11
208.605
21
-131.197
0
LINE
8
BLACK
6
CONTINUOUS
10
125.848
20
-149.545
11
108.355
21
-139.849
0
LINE
8
BLACK
6
CONTINUOUS
10
108.355
20
-139.849
11
118.051
21
-122.357
0
LINE
8
BLACK
6
CONTINUOUS
10
118.051
20
-122.357
11
135.544
21
-132.053
0
LINE
8
BLACK
6
CONTINUOUS
10
135.544
20
-132.053
11
125.848
21
-149.545
0
LINE
8
BLACK
6
CONTINUOUS
10
52.0154
20
-38.8663
11
71.5028
21
-43.3654
0
LINE
8
BLACK
6
CONTINUOUS
10
71.5028
20
-43.3654
11
67.0038
21
-62.8528
0
LINE
8
BLACK
6
CONTINUOUS
10
67.0038
20
-62.8528
11
47.5164
21
-58.3537
0
LINE
8
BLACK
6
CONTINUOUS
10
47.5164
20
-58.3537
11
52.0154
21
-38.8663
0
LINE
8
BLACK
6
CONTINUOUS
10
189.564
20
-139.789
11
172.071
21
-149.485
0
LINE
8
BLACK
6
CONTINUOUS
10
172.071
20
-149.485
11
162.375
21
-131.993
0
LINE
8
BLACK
6
CONTINUOUS
10
162.375
20
-131.993
11
179.868
21
-122.296
0
LINE
8
BLACK
6
CONTINUOUS
10
179.868
20
-122.296
11
189.564
21
-139.789
  0
ENDSEC
  0
EOF
