G04 #@! TF.GenerationSoftware,KiCad,Pcbnew,7.0.2-0*
G04 #@! TF.CreationDate,2023-09-16T10:11:01+01:00*
G04 #@! TF.ProjectId,buteo-mx,62757465-6f2d-46d7-982e-6b696361645f,0.0.1*
G04 #@! TF.SameCoordinates,Original*
G04 #@! TF.FileFunction,Paste,Top*
G04 #@! TF.FilePolarity,Positive*
%FSLAX46Y46*%
G04 Gerber Fmt 4.6, Leading zero omitted, Abs format (unit mm)*
G04 Created by KiCad (PCBNEW 7.0.2-0) date 2023-09-16 10:11:01*
%MOMM*%
%LPD*%
G01*
G04 APERTURE LIST*
G04 Aperture macros list*
%AMRoundRect*
0 Rectangle with rounded corners*
0 $1 Rounding radius*
0 $2 $3 $4 $5 $6 $7 $8 $9 X,Y pos of 4 corners*
0 Add a 4 corners polygon primitive as box body*
4,1,4,$2,$3,$4,$5,$6,$7,$8,$9,$2,$3,0*
0 Add four circle primitives for the rounded corners*
1,1,$1+$1,$2,$3*
1,1,$1+$1,$4,$5*
1,1,$1+$1,$6,$7*
1,1,$1+$1,$8,$9*
0 Add four rect primitives between the rounded corners*
20,1,$1+$1,$2,$3,$4,$5,0*
20,1,$1+$1,$4,$5,$6,$7,0*
20,1,$1+$1,$6,$7,$8,$9,0*
20,1,$1+$1,$8,$9,$2,$3,0*%
G04 Aperture macros list end*
%ADD10RoundRect,0.250001X-0.591239X-0.504941X0.310051X-0.713020X0.591239X0.504941X-0.310051X0.713020X0*%
%ADD11RoundRect,0.250001X-0.334746X-0.701765X0.573257X-0.525267X0.334746X0.701765X-0.573257X0.525267X0*%
%ADD12RoundRect,0.250001X-0.608501X-0.483999X0.284978X-0.723406X0.608501X0.483999X-0.284978X0.723406X0*%
%ADD13RoundRect,0.250001X-0.573257X-0.525267X0.334746X-0.701765X0.573257X0.525267X-0.334746X0.701765X0*%
%ADD14RoundRect,0.250001X-0.624999X0.462499X-0.624999X-0.462499X0.624999X-0.462499X0.624999X0.462499X0*%
%ADD15RoundRect,0.250000X-0.625000X0.400000X-0.625000X-0.400000X0.625000X-0.400000X0.625000X0.400000X0*%
%ADD16RoundRect,0.250001X-0.284978X-0.723406X0.608501X-0.483999X0.284978X0.723406X-0.608501X0.483999X0*%
%ADD17RoundRect,0.250001X0.676724X0.382850X-0.168304X0.759080X-0.676724X-0.382850X0.168304X-0.759080X0*%
%ADD18RoundRect,0.250001X-0.310051X-0.713020X0.591239X-0.504941X0.310051X0.713020X-0.591239X0.504941X0*%
%ADD19RoundRect,0.250001X0.707516X0.322412X-0.101505X0.770860X-0.707516X-0.322412X0.101505X-0.770860X0*%
%ADD20RoundRect,0.250001X0.101505X0.770860X-0.707516X0.322412X-0.101505X-0.770860X0.707516X-0.322412X0*%
%ADD21RoundRect,0.250001X0.168304X0.759080X-0.676724X0.382850X-0.168304X-0.759080X0.676724X-0.382850X0*%
%ADD22R,1.300000X0.300000*%
%ADD23R,2.200000X1.800000*%
G04 APERTURE END LIST*
D10*
X48052034Y-94025291D03*
X50950784Y-94694521D03*
D11*
X265444633Y-82908476D03*
X268364973Y-82340820D03*
D12*
X109295453Y-99355980D03*
X112169083Y-100125966D03*
D13*
X29767092Y-82346709D03*
X32687432Y-82914365D03*
D12*
X114464630Y-79973681D03*
X117338260Y-80743667D03*
D14*
X157064581Y-113287501D03*
X157064581Y-116262501D03*
D10*
X57088786Y-54869987D03*
X59987536Y-55539217D03*
D15*
X152416382Y-110499987D03*
X152416382Y-113599987D03*
D16*
X180742624Y-80730253D03*
X183616254Y-79960267D03*
X220748771Y-73406610D03*
X223622401Y-72636624D03*
D12*
X69277717Y-92060022D03*
X72151347Y-92830008D03*
D10*
X52550421Y-74473340D03*
X55449171Y-75142570D03*
D17*
X105674944Y-122756789D03*
X102957146Y-121546747D03*
D13*
X33599981Y-62477348D03*
X36520321Y-63045004D03*
D16*
X202816386Y-84557822D03*
X205690016Y-83787836D03*
D12*
X74470146Y-72652631D03*
X77343776Y-73422617D03*
D16*
X225934303Y-92836559D03*
X228807933Y-92066573D03*
D18*
X242655795Y-75143942D03*
X245554545Y-74474712D03*
D12*
X79665899Y-53132517D03*
X82539529Y-53902503D03*
D16*
X185940712Y-100126041D03*
X188814342Y-99356055D03*
D19*
X125395402Y-132798598D03*
X122793408Y-131356290D03*
D16*
X215523214Y-53904567D03*
X218396844Y-53134581D03*
D12*
X87163167Y-103405713D03*
X90036797Y-104175699D03*
D15*
X152390980Y-115833987D03*
X152390980Y-118933987D03*
D11*
X261576548Y-63063406D03*
X264496888Y-62495750D03*
D16*
X197565816Y-65010720D03*
X200439446Y-64240734D03*
D20*
X175133733Y-131306085D03*
X172531739Y-132748393D03*
D21*
X194956544Y-121479434D03*
X192238746Y-122689476D03*
D18*
X238160552Y-55508331D03*
X241059302Y-54839101D03*
D22*
X166435000Y-100985000D03*
X166435000Y-101485000D03*
X166435000Y-101985000D03*
X166435000Y-102485000D03*
X166435000Y-102985000D03*
X166435000Y-103485000D03*
X166435000Y-103985000D03*
X166435000Y-104485000D03*
X166435000Y-104985000D03*
X166435000Y-105485000D03*
X166435000Y-105985000D03*
X166435000Y-106485000D03*
D23*
X163185000Y-99085000D03*
X163185000Y-108385000D03*
D12*
X97672594Y-64251608D03*
X100546224Y-65021594D03*
D16*
X208072999Y-104175777D03*
X210946629Y-103405791D03*
D18*
X247178629Y-94689339D03*
X250077379Y-94020109D03*
D12*
X92427024Y-83789699D03*
X95300654Y-84559685D03*
M02*
